STARTFONT 2.1
FONT -FontForge-Ma Shan Zheng-Book-R-Normal--17-120-100-100-P-168-ISO10646-1
SIZE 12 100 100
FONTBOUNDINGBOX 21 22 -4 -6
COMMENT "Generated by fontforge, http://fontforge.sourceforge.net"
COMMENT "Copyright 2018 The MaShanZheng Project Authors (https://github.com/googlefonts/mashanzheng)"
STARTPROPERTIES 39
FOUNDRY "FontForge"
FAMILY_NAME "Ma Shan Zheng"
WEIGHT_NAME "Book"
SLANT "R"
SETWIDTH_NAME "Normal"
ADD_STYLE_NAME ""
PIXEL_SIZE 17
POINT_SIZE 120
RESOLUTION_X 100
RESOLUTION_Y 100
SPACING "P"
AVERAGE_WIDTH 168
CHARSET_REGISTRY "ISO10646"
CHARSET_ENCODING "1"
FONTNAME_REGISTRY ""
CHARSET_COLLECTIONS "BIG5 ISO10646-1"
FONT_NAME "MaShanZheng-Regular"
FACE_NAME "Ma Shan Zheng Regular"
COPYRIGHT "Copyright 2018 The MaShanZheng Project Authors (https://github.com/googlefonts/mashanzheng)"
FONT_VERSION "2.001"
FONT_ASCENT 15
FONT_DESCENT 2
UNDERLINE_POSITION -2
UNDERLINE_THICKNESS 1
X_HEIGHT 8
CAP_HEIGHT 12
RAW_ASCENT 880
RAW_DESCENT 120
NORM_SPACE 3
RELATIVE_WEIGHT 40
RELATIVE_SETWIDTH 50
SUPERSCRIPT_X 0
SUPERSCRIPT_Y 5
SUPERSCRIPT_SIZE 10
SUBSCRIPT_X 0
SUBSCRIPT_Y 1
SUBSCRIPT_SIZE 10
AVG_LOWERCASE_WIDTH 113
AVG_UPPERCASE_WIDTH 125
ENDPROPERTIES
CHARS 7016
STARTCHAR space
ENCODING 32
SWIDTH 202 0
DWIDTH 3 0
BBX 1 1 0 0
BITMAP
00
ENDCHAR
STARTCHAR exclam
ENCODING 33
SWIDTH 247 0
DWIDTH 4 0
BBX 4 11 1 1
BITMAP
70
60
60
C0
C0
80
80
80
00
C0
C0
ENDCHAR
STARTCHAR quotedbl
ENCODING 34
SWIDTH 249 0
DWIDTH 4 0
BBX 3 4 1 9
BITMAP
A0
A0
A0
A0
ENDCHAR
STARTCHAR numbersign
ENCODING 35
SWIDTH 464 0
DWIDTH 8 0
BBX 8 11 0 1
BITMAP
12
12
17
7F
34
26
FE
2C
28
28
20
ENDCHAR
STARTCHAR dollar
ENCODING 36
SWIDTH 351 0
DWIDTH 6 0
BBX 6 16 0 -1
BITMAP
10
18
18
3C
7C
50
70
30
38
6C
BC
F8
F0
20
20
20
ENDCHAR
STARTCHAR percent
ENCODING 37
SWIDTH 595 0
DWIDTH 10 0
BBX 9 13 1 0
BITMAP
E200
A600
B400
BC00
E800
EA00
1F00
1580
1580
3580
2700
2300
1000
ENDCHAR
STARTCHAR ampersand
ENCODING 38
SWIDTH 515 0
DWIDTH 9 0
BBX 9 12 0 1
BITMAP
0E00
1E00
1A00
3600
1C00
3800
7300
7600
CE00
CC00
5C80
7700
ENDCHAR
STARTCHAR quotesingle
ENCODING 39
SWIDTH 134 0
DWIDTH 2 0
BBX 1 4 1 9
BITMAP
80
80
80
80
ENDCHAR
STARTCHAR parenleft
ENCODING 40
SWIDTH 344 0
DWIDTH 6 0
BBX 5 17 1 -3
BITMAP
08
18
10
30
20
60
60
40
C0
C0
C0
C0
C0
40
60
60
20
ENDCHAR
STARTCHAR parenright
ENCODING 41
SWIDTH 344 0
DWIDTH 6 0
BBX 6 17 -1 -3
BITMAP
18
38
18
08
0C
0C
0C
0C
0C
08
18
18
10
30
20
60
C0
ENDCHAR
STARTCHAR asterisk
ENCODING 42
SWIDTH 293 0
DWIDTH 5 0
BBX 4 5 1 8
BITMAP
40
D0
60
F0
40
ENDCHAR
STARTCHAR plus
ENCODING 43
SWIDTH 400 0
DWIDTH 7 0
BBX 5 6 1 3
BITMAP
30
20
F8
20
20
20
ENDCHAR
STARTCHAR comma
ENCODING 44
SWIDTH 190 0
DWIDTH 3 0
BBX 1 5 1 -1
BITMAP
80
80
80
80
80
ENDCHAR
STARTCHAR hyphen
ENCODING 45
SWIDTH 350 0
DWIDTH 6 0
BBX 4 1 1 4
BITMAP
F0
ENDCHAR
STARTCHAR period
ENCODING 46
SWIDTH 180 0
DWIDTH 3 0
BBX 1 2 1 1
BITMAP
80
80
ENDCHAR
STARTCHAR slash
ENCODING 47
SWIDTH 494 0
DWIDTH 8 0
BBX 8 16 0 -1
BITMAP
01
01
03
03
06
04
0C
18
10
30
20
60
40
C0
80
80
ENDCHAR
STARTCHAR zero
ENCODING 48
SWIDTH 402 0
DWIDTH 7 0
BBX 6 12 1 1
BITMAP
38
68
4C
CC
CC
CC
A8
98
98
B0
F0
60
ENDCHAR
STARTCHAR one
ENCODING 49
SWIDTH 205 0
DWIDTH 3 0
BBX 2 12 1 1
BITMAP
40
40
40
C0
C0
C0
C0
C0
80
80
80
C0
ENDCHAR
STARTCHAR two
ENCODING 50
SWIDTH 380 0
DWIDTH 6 0
BBX 5 12 1 1
BITMAP
70
F8
C8
88
18
18
30
70
E0
F0
F0
E0
ENDCHAR
STARTCHAR three
ENCODING 51
SWIDTH 360 0
DWIDTH 6 0
BBX 5 12 1 1
BITMAP
F0
F0
98
30
70
E0
F0
10
58
B8
F0
E0
ENDCHAR
STARTCHAR four
ENCODING 52
SWIDTH 442 0
DWIDTH 8 0
BBX 6 13 1 1
BITMAP
08
18
78
F8
E8
C8
9C
FC
F8
18
18
18
08
ENDCHAR
STARTCHAR five
ENCODING 53
SWIDTH 375 0
DWIDTH 6 0
BBX 5 12 1 1
BITMAP
78
F0
C0
E0
F0
90
08
38
58
F8
F0
E0
ENDCHAR
STARTCHAR six
ENCODING 54
SWIDTH 410 0
DWIDTH 7 0
BBX 6 12 1 1
BITMAP
38
38
70
C0
C8
B8
BC
E8
D8
F8
F0
60
ENDCHAR
STARTCHAR seven
ENCODING 55
SWIDTH 344 0
DWIDTH 6 0
BBX 5 12 1 1
BITMAP
F8
F8
D8
30
30
20
60
60
60
60
40
40
ENDCHAR
STARTCHAR eight
ENCODING 56
SWIDTH 368 0
DWIDTH 6 0
BBX 6 12 0 1
BITMAP
18
38
34
2C
28
18
38
68
C4
DC
7C
78
ENDCHAR
STARTCHAR nine
ENCODING 57
SWIDTH 372 0
DWIDTH 6 0
BBX 5 12 1 1
BITMAP
30
78
D8
D8
B8
F8
F8
58
50
B0
60
60
ENDCHAR
STARTCHAR colon
ENCODING 58
SWIDTH 231 0
DWIDTH 4 0
BBX 2 6 1 1
BITMAP
C0
C0
00
00
C0
80
ENDCHAR
STARTCHAR semicolon
ENCODING 59
SWIDTH 232 0
DWIDTH 4 0
BBX 2 9 1 -1
BITMAP
40
C0
C0
00
80
80
80
80
80
ENDCHAR
STARTCHAR less
ENCODING 60
SWIDTH 400 0
DWIDTH 7 0
BBX 5 6 1 3
BITMAP
08
38
C0
F0
38
18
ENDCHAR
STARTCHAR equal
ENCODING 61
SWIDTH 400 0
DWIDTH 7 0
BBX 5 4 1 4
BITMAP
F8
00
F8
F8
ENDCHAR
STARTCHAR greater
ENCODING 62
SWIDTH 400 0
DWIDTH 7 0
BBX 5 6 1 3
BITMAP
C0
60
18
78
E0
80
ENDCHAR
STARTCHAR question
ENCODING 63
SWIDTH 307 0
DWIDTH 5 0
BBX 5 12 0 1
BITMAP
30
78
C8
08
18
30
60
70
20
00
60
60
ENDCHAR
STARTCHAR at
ENCODING 64
SWIDTH 583 0
DWIDTH 10 0
BBX 9 12 1 1
BITMAP
0400
3F00
6100
4180
9D80
9D80
AD00
BF00
B600
8000
C800
7800
ENDCHAR
STARTCHAR A
ENCODING 65
SWIDTH 601 0
DWIDTH 10 0
BBX 11 13 -1 0
BITMAP
0180
01C0
0140
0140
0140
0140
0160
3FC0
6240
8240
4660
3C60
1C60
ENDCHAR
STARTCHAR B
ENCODING 66
SWIDTH 478 0
DWIDTH 8 0
BBX 8 13 0 0
BITMAP
7C
FE
12
16
1E
3C
38
3E
22
39
23
3E
38
ENDCHAR
STARTCHAR C
ENCODING 67
SWIDTH 384 0
DWIDTH 7 0
BBX 5 13 1 0
BITMAP
30
38
58
58
C8
80
88
88
88
98
98
F0
20
ENDCHAR
STARTCHAR D
ENCODING 68
SWIDTH 490 0
DWIDTH 8 0
BBX 8 12 0 1
BITMAP
3C
FE
E3
33
21
21
21
23
32
72
7C
3C
ENDCHAR
STARTCHAR E
ENCODING 69
SWIDTH 452 0
DWIDTH 8 0
BBX 8 13 0 0
BITMAP
06
1F
34
20
20
1E
3E
60
C4
9E
A6
7E
30
ENDCHAR
STARTCHAR F
ENCODING 70
SWIDTH 501 0
DWIDTH 9 0
BBX 9 13 0 0
BITMAP
3C00
3400
3600
6200
E280
C780
1E00
3400
4400
4C00
7800
3800
1000
ENDCHAR
STARTCHAR G
ENCODING 71
SWIDTH 443 0
DWIDTH 8 0
BBX 7 12 1 1
BITMAP
38
78
78
50
C0
CE
B8
88
8C
98
98
F0
ENDCHAR
STARTCHAR H
ENCODING 72
SWIDTH 472 0
DWIDTH 8 0
BBX 8 13 0 0
BITMAP
19
6A
FE
EA
DA
1A
1F
7E
36
36
36
32
10
ENDCHAR
STARTCHAR I
ENCODING 73
SWIDTH 293 0
DWIDTH 5 0
BBX 5 13 0 0
BITMAP
30
28
78
78
D8
58
58
10
10
70
70
30
10
ENDCHAR
STARTCHAR J
ENCODING 74
SWIDTH 376 0
DWIDTH 6 0
BBX 10 12 -1 1
BITMAP
7FC0
3F80
0400
0400
0400
0400
0400
0400
0400
F400
FC00
7800
ENDCHAR
STARTCHAR K
ENCODING 75
SWIDTH 532 0
DWIDTH 9 0
BBX 10 14 0 0
BITMAP
0080
18C0
3C80
6D80
EF00
DA00
1C00
1800
1E00
3200
3300
3380
3180
0100
ENDCHAR
STARTCHAR L
ENCODING 76
SWIDTH 396 0
DWIDTH 7 0
BBX 8 12 -1 1
BITMAP
0C
0C
0C
0C
18
18
18
18
10
91
FE
6E
ENDCHAR
STARTCHAR M
ENCODING 77
SWIDTH 715 0
DWIDTH 12 0
BBX 12 12 0 1
BITMAP
3000
2AC0
6FC0
6FC0
DB40
DB40
DBD0
1F90
1690
36B0
36E0
30E0
ENDCHAR
STARTCHAR N
ENCODING 78
SWIDTH 601 0
DWIDTH 10 0
BBX 10 13 0 0
BITMAP
18C0
3DC0
37C0
6E80
6E80
EC80
CD80
4DC0
0DC0
1DC0
1980
1880
0800
ENDCHAR
STARTCHAR O
ENCODING 79
SWIDTH 427 0
DWIDTH 7 0
BBX 6 12 1 1
BITMAP
18
6C
EC
EC
CC
CC
AC
B8
98
98
B0
70
ENDCHAR
STARTCHAR P
ENCODING 80
SWIDTH 416 0
DWIDTH 7 0
BBX 7 12 0 1
BITMAP
7C
E6
E2
22
32
66
7E
78
60
E0
E0
60
ENDCHAR
STARTCHAR Q
ENCODING 81
SWIDTH 418 0
DWIDTH 7 0
BBX 6 14 1 0
BITMAP
18
28
4C
4C
CC
8C
8C
88
D8
B8
90
B0
F4
38
ENDCHAR
STARTCHAR R
ENCODING 82
SWIDTH 460 0
DWIDTH 8 0
BBX 8 12 0 1
BITMAP
FC
FE
A3
23
26
3C
38
28
28
A8
6D
66
ENDCHAR
STARTCHAR S
ENCODING 83
SWIDTH 419 0
DWIDTH 7 0
BBX 8 12 0 1
BITMAP
06
1F
36
64
40
60
30
0C
14
FE
FC
F0
ENDCHAR
STARTCHAR T
ENCODING 84
SWIDTH 381 0
DWIDTH 6 0
BBX 10 12 -1 1
BITMAP
0CC0
7F80
E400
C400
0C00
0C00
0800
0800
0800
1800
0800
0C00
ENDCHAR
STARTCHAR U
ENCODING 85
SWIDTH 563 0
DWIDTH 10 0
BBX 10 12 0 1
BITMAP
3100
3B00
7B00
DB00
DA00
3600
3600
3E40
3A40
2A80
3B80
3100
ENDCHAR
STARTCHAR V
ENCODING 86
SWIDTH 479 0
DWIDTH 8 0
BBX 8 13 0 1
BITMAP
01
19
79
E9
D9
19
1B
13
12
16
14
1C
18
ENDCHAR
STARTCHAR W
ENCODING 87
SWIDTH 611 0
DWIDTH 10 0
BBX 10 12 0 1
BITMAP
3980
7880
E8C0
D8C0
1640
3440
3CC0
2CC0
6C80
3C80
3780
2300
ENDCHAR
STARTCHAR X
ENCODING 88
SWIDTH 473 0
DWIDTH 8 0
BBX 8 12 0 1
BITMAP
73
7B
DD
DC
18
18
18
38
38
29
EF
46
ENDCHAR
STARTCHAR Y
ENCODING 89
SWIDTH 517 0
DWIDTH 9 0
BBX 10 15 0 -1
BITMAP
3800
68C0
E880
9980
3300
3300
6700
4F00
4E00
7A00
3200
0200
0300
0300
0200
ENDCHAR
STARTCHAR Z
ENCODING 90
SWIDTH 436 0
DWIDTH 7 0
BBX 8 13 0 1
BITMAP
10
78
FF
C3
07
06
0C
18
20
60
40
7E
3C
ENDCHAR
STARTCHAR bracketleft
ENCODING 91
SWIDTH 350 0
DWIDTH 6 0
BBX 6 17 1 -3
BITMAP
3C
70
60
60
60
60
40
40
40
C0
C0
C0
C0
80
80
F0
60
ENDCHAR
STARTCHAR backslash
ENCODING 92
SWIDTH 543 0
DWIDTH 9 0
BBX 9 15 0 -1
BITMAP
C000
4000
2000
1000
1000
0800
0C00
0400
0600
0200
0300
0100
0180
0080
0080
ENDCHAR
STARTCHAR bracketright
ENCODING 93
SWIDTH 350 0
DWIDTH 6 0
BBX 6 17 -1 -3
BITMAP
7C
04
04
0C
0C
0C
0C
0C
08
08
08
08
08
08
08
F8
70
ENDCHAR
STARTCHAR asciicircum
ENCODING 94
SWIDTH 500 0
DWIDTH 9 0
BBX 5 5 2 8
BITMAP
30
30
70
D8
88
ENDCHAR
STARTCHAR underscore
ENCODING 95
SWIDTH 521 0
DWIDTH 9 0
BBX 9 1 0 -2
BITMAP
FF80
ENDCHAR
STARTCHAR grave
ENCODING 96
SWIDTH 400 0
DWIDTH 7 0
BBX 3 4 2 9
BITMAP
80
C0
60
20
ENDCHAR
STARTCHAR a
ENCODING 97
SWIDTH 418 0
DWIDTH 7 0
BBX 7 7 0 1
BITMAP
18
28
68
D8
FA
FA
66
ENDCHAR
STARTCHAR b
ENCODING 98
SWIDTH 332 0
DWIDTH 6 0
BBX 5 14 0 0
BITMAP
20
20
20
40
40
40
58
78
48
C8
D8
F8
70
50
ENDCHAR
STARTCHAR c
ENCODING 99
SWIDTH 277 0
DWIDTH 5 0
BBX 5 8 0 1
BITMAP
30
30
50
50
80
88
B0
70
ENDCHAR
STARTCHAR d
ENCODING 100
SWIDTH 384 0
DWIDTH 7 0
BBX 7 12 0 1
BITMAP
04
04
04
0C
0C
38
68
58
98
B6
76
60
ENDCHAR
STARTCHAR e
ENCODING 101
SWIDTH 337 0
DWIDTH 6 0
BBX 5 7 0 1
BITMAP
38
68
58
F0
88
B8
78
ENDCHAR
STARTCHAR f
ENCODING 102
SWIDTH 367 0
DWIDTH 6 0
BBX 6 19 0 -6
BITMAP
08
18
10
30
A0
EC
7C
78
48
4C
C4
CC
CC
8C
88
98
70
70
20
ENDCHAR
STARTCHAR g
ENCODING 103
SWIDTH 347 0
DWIDTH 6 0
BBX 6 13 0 -4
BITMAP
08
1C
28
48
98
B8
E8
48
08
08
38
38
18
ENDCHAR
STARTCHAR h
ENCODING 104
SWIDTH 347 0
DWIDTH 6 0
BBX 6 12 0 1
BITMAP
20
60
40
40
48
58
F8
F8
F8
F4
5C
48
ENDCHAR
STARTCHAR i
ENCODING 105
SWIDTH 240 0
DWIDTH 4 0
BBX 4 12 0 1
BITMAP
20
20
60
00
40
C0
40
40
50
50
70
60
ENDCHAR
STARTCHAR j
ENCODING 106
SWIDTH 184 0
DWIDTH 3 0
BBX 7 19 -4 -6
BITMAP
02
02
02
00
02
02
02
04
04
04
04
0E
3C
7C
E8
98
D8
70
70
ENDCHAR
STARTCHAR k
ENCODING 107
SWIDTH 342 0
DWIDTH 6 0
BBX 6 13 0 1
BITMAP
20
60
60
40
40
40
78
7C
78
70
E0
D8
5C
ENDCHAR
STARTCHAR l
ENCODING 108
SWIDTH 241 0
DWIDTH 4 0
BBX 4 13 0 1
BITMAP
40
60
60
60
40
40
40
40
40
D0
50
70
60
ENDCHAR
STARTCHAR m
ENCODING 109
SWIDTH 516 0
DWIDTH 9 0
BBX 9 8 0 1
BITMAP
0400
7600
7E00
7A00
DA80
DB80
5300
5300
ENDCHAR
STARTCHAR n
ENCODING 110
SWIDTH 351 0
DWIDTH 6 0
BBX 6 8 0 1
BITMAP
50
78
78
70
D4
DC
DC
58
ENDCHAR
STARTCHAR o
ENCODING 111
SWIDTH 275 0
DWIDTH 5 0
BBX 4 8 0 1
BITMAP
20
50
50
D0
D0
F0
70
60
ENDCHAR
STARTCHAR p
ENCODING 112
SWIDTH 331 0
DWIDTH 6 0
BBX 5 12 0 -3
BITMAP
40
70
E8
48
48
78
B8
B0
80
80
80
80
ENDCHAR
STARTCHAR q
ENCODING 113
SWIDTH 337 0
DWIDTH 6 0
BBX 5 13 0 -4
BITMAP
18
38
68
58
D8
F8
78
50
10
10
18
18
18
ENDCHAR
STARTCHAR r
ENCODING 114
SWIDTH 307 0
DWIDTH 5 0
BBX 6 8 0 1
BITMAP
80
F0
F0
A0
64
68
78
30
ENDCHAR
STARTCHAR s
ENCODING 115
SWIDTH 322 0
DWIDTH 5 0
BBX 5 8 0 1
BITMAP
18
78
48
F0
18
D8
F8
60
ENDCHAR
STARTCHAR t
ENCODING 116
SWIDTH 269 0
DWIDTH 5 0
BBX 6 11 -1 1
BITMAP
10
10
30
F8
7C
30
20
20
28
38
18
ENDCHAR
STARTCHAR u
ENCODING 117
SWIDTH 338 0
DWIDTH 6 0
BBX 6 8 0 1
BITMAP
C0
E8
78
58
78
F4
FC
48
ENDCHAR
STARTCHAR v
ENCODING 118
SWIDTH 278 0
DWIDTH 5 0
BBX 4 8 0 1
BITMAP
D0
F0
50
50
D0
F0
70
60
ENDCHAR
STARTCHAR w
ENCODING 119
SWIDTH 411 0
DWIDTH 7 0
BBX 7 8 0 1
BITMAP
48
E4
F4
5E
56
76
7E
6C
ENDCHAR
STARTCHAR x
ENCODING 120
SWIDTH 295 0
DWIDTH 5 0
BBX 6 8 0 1
BITMAP
04
88
58
70
60
F0
F0
50
ENDCHAR
STARTCHAR y
ENCODING 121
SWIDTH 379 0
DWIDTH 6 0
BBX 6 13 0 -5
BITMAP
E4
6C
6C
5C
DC
78
68
08
18
30
30
30
10
ENDCHAR
STARTCHAR z
ENCODING 122
SWIDTH 303 0
DWIDTH 5 0
BBX 5 8 0 1
BITMAP
40
F8
F8
38
60
C0
F0
60
ENDCHAR
STARTCHAR braceleft
ENCODING 123
SWIDTH 450 0
DWIDTH 8 0
BBX 8 17 1 -3
BITMAP
1F
1E
38
30
30
30
20
C0
20
30
30
20
20
40
40
7C
18
ENDCHAR
STARTCHAR bar
ENCODING 124
SWIDTH 250 0
DWIDTH 4 0
BBX 3 16 1 -1
BITMAP
40
60
60
40
C0
40
40
40
40
40
40
C0
C0
C0
40
40
ENDCHAR
STARTCHAR braceright
ENCODING 125
SWIDTH 450 0
DWIDTH 8 0
BBX 7 17 0 -3
BITMAP
78
6C
0C
08
08
08
08
06
1E
10
10
10
10
10
08
F0
60
ENDCHAR
STARTCHAR asciitilde
ENCODING 126
SWIDTH 400 0
DWIDTH 7 0
BBX 6 2 0 5
BITMAP
64
DC
ENDCHAR
STARTCHAR uni00A0
ENCODING 160
SWIDTH 202 0
DWIDTH 3 0
BBX 1 1 0 0
BITMAP
00
ENDCHAR
STARTCHAR cent
ENCODING 162
SWIDTH 299 0
DWIDTH 5 0
BBX 5 12 0 1
BITMAP
10
10
18
38
78
68
A8
B8
70
30
20
20
ENDCHAR
STARTCHAR sterling
ENCODING 163
SWIDTH 383 0
DWIDTH 7 0
BBX 7 12 0 1
BITMAP
0C
3E
3C
68
40
60
28
F8
10
50
FE
7C
ENDCHAR
STARTCHAR currency
ENCODING 164
SWIDTH 450 0
DWIDTH 8 0
BBX 6 8 1 3
BITMAP
B4
7C
48
88
48
F8
FC
84
ENDCHAR
STARTCHAR yen
ENCODING 165
SWIDTH 451 0
DWIDTH 8 0
BBX 6 14 1 -1
BITMAP
C0
EC
4C
D8
D8
F8
68
1C
7C
7C
7C
10
10
10
ENDCHAR
STARTCHAR brokenbar
ENCODING 166
SWIDTH 250 0
DWIDTH 4 0
BBX 3 16 1 -1
BITMAP
40
60
60
C0
40
40
40
40
00
40
40
40
40
40
40
40
ENDCHAR
STARTCHAR dieresis
ENCODING 168
SWIDTH 400 0
DWIDTH 7 0
BBX 4 2 2 10
BITMAP
B0
B0
ENDCHAR
STARTCHAR copyright
ENCODING 169
SWIDTH 652 0
DWIDTH 11 0
BBX 10 13 1 0
BITMAP
0F00
1580
6C80
5CC0
D4C0
90C0
B480
B580
B580
9F00
C300
6E00
3C00
ENDCHAR
STARTCHAR logicalnot
ENCODING 172
SWIDTH 400 0
DWIDTH 7 0
BBX 5 4 1 4
BITMAP
F8
F8
08
08
ENDCHAR
STARTCHAR macron
ENCODING 175
SWIDTH 400 0
DWIDTH 7 0
BBX 4 2 2 10
BITMAP
F0
F0
ENDCHAR
STARTCHAR degree
ENCODING 176
SWIDTH 230 0
DWIDTH 4 0
BBX 4 3 1 10
BITMAP
E0
B0
E0
ENDCHAR
STARTCHAR plusminus
ENCODING 177
SWIDTH 400 0
DWIDTH 7 0
BBX 5 8 1 1
BITMAP
30
20
F8
20
20
20
F8
F8
ENDCHAR
STARTCHAR multiply
ENCODING 215
SWIDTH 400 0
DWIDTH 7 0
BBX 5 5 1 4
BITMAP
88
D8
70
58
88
ENDCHAR
STARTCHAR divide
ENCODING 247
SWIDTH 400 0
DWIDTH 7 0
BBX 5 1 1 6
BITMAP
F8
ENDCHAR
STARTCHAR circumflex
ENCODING 710
SWIDTH 400 0
DWIDTH 7 0
BBX 4 4 2 9
BITMAP
60
60
90
10
ENDCHAR
STARTCHAR caron
ENCODING 711
SWIDTH 400 0
DWIDTH 7 0
BBX 4 4 2 9
BITMAP
90
B0
60
40
ENDCHAR
STARTCHAR ring
ENCODING 730
SWIDTH 400 0
DWIDTH 7 0
BBX 4 5 2 9
BITMAP
60
F0
90
F0
60
ENDCHAR
STARTCHAR tilde
ENCODING 732
SWIDTH 400 0
DWIDTH 7 0
BBX 4 2 2 10
BITMAP
D0
F0
ENDCHAR
STARTCHAR endash
ENCODING 8211
SWIDTH 500 0
DWIDTH 9 0
BBX 8 1 0 4
BITMAP
FF
ENDCHAR
STARTCHAR emdash
ENCODING 8212
SWIDTH 1000 0
DWIDTH 17 0
BBX 17 1 0 4
BITMAP
FFFF80
ENDCHAR
STARTCHAR uni2015
ENCODING 8213
SWIDTH 1000 0
DWIDTH 17 0
BBX 17 1 0 4
BITMAP
FFFF80
ENDCHAR
STARTCHAR quoteleft
ENCODING 8216
SWIDTH 130 0
DWIDTH 2 0
BBX 1 3 1 9
BITMAP
80
80
80
ENDCHAR
STARTCHAR quoteright
ENCODING 8217
SWIDTH 130 0
DWIDTH 2 0
BBX 1 4 1 8
BITMAP
80
80
80
80
ENDCHAR
STARTCHAR quotesinglbase
ENCODING 8218
SWIDTH 130 0
DWIDTH 2 0
BBX 2 4 0 -1
BITMAP
80
C0
C0
80
ENDCHAR
STARTCHAR quotedblleft
ENCODING 8220
SWIDTH 254 0
DWIDTH 4 0
BBX 3 3 1 9
BITMAP
A0
A0
A0
ENDCHAR
STARTCHAR quotedblright
ENCODING 8221
SWIDTH 254 0
DWIDTH 4 0
BBX 4 3 1 9
BITMAP
B0
A0
A0
ENDCHAR
STARTCHAR quotedblbase
ENCODING 8222
SWIDTH 254 0
DWIDTH 4 0
BBX 4 4 0 -1
BITMAP
20
F0
B0
A0
ENDCHAR
STARTCHAR bullet
ENCODING 8226
SWIDTH 250 0
DWIDTH 4 0
BBX 3 3 1 4
BITMAP
C0
E0
C0
ENDCHAR
STARTCHAR twodotenleader
ENCODING 8229
SWIDTH 1000 0
DWIDTH 17 0
BBX 9 2 4 6
BITMAP
C180
C180
ENDCHAR
STARTCHAR ellipsis
ENCODING 8230
SWIDTH 540 0
DWIDTH 9 0
BBX 8 2 1 1
BITMAP
9B
92
ENDCHAR
STARTCHAR perthousand
ENCODING 8240
SWIDTH 862 0
DWIDTH 15 0
BBX 13 13 1 0
BITMAP
E200
A600
B400
BC00
E800
EA10
1F38
15A8
15E8
35C8
2778
2330
1000
ENDCHAR
STARTCHAR Euro
ENCODING 8364
SWIDTH 393 0
DWIDTH 7 0
BBX 6 12 0 1
BITMAP
0C
1C
34
24
64
F8
74
F4
64
6C
6C
38
ENDCHAR
STARTCHAR trademark
ENCODING 8482
SWIDTH 605 0
DWIDTH 10 0
BBX 9 6 1 7
BITMAP
F900
D700
5F00
4B80
4B80
4900
ENDCHAR
STARTCHAR minus
ENCODING 8722
SWIDTH 400 0
DWIDTH 7 0
BBX 5 1 1 6
BITMAP
F8
ENDCHAR
STARTCHAR uni3000
ENCODING 12288
SWIDTH 1000 0
DWIDTH 17 0
BBX 1 1 0 0
BITMAP
00
ENDCHAR
STARTCHAR uni3001
ENCODING 12289
SWIDTH 1000 0
DWIDTH 17 0
BBX 3 3 2 0
BITMAP
E0
60
20
ENDCHAR
STARTCHAR uni3002
ENCODING 12290
SWIDTH 1000 0
DWIDTH 17 0
BBX 4 5 2 0
BITMAP
20
F0
90
F0
60
ENDCHAR
STARTCHAR uni3008
ENCODING 12296
SWIDTH 1000 0
DWIDTH 17 0
BBX 6 10 10 1
BITMAP
0C
18
38
70
E0
E0
60
30
18
1C
ENDCHAR
STARTCHAR uni3009
ENCODING 12297
SWIDTH 1000 0
DWIDTH 17 0
BBX 6 10 1 1
BITMAP
C0
60
30
38
18
1C
38
70
60
C0
ENDCHAR
STARTCHAR uni300A
ENCODING 12298
SWIDTH 1000 0
DWIDTH 17 0
BBX 8 10 8 1
BITMAP
09
1B
36
6C
D8
D8
6C
26
32
1B
ENDCHAR
STARTCHAR uni300B
ENCODING 12299
SWIDTH 1000 0
DWIDTH 17 0
BBX 9 10 1 1
BITMAP
D800
4C00
6600
3200
1B80
1B00
3200
6400
CC00
9800
ENDCHAR
STARTCHAR uni300C
ENCODING 12300
SWIDTH 1000 0
DWIDTH 17 0
BBX 5 12 10 2
BITMAP
78
50
40
40
40
40
C0
C0
C0
C0
C0
C0
ENDCHAR
STARTCHAR uni300D
ENCODING 12301
SWIDTH 1000 0
DWIDTH 17 0
BBX 5 13 2 -2
BITMAP
08
18
18
18
18
18
10
10
10
10
10
F0
F0
ENDCHAR
STARTCHAR uni300E
ENCODING 12302
SWIDTH 1000 0
DWIDTH 17 0
BBX 8 12 8 2
BITMAP
7F
6E
62
6E
68
68
78
58
58
58
58
F0
ENDCHAR
STARTCHAR uni300F
ENCODING 12303
SWIDTH 1000 0
DWIDTH 17 0
BBX 8 12 1 -1
BITMAP
0F
1A
1A
1A
1E
1E
16
16
76
F6
C6
FC
ENDCHAR
STARTCHAR uni3010
ENCODING 12304
SWIDTH 1000 0
DWIDTH 17 0
BBX 9 17 8 -5
BITMAP
3F80
3F00
3E00
7C00
7C00
7C00
7C00
7800
7800
7800
7800
7800
F800
FC00
FC00
FC00
7E00
ENDCHAR
STARTCHAR uni3011
ENCODING 12305
SWIDTH 1000 0
DWIDTH 17 0
BBX 8 17 0 -3
BITMAP
7F
3F
1F
1F
1F
1F
1F
1F
1F
1E
1E
1E
3E
3E
7E
7E
FC
ENDCHAR
STARTCHAR uni3014
ENCODING 12308
SWIDTH 1000 0
DWIDTH 17 0
BBX 6 15 10 -1
BITMAP
7C
60
40
40
40
40
40
C0
C0
C0
C0
C0
40
60
18
ENDCHAR
STARTCHAR uni3015
ENCODING 12309
SWIDTH 1000 0
DWIDTH 17 0
BBX 6 15 1 -1
BITMAP
70
18
0C
0C
0C
0C
0C
0C
0C
0C
0C
0C
08
18
F8
ENDCHAR
STARTCHAR uni3016
ENCODING 12310
SWIDTH 1000 0
DWIDTH 17 0
BBX 9 17 8 -3
BITMAP
3D80
2100
2200
6600
6400
6C00
6C00
4C00
4800
5800
D800
D800
C800
CC00
8C00
FC00
7600
ENDCHAR
STARTCHAR uni3017
ENCODING 12311
SWIDTH 1000 0
DWIDTH 17 0
BBX 9 17 0 -3
BITMAP
1F00
3980
1980
1980
1980
1980
1900
1900
1900
1B00
1B00
1B00
3300
3300
2300
5E00
CE00
ENDCHAR
STARTCHAR uni4E00
ENCODING 19968
SWIDTH 1000 0
DWIDTH 17 0
BBX 15 4 1 4
BITMAP
0008
3FFE
FFBE
4000
ENDCHAR
STARTCHAR uni4E01
ENCODING 19969
SWIDTH 1000 0
DWIDTH 17 0
BBX 15 14 1 -1
BITMAP
001C
1FFE
F800
4180
0180
0180
0180
0180
0180
0180
0180
0980
0700
0300
ENDCHAR
STARTCHAR uni4E03
ENCODING 19971
SWIDTH 1000 0
DWIDTH 17 0
BBX 15 12 1 0
BITMAP
0200
0200
020C
02FE
0F84
7200
C200
0200
0300
01F0
00F8
0010
ENDCHAR
STARTCHAR uni4E07
ENCODING 19975
SWIDTH 1000 0
DWIDTH 17 0
BBX 13 14 2 -1
BITMAP
0018
0FF8
7C00
C600
0600
0600
0FC0
18C0
18C0
30C0
21C0
4D80
0300
0200
ENDCHAR
STARTCHAR uni4E08
ENCODING 19976
SWIDTH 1000 0
DWIDTH 17 0
BBX 15 14 1 -1
BITMAP
0100
0300
0300
0FE0
3310
1300
0A00
0E00
0600
0F00
0F80
19E0
307E
C03C
ENDCHAR
STARTCHAR uni4E09
ENCODING 19977
SWIDTH 1000 0
DWIDTH 17 0
BBX 15 12 1 0
BITMAP
0080
0FC0
0C00
0000
0000
0FC0
0800
0000
0008
3FFE
FC00
4000
ENDCHAR
STARTCHAR uni4E0A
ENCODING 19978
SWIDTH 1000 0
DWIDTH 17 0
BBX 15 12 1 0
BITMAP
0600
0300
0200
06C0
07C0
0600
0600
0600
0600
0FFC
7FFE
E000
ENDCHAR
STARTCHAR uni4E0B
ENCODING 19979
SWIDTH 1000 0
DWIDTH 17 0
BBX 15 14 1 -1
BITMAP
07FE
FF00
4300
0300
0300
0340
0370
0330
0300
0300
0300
0300
0300
0200
ENDCHAR
STARTCHAR uni4E0C
ENCODING 19980
SWIDTH 1000 0
DWIDTH 17 0
BBX 14 14 2 -2
BITMAP
0010
1FFC
7CC8
04C0
04C0
0CC0
0CC0
08C0
18C0
30C0
40C0
8080
0080
0080
ENDCHAR
STARTCHAR uni4E0D
ENCODING 19981
SWIDTH 1000 0
DWIDTH 17 0
BBX 14 13 1 -1
BITMAP
0FFC
7C04
0080
0180
0300
0300
0740
0F38
131C
231C
4300
8300
0100
ENDCHAR
STARTCHAR uni4E0E
ENCODING 19982
SWIDTH 1000 0
DWIDTH 17 0
BBX 11 14 3 -1
BITMAP
0800
1BC0
1F80
1000
1000
1FC0
18E0
1060
1E60
FCE0
C0E0
05C0
03C0
0380
ENDCHAR
STARTCHAR uni4E10
ENCODING 19984
SWIDTH 1000 0
DWIDTH 17 0
BBX 11 14 3 -1
BITMAP
7F00
CC00
0C00
4F00
4C00
4C00
7FC0
C0E0
40E0
00C0
01C0
13C0
0F80
0700
ENDCHAR
STARTCHAR uni4E11
ENCODING 19985
SWIDTH 1000 0
DWIDTH 17 0
BBX 15 12 1 0
BITMAP
0780
0460
0260
0240
0740
0F40
0440
0440
08C0
1FFE
FF86
4080
ENDCHAR
STARTCHAR uni4E13
ENCODING 19987
SWIDTH 1000 0
DWIDTH 17 0
BBX 11 16 3 -2
BITMAP
0400
0400
0C00
3F00
0C00
0800
3FE0
C800
1F00
1F80
1180
0300
0E00
0E00
0600
0200
ENDCHAR
STARTCHAR uni4E14
ENCODING 19988
SWIDTH 1000 0
DWIDTH 17 0
BBX 15 12 1 0
BITMAP
07E0
0460
0440
0740
0440
0540
0740
0C40
08C0
09FC
3FFE
E080
ENDCHAR
STARTCHAR uni4E15
ENCODING 19989
SWIDTH 1000 0
DWIDTH 17 0
BBX 13 14 2 -1
BITMAP
07F0
3F00
1180
0300
0300
0640
0E70
1630
2210
C200
0200
0FF8
7E38
2000
ENDCHAR
STARTCHAR uni4E16
ENCODING 19990
SWIDTH 1000 0
DWIDTH 17 0
BBX 13 14 2 -1
BITMAP
0040
0060
0440
0478
27F8
3EC0
76C0
F6C0
96C0
17C0
1A00
1840
0FE0
0FE0
ENDCHAR
STARTCHAR uni4E18
ENCODING 19992
SWIDTH 1000 0
DWIDTH 17 0
BBX 13 13 2 -1
BITMAP
0380
0300
0600
0800
10E0
1FE0
0980
0980
0980
0980
09F8
7FF8
C000
ENDCHAR
STARTCHAR uni4E19
ENCODING 19993
SWIDTH 1000 0
DWIDTH 17 0
BBX 12 13 3 -1
BITMAP
3FC0
7440
0400
1F80
EC70
8830
9E30
9370
A170
C060
8060
01E0
00C0
ENDCHAR
STARTCHAR uni4E1A
ENCODING 19994
SWIDTH 1000 0
DWIDTH 17 0
BBX 13 12 2 -1
BITMAP
0180
0980
0900
0930
0960
69C0
6980
0B00
0B10
3FF8
F808
4000
ENDCHAR
STARTCHAR uni4E1B
ENCODING 19995
SWIDTH 1000 0
DWIDTH 17 0
BBX 15 14 1 -1
BITMAP
0080
08C0
08C0
0880
1880
1140
3D60
6638
441E
800C
0000
0FE0
1FE0
1000
ENDCHAR
STARTCHAR uni4E1C
ENCODING 19996
SWIDTH 1000 0
DWIDTH 17 0
BBX 11 16 3 -2
BITMAP
0800
0C00
0800
3F00
7800
1000
1400
2700
3F00
2400
4580
44E0
CC60
4C00
3C00
0800
ENDCHAR
STARTCHAR uni4E1D
ENCODING 19997
SWIDTH 1000 0
DWIDTH 17 0
BBX 15 14 1 -1
BITMAP
0820
0A50
1AD0
16F0
3DE0
3D40
3880
1EF0
3D80
3000
0004
0FFE
F804
4000
ENDCHAR
STARTCHAR uni4E1E
ENCODING 19998
SWIDTH 1000 0
DWIDTH 17 0
BBX 15 14 1 -1
BITMAP
0F80
1980
0720
0260
1BC0
6B80
12C0
32E0
2E7C
461E
0000
0060
7FF8
F000
ENDCHAR
STARTCHAR uni4E22
ENCODING 20002
SWIDTH 1000 0
DWIDTH 17 0
BBX 15 15 1 -1
BITMAP
0100
0380
0600
1A00
0380
0FC0
1E00
023C
1FFE
FA00
4680
0CE0
08E0
1F70
1C20
ENDCHAR
STARTCHAR uni4E24
ENCODING 20004
SWIDTH 1000 0
DWIDTH 17 0
BBX 13 14 3 -2
BITMAP
0780
3980
0B00
1FC0
7A30
9238
93B0
ADF0
C8F0
8030
C070
43E0
00C0
0080
ENDCHAR
STARTCHAR uni4E25
ENCODING 20005
SWIDTH 1000 0
DWIDTH 17 0
BBX 13 16 2 -2
BITMAP
01C0
0EC0
02B0
0AA0
0EC0
07F8
1810
1800
1800
1800
1000
1000
3000
2000
4000
8000
ENDCHAR
STARTCHAR uni4E27
ENCODING 20007
SWIDTH 1000 0
DWIDTH 17 0
BBX 15 16 1 -2
BITMAP
0100
0100
0FE0
0340
0FE0
0F80
0FFC
F860
4EE0
0D80
0CC0
0AE0
0E78
0C3E
0800
0800
ENDCHAR
STARTCHAR uni4E28
ENCODING 20008
SWIDTH 1000 0
DWIDTH 17 0
BBX 3 15 7 -1
BITMAP
40
40
60
40
40
40
40
40
C0
C0
C0
C0
40
40
40
ENDCHAR
STARTCHAR uni4E2A
ENCODING 20010
SWIDTH 1000 0
DWIDTH 17 0
BBX 17 16 0 -2
BITMAP
010000
010000
030000
06C000
046000
0C3800
191E00
318F80
610000
810000
010000
010000
010000
010000
030000
010000
ENDCHAR
STARTCHAR uni4E2B
ENCODING 20011
SWIDTH 1000 0
DWIDTH 17 0
BBX 9 16 4 -2
BITMAP
0100
0180
E300
6600
2C00
1800
1800
1800
1800
1800
1800
1800
1800
1800
1800
1000
ENDCHAR
STARTCHAR uni4E2C
ENCODING 20012
SWIDTH 1000 0
DWIDTH 17 0
BBX 7 16 5 -2
BITMAP
04
06
06
36
16
06
0E
16
66
C6
C6
06
06
04
04
04
ENDCHAR
STARTCHAR uni4E2D
ENCODING 20013
SWIDTH 1000 0
DWIDTH 17 0
BBX 11 16 3 -2
BITMAP
0800
0C00
0C00
7FC0
8C60
48C0
7F80
3980
0800
0800
0800
0800
0800
0800
0800
0800
ENDCHAR
STARTCHAR uni4E30
ENCODING 20016
SWIDTH 1000 0
DWIDTH 17 0
BBX 13 16 2 -2
BITMAP
0200
0600
0FC0
3600
0600
1F80
0600
07F0
FE18
4600
0600
0600
0600
0600
0600
0600
ENDCHAR
STARTCHAR uni4E32
ENCODING 20018
SWIDTH 1000 0
DWIDTH 17 0
BBX 11 16 3 -2
BITMAP
0800
1E00
6D80
2B00
3F00
0800
3FE0
C8E0
88C0
7F80
6800
0800
0800
0800
0800
0800
ENDCHAR
STARTCHAR uni4E34
ENCODING 20020
SWIDTH 1000 0
DWIDTH 17 0
BBX 15 14 1 -1
BITMAP
0480
0C80
0D90
49F8
6A00
6EC0
68C0
4870
1BCE
12CC
32CC
22EC
4118
8100
ENDCHAR
STARTCHAR uni4E36
ENCODING 20022
SWIDTH 1000 0
DWIDTH 17 0
BBX 4 4 6 1
BITMAP
E0
70
30
10
ENDCHAR
STARTCHAR uni4E38
ENCODING 20024
SWIDTH 1000 0
DWIDTH 17 0
BBX 15 14 1 -1
BITMAP
0800
0C00
0C00
0D00
1F80
6980
3900
1D00
1D04
2502
4186
41FE
80FE
003C
ENDCHAR
STARTCHAR uni4E39
ENCODING 20025
SWIDTH 1000 0
DWIDTH 17 0
BBX 15 14 1 -1
BITMAP
0780
0860
0860
0B60
0960
0FFE
FC66
C860
1060
1060
2060
4060
01E0
0040
ENDCHAR
STARTCHAR uni4E3A
ENCODING 20026
SWIDTH 1000 0
DWIDTH 17 0
BBX 11 16 3 -2
BITMAP
0200
0300
0700
0600
6600
2FC0
7C60
6860
1E60
1660
20C0
60C0
49C0
8780
0380
0200
ENDCHAR
STARTCHAR uni4E3B
ENCODING 20027
SWIDTH 1000 0
DWIDTH 17 0
BBX 15 14 1 -1
BITMAP
0700
0300
0300
07E0
1A00
0300
0300
07C0
1F40
0300
0300
0300
3FFC
F006
ENDCHAR
STARTCHAR uni4E3D
ENCODING 20029
SWIDTH 1000 0
DWIDTH 17 0
BBX 15 14 1 -1
BITMAP
01FC
FFFE
4000
08F0
2510
2510
35D0
25D0
2510
2510
3D10
2D30
0070
0020
ENDCHAR
STARTCHAR uni4E3E
ENCODING 20030
SWIDTH 1000 0
DWIDTH 17 0
BBX 15 16 1 -2
BITMAP
0440
12C0
0980
07C0
3900
0D80
1AC0
3360
2E38
421E
9FC8
0200
0200
0200
0200
0200
ENDCHAR
STARTCHAR uni4E3F
ENCODING 20031
SWIDTH 1000 0
DWIDTH 17 0
BBX 7 14 5 -1
BITMAP
04
06
06
06
04
04
0C
0C
08
18
10
20
40
80
ENDCHAR
STARTCHAR uni4E43
ENCODING 20035
SWIDTH 1000 0
DWIDTH 17 0
BBX 13 14 2 -1
BITMAP
00E0
0F60
1E40
06C0
0580
0DF0
0838
1830
1030
3830
4460
83E0
03C0
0180
ENDCHAR
STARTCHAR uni4E45
ENCODING 20037
SWIDTH 1000 0
DWIDTH 17 0
BBX 15 12 1 0
BITMAP
0C00
0800
1700
2300
2600
0600
0E00
1B00
31C0
60F0
C07C
003E
ENDCHAR
STARTCHAR uni4E47
ENCODING 20039
SWIDTH 1000 0
DWIDTH 17 0
BBX 15 14 1 -1
BITMAP
0180
0380
0600
0A00
1200
02F0
0FF0
7E00
E600
0400
0604
0604
03FE
01FC
ENDCHAR
STARTCHAR uni4E48
ENCODING 20040
SWIDTH 1000 0
DWIDTH 17 0
BBX 11 14 3 -2
BITMAP
0400
0600
0C00
0800
1800
3200
4300
8600
0C00
18C0
31E0
7E60
3C60
2000
ENDCHAR
STARTCHAR uni4E49
ENCODING 20041
SWIDTH 1000 0
DWIDTH 17 0
BBX 15 12 1 0
BITMAP
0C00
0500
0180
1180
1B00
0F00
0600
0F00
1BC0
31F0
607E
803C
ENDCHAR
STARTCHAR uni4E4B
ENCODING 20043
SWIDTH 1000 0
DWIDTH 17 0
BBX 15 14 1 -1
BITMAP
0600
0300
0300
01C0
0EE0
31C0
1300
0400
1800
3800
EE00
47E0
01FE
0038
ENDCHAR
STARTCHAR uni4E4C
ENCODING 20044
SWIDTH 1000 0
DWIDTH 17 0
BBX 11 16 3 -2
BITMAP
1000
1800
3F00
2300
5300
9B00
1600
1000
3FC0
3060
2160
3F60
E0E0
07C0
03C0
0100
ENDCHAR
STARTCHAR uni4E4D
ENCODING 20045
SWIDTH 1000 0
DWIDTH 17 0
BBX 11 16 3 -2
BITMAP
0C00
0C00
1840
1FE0
2400
4400
8780
0400
0480
0780
0400
0400
0400
0400
0400
0400
ENDCHAR
STARTCHAR uni4E4E
ENCODING 20046
SWIDTH 1000 0
DWIDTH 17 0
BBX 15 16 1 -2
BITMAP
0100
0380
0700
0D60
1160
0DC0
053C
1FFE
F100
4100
0100
0100
1100
0B00
0700
0200
ENDCHAR
STARTCHAR uni4E4F
ENCODING 20047
SWIDTH 1000 0
DWIDTH 17 0
BBX 14 14 2 -1
BITMAP
0600
0E00
1800
2C00
0600
0FC0
33C0
2700
0C00
3000
7800
FF00
07FC
01F0
ENDCHAR
STARTCHAR uni4E50
ENCODING 20048
SWIDTH 1000 0
DWIDTH 17 0
BBX 11 16 3 -2
BITMAP
0400
0E00
3000
2000
2400
2400
2FC0
7400
4400
2500
44C0
C460
8420
3C00
1C00
0800
ENDCHAR
STARTCHAR uni4E52
ENCODING 20050
SWIDTH 1000 0
DWIDTH 17 0
BBX 13 16 2 -2
BITMAP
0200
0300
0400
1800
1BE0
0D80
0900
0900
0B18
1FF8
F800
C800
1C00
3000
6000
8000
ENDCHAR
STARTCHAR uni4E53
ENCODING 20051
SWIDTH 1000 0
DWIDTH 17 0
BBX 15 16 1 -2
BITMAP
0100
0300
0600
0800
09F0
0F90
0880
0880
0984
09FE
3F02
E000
81C0
00E0
0060
0020
ENDCHAR
STARTCHAR uni4E54
ENCODING 20052
SWIDTH 1000 0
DWIDTH 17 0
BBX 13 16 2 -2
BITMAP
0200
0E00
1800
0800
3FE0
D300
3380
2BC0
5370
D338
9300
1300
2200
4200
0200
0200
ENDCHAR
STARTCHAR uni4E56
ENCODING 20054
SWIDTH 1000 0
DWIDTH 17 0
BBX 15 16 1 -2
BITMAP
0100
0380
0600
0B00
07FE
FB04
4B50
1BB0
1B60
0FC0
0B50
3B78
6318
0200
0200
0200
ENDCHAR
STARTCHAR uni4E58
ENCODING 20056
SWIDTH 1000 0
DWIDTH 17 0
BBX 15 16 1 -2
BITMAP
0200
0600
0E00
03C0
1E20
2FC0
1D00
3F00
1EE0
6E00
5D00
14E0
2478
C43E
0400
0400
ENDCHAR
STARTCHAR uni4E59
ENCODING 20057
SWIDTH 1000 0
DWIDTH 17 0
BBX 13 12 3 -1
BITMAP
3E00
EE00
0C00
1800
1800
1800
1000
1008
1008
1818
1FF8
0FF8
ENDCHAR
STARTCHAR uni4E5C
ENCODING 20060
SWIDTH 1000 0
DWIDTH 17 0
BBX 15 12 1 0
BITMAP
08C0
0BE0
1CC0
30C0
70C0
D1C0
1380
1100
1802
0C02
0FFE
03FE
ENDCHAR
STARTCHAR uni4E5D
ENCODING 20061
SWIDTH 1000 0
DWIDTH 17 0
BBX 15 14 1 -1
BITMAP
0400
0400
0400
0400
0F80
3D80
6900
1900
1100
1102
2102
41FE
80FE
003C
ENDCHAR
STARTCHAR uni4E5E
ENCODING 20062
SWIDTH 1000 0
DWIDTH 17 0
BBX 15 16 1 -2
BITMAP
0800
0800
1B80
1780
2400
4380
9F80
1900
0300
0300
0300
0304
0104
01FE
00FC
0018
ENDCHAR
STARTCHAR uni4E5F
ENCODING 20063
SWIDTH 1000 0
DWIDTH 17 0
BBX 15 14 1 -1
BITMAP
0600
0600
0600
0640
17E0
1EE0
36C0
76C0
9780
1502
1002
1006
0FFE
07FC
ENDCHAR
STARTCHAR uni4E60
ENCODING 20064
SWIDTH 1000 0
DWIDTH 17 0
BBX 9 14 4 -1
BITMAP
3F00
0180
1180
3980
1980
0580
0980
3180
E180
C180
4180
0B80
0780
0300
ENDCHAR
STARTCHAR uni4E61
ENCODING 20065
SWIDTH 1000 0
DWIDTH 17 0
BBX 11 16 3 -2
BITMAP
0200
0300
06E0
0C80
1F00
1E60
0660
0CC0
1FC0
1980
0380
0700
0C00
1800
6000
8000
ENDCHAR
STARTCHAR uni4E66
ENCODING 20070
SWIDTH 1000 0
DWIDTH 17 0
BBX 11 16 3 -2
BITMAP
0800
08C0
0860
3F80
0B00
0A00
3FC0
C860
08E0
0CC0
0BC0
0980
0800
0800
0800
0800
ENDCHAR
STARTCHAR uni4E69
ENCODING 20073
SWIDTH 1000 0
DWIDTH 17 0
BBX 15 14 1 -1
BITMAP
0100
3180
3180
3D80
3980
3100
3100
FF00
8F00
8D02
BD02
6086
40FE
003C
ENDCHAR
STARTCHAR uni4E70
ENCODING 20080
SWIDTH 1000 0
DWIDTH 17 0
BBX 13 14 2 -1
BITMAP
1FE0
10E0
0F80
0F00
0300
3300
1B00
03F8
3E10
C600
0480
08E0
1860
2020
ENDCHAR
STARTCHAR uni4E71
ENCODING 20081
SWIDTH 1000 0
DWIDTH 17 0
BBX 15 12 1 0
BITMAP
0680
1CC0
28C0
0880
3F80
C880
1880
3E82
26C2
24C6
3C7E
203C
ENDCHAR
STARTCHAR uni4E73
ENCODING 20083
SWIDTH 1000 0
DWIDTH 17 0
BBX 15 16 1 -2
BITMAP
0400
0C40
3140
0B40
6E40
2640
3E80
4480
0D80
3F80
E4C2
84C2
0C6E
4C7E
381C
1000
ENDCHAR
STARTCHAR uni4E7E
ENCODING 20094
SWIDTH 1000 0
DWIDTH 17 0
BBX 15 14 1 -1
BITMAP
18C0
1EC0
7CC0
10A0
3FE0
5F00
66C0
3D40
38C0
3E82
D082
10C6
107E
1000
ENDCHAR
STARTCHAR uni4E86
ENCODING 20102
SWIDTH 1000 0
DWIDTH 17 0
BBX 7 14 5 -1
BITMAP
FE
8E
18
18
08
0C
0C
0C
0C
0C
18
F8
70
60
ENDCHAR
STARTCHAR uni4E88
ENCODING 20104
SWIDTH 1000 0
DWIDTH 17 0
BBX 15 16 1 -2
BITMAP
0180
1FC0
0100
0700
0308
1FFE
E11C
4100
0100
0100
0100
0100
0300
0300
0F00
0600
ENDCHAR
STARTCHAR uni4E89
ENCODING 20105
SWIDTH 1000 0
DWIDTH 17 0
BBX 13 16 2 -2
BITMAP
0400
0B00
1300
2600
0F80
35C0
0FF8
F598
0780
3D80
0400
0400
0400
2400
1C00
0800
ENDCHAR
STARTCHAR uni4E8B
ENCODING 20107
SWIDTH 1000 0
DWIDTH 17 0
BBX 13 16 2 -2
BITMAP
0600
07F0
FE18
1FC0
16C0
1F80
0FC0
16C0
1FF0
66C0
1FC0
0600
0600
2600
1E00
0C00
ENDCHAR
STARTCHAR uni4E8C
ENCODING 20108
SWIDTH 1000 0
DWIDTH 17 0
BBX 15 8 1 2
BITMAP
07C0
0F00
0000
0000
0000
03FE
7FFE
F000
ENDCHAR
STARTCHAR uni4E8D
ENCODING 20109
SWIDTH 1000 0
DWIDTH 17 0
BBX 15 14 1 -1
BITMAP
07C0
0200
0000
00FC
1F0E
E180
4180
0180
0180
0180
0180
0180
0D80
0300
ENDCHAR
STARTCHAR uni4E8E
ENCODING 20110
SWIDTH 1000 0
DWIDTH 17 0
BBX 15 14 1 -1
BITMAP
0FC0
0400
0100
0100
0FFE
F104
4100
0100
0100
0100
0100
0100
0F00
0700
ENDCHAR
STARTCHAR uni4E8F
ENCODING 20111
SWIDTH 1000 0
DWIDTH 17 0
BBX 13 14 2 -1
BITMAP
0F80
0000
0200
3FF8
F600
8400
0F00
1FC0
08C0
00C0
00C0
0180
0F80
0700
ENDCHAR
STARTCHAR uni4E91
ENCODING 20113
SWIDTH 1000 0
DWIDTH 17 0
BBX 15 12 1 0
BITMAP
0380
0780
0600
0000
03FE
7FBE
E200
4700
0460
09E0
1F70
0E20
ENDCHAR
STARTCHAR uni4E92
ENCODING 20114
SWIDTH 1000 0
DWIDTH 17 0
BBX 14 13 2 -1
BITMAP
0FE0
1840
0C00
0F80
09C0
0980
1180
3F00
3300
0600
0600
7FFC
C004
ENDCHAR
STARTCHAR uni4E93
ENCODING 20115
SWIDTH 1000 0
DWIDTH 17 0
BBX 15 16 1 -2
BITMAP
01C0
07C0
0000
0000
0FFC
FCCE
66C0
06C0
04C0
0CC0
0880
1880
2080
0080
0080
0080
ENDCHAR
STARTCHAR uni4E94
ENCODING 20116
SWIDTH 1000 0
DWIDTH 17 0
BBX 15 12 1 0
BITMAP
07E0
0E00
0200
0600
07C0
1E60
04E0
04C0
0CC0
1FFC
FFFE
C000
ENDCHAR
STARTCHAR uni4E95
ENCODING 20117
SWIDTH 1000 0
DWIDTH 17 0
BBX 11 18 3 -3
BITMAP
0400
0600
0E00
0F80
1F80
0F00
3E00
6FC0
7E60
7660
5640
17C0
2680
6600
4400
8400
0400
0400
ENDCHAR
STARTCHAR uni4E98
ENCODING 20120
SWIDTH 1000 0
DWIDTH 17 0
BBX 15 12 1 0
BITMAP
1FC0
0800
0000
0FE0
1160
1660
09C0
0EC0
0000
0018
1FFC
F806
ENDCHAR
STARTCHAR uni4E9A
ENCODING 20122
SWIDTH 1000 0
DWIDTH 17 0
BBX 13 13 2 -1
BITMAP
1FC0
3200
1300
1300
1360
D360
7380
7300
1300
1300
1FF0
FFF8
C010
ENDCHAR
STARTCHAR uni4E9B
ENCODING 20123
SWIDTH 1000 0
DWIDTH 17 0
BBX 13 15 2 -1
BITMAP
0100
1100
1940
1960
1DC0
5180
5308
5D08
F0F8
C078
0F00
0200
0000
0700
0700
ENDCHAR
STARTCHAR uni4E9F
ENCODING 20127
SWIDTH 1000 0
DWIDTH 17 0
BBX 15 14 1 -1
BITMAP
07C0
08C0
0300
0B10
7B78
4910
59F0
3978
239C
1308
0F00
0608
3FFE
F004
ENDCHAR
STARTCHAR uni4EA0
ENCODING 20128
SWIDTH 1000 0
DWIDTH 17 0
BBX 15 6 1 3
BITMAP
0600
0700
0700
07FE
7806
C000
ENDCHAR
STARTCHAR uni4EA1
ENCODING 20129
SWIDTH 1000 0
DWIDTH 17 0
BBX 13 14 2 -1
BITMAP
0C00
0E00
0600
0610
3FF8
C000
9000
1000
1000
1800
1BC0
1FE0
1FC0
0800
ENDCHAR
STARTCHAR uni4EA2
ENCODING 20130
SWIDTH 1000 0
DWIDTH 17 0
BBX 15 16 1 -2
BITMAP
0800
0600
07F0
3C38
6000
0F00
0900
0B00
0B00
0B00
1B00
1102
3182
61FE
80FE
0008
ENDCHAR
STARTCHAR uni4EA4
ENCODING 20132
SWIDTH 1000 0
DWIDTH 17 0
BBX 13 16 2 -2
BITMAP
0800
0400
0400
1FC0
2000
0000
1980
10C0
3200
4A00
8E00
0600
0F00
13E0
60F8
8040
ENDCHAR
STARTCHAR uni4EA5
ENCODING 20133
SWIDTH 1000 0
DWIDTH 17 0
BBX 13 16 2 -2
BITMAP
0400
0600
0600
1FF8
F490
0D80
1B00
1E00
1680
0D80
0B00
1200
67E0
8CF0
1030
2000
ENDCHAR
STARTCHAR uni4EA6
ENCODING 20134
SWIDTH 1000 0
DWIDTH 17 0
BBX 13 16 2 -2
BITMAP
0400
0600
0FF8
7A08
C100
0900
0900
A900
C940
D970
1138
2110
2100
4100
8100
0100
ENDCHAR
STARTCHAR uni4EA7
ENCODING 20135
SWIDTH 1000 0
DWIDTH 17 0
BBX 11 16 3 -2
BITMAP
0600
0200
0F80
0180
0D80
0600
0FE0
1000
1000
3000
3000
3000
2000
6000
4000
8000
ENDCHAR
STARTCHAR uni4EA8
ENCODING 20136
SWIDTH 1000 0
DWIDTH 17 0
BBX 11 16 3 -2
BITMAP
0800
0C40
3FE0
E000
1F00
1200
1E00
0200
1F00
0400
0600
0600
0600
2600
1C00
0C00
ENDCHAR
STARTCHAR uni4EA9
ENCODING 20137
SWIDTH 1000 0
DWIDTH 17 0
BBX 13 14 2 -1
BITMAP
0600
0600
0600
FFF8
4000
0000
1FC0
3660
1760
1E60
1660
1FE0
19C0
00C0
ENDCHAR
STARTCHAR uni4EAB
ENCODING 20139
SWIDTH 1000 0
DWIDTH 17 0
BBX 11 16 3 -2
BITMAP
1800
0E00
7DC0
1F00
2300
1E00
1000
3F00
0C00
07E0
FFE0
C600
0600
0600
3E00
0C00
ENDCHAR
STARTCHAR uni4EAC
ENCODING 20140
SWIDTH 1000 0
DWIDTH 17 0
BBX 11 16 3 -2
BITMAP
0800
0C00
0FC0
F460
4000
3F80
1180
1300
1F80
0400
4C00
CDC0
CCE0
EC40
1C00
0800
ENDCHAR
STARTCHAR uni4EAD
ENCODING 20141
SWIDTH 1000 0
DWIDTH 17 0
BBX 13 16 2 -2
BITMAP
0C00
0700
3CC0
1F80
1300
0E00
0FC0
7038
C0A8
DFC0
0200
0200
0200
2600
1E00
0400
ENDCHAR
STARTCHAR uni4EAE
ENCODING 20142
SWIDTH 1000 0
DWIDTH 17 0
BBX 13 16 2 -2
BITMAP
0C00
0400
1F80
2E00
1300
1200
0E00
3FF0
4E38
CB40
CB00
0A00
1310
1390
21F0
40F0
ENDCHAR
STARTCHAR uni4EB2
ENCODING 20146
SWIDTH 1000 0
DWIDTH 17 0
BBX 13 16 2 -2
BITMAP
0400
0600
0F80
1100
0980
0B00
07F8
F818
0600
3FC0
1600
1580
34C0
3440
0C00
0400
ENDCHAR
STARTCHAR uni4EB3
ENCODING 20147
SWIDTH 1000 0
DWIDTH 17 0
BBX 11 16 3 -2
BITMAP
1800
0F00
3100
1E00
1600
1E00
1000
7FE0
8CE0
B800
8F00
3800
0820
0820
0FE0
07E0
ENDCHAR
STARTCHAR uni4EB5
ENCODING 20149
SWIDTH 1000 0
DWIDTH 17 0
BBX 13 16 2 -2
BITMAP
0400
0600
3FE0
4A00
1B80
3E80
1700
7790
18F0
1980
1600
3380
D5F8
1860
1800
1000
ENDCHAR
STARTCHAR uni4EBA
ENCODING 20154
SWIDTH 1000 0
DWIDTH 17 0
BBX 15 10 1 1
BITMAP
0300
0300
0600
0C00
0F00
1980
30C0
2070
403C
801E
ENDCHAR
STARTCHAR uni4EBB
ENCODING 20155
SWIDTH 1000 0
DWIDTH 17 0
BBX 8 14 4 -1
BITMAP
03
03
06
0C
08
14
26
46
84
04
04
04
04
04
ENDCHAR
STARTCHAR uni4EBF
ENCODING 20159
SWIDTH 1000 0
DWIDTH 17 0
BBX 15 12 1 0
BITMAP
0C00
1800
1BE0
3040
3080
5080
9100
1102
1106
11FE
19FC
1000
ENDCHAR
STARTCHAR uni4EC0
ENCODING 20160
SWIDTH 1000 0
DWIDTH 17 0
BBX 15 16 1 -2
BITMAP
0040
0860
0C60
0860
1860
10FE
23C4
5040
9040
1040
1040
1040
1040
0040
0040
0040
ENDCHAR
STARTCHAR uni4EC1
ENCODING 20161
SWIDTH 1000 0
DWIDTH 17 0
BBX 15 12 1 0
BITMAP
0400
0C00
09F0
10C0
3000
3800
583E
97FE
1700
1000
1000
1800
ENDCHAR
STARTCHAR uni4EC2
ENCODING 20162
SWIDTH 1000 0
DWIDTH 17 0
BBX 15 14 1 -1
BITMAP
0630
0630
0C30
0C20
19FC
106E
286E
48CC
48CC
899C
0998
0B78
0A30
0400
ENDCHAR
STARTCHAR uni4EC3
ENCODING 20163
SWIDTH 1000 0
DWIDTH 17 0
BBX 15 14 1 -1
BITMAP
0400
0C00
087E
1FC2
1220
2020
5820
5020
9020
1020
1020
1160
00E0
0040
ENDCHAR
STARTCHAR uni4EC4
ENCODING 20164
SWIDTH 1000 0
DWIDTH 17 0
BBX 17 14 0 -1
BITMAP
004000
03E000
020000
088000
0CC000
0C8000
0D8000
0B6000
0B3000
1E1800
180E00
200780
400000
800000
ENDCHAR
STARTCHAR uni4EC5
ENCODING 20165
SWIDTH 1000 0
DWIDTH 17 0
BBX 15 12 1 0
BITMAP
0C00
0C00
19F0
1820
3160
29E0
58C0
98C0
19F0
123C
141E
1000
ENDCHAR
STARTCHAR uni4EC6
ENCODING 20166
SWIDTH 1000 0
DWIDTH 17 0
BBX 14 16 1 -2
BITMAP
0040
0460
0C40
0840
1840
3040
685C
884C
0844
0840
0840
1840
0840
0040
0040
0040
ENDCHAR
STARTCHAR uni4EC7
ENCODING 20167
SWIDTH 1000 0
DWIDTH 17 0
BBX 15 12 1 0
BITMAP
0980
1980
1100
2180
4340
57C0
9280
3282
34C2
387E
307E
3000
ENDCHAR
STARTCHAR uni4EC9
ENCODING 20169
SWIDTH 1000 0
DWIDTH 17 0
BBX 17 12 0 0
BITMAP
040000
0C0000
0BE000
192000
112000
314000
4B4000
524000
926100
142100
1C3F80
100F00
ENDCHAR
STARTCHAR uni4ECA
ENCODING 20170
SWIDTH 1000 0
DWIDTH 17 0
BBX 15 14 1 -1
BITMAP
0600
0600
0E00
0B00
19C0
34E0
2678
463E
800C
0F80
1180
0100
0300
0200
ENDCHAR
STARTCHAR uni4ECB
ENCODING 20171
SWIDTH 1000 0
DWIDTH 17 0
BBX 15 16 1 -2
BITMAP
0300
0600
0700
0D80
09E0
19F0
2DBC
4D8E
8980
0980
0980
1180
1180
6180
0100
0100
ENDCHAR
STARTCHAR uni4ECD
ENCODING 20173
SWIDTH 1000 0
DWIDTH 17 0
BBX 15 14 1 -1
BITMAP
0200
0678
0ECC
0C98
18D0
38BE
4886
8886
0904
0A0C
0C0C
0858
0870
0020
ENDCHAR
STARTCHAR uni4ECE
ENCODING 20174
SWIDTH 1000 0
DWIDTH 17 0
BBX 17 10 0 1
BITMAP
004000
086000
084000
084000
08C000
18E000
1CB000
351800
620C00
840780
ENDCHAR
STARTCHAR uni4ED1
ENCODING 20177
SWIDTH 1000 0
DWIDTH 17 0
BBX 15 16 1 -2
BITMAP
0400
0600
0400
0F00
1980
10C0
2D70
49BE
8B1C
0E00
0820
1820
2830
0FF0
07F0
0080
ENDCHAR
STARTCHAR uni4ED3
ENCODING 20179
SWIDTH 1000 0
DWIDTH 17 0
BBX 15 14 1 -1
BITMAP
0300
0600
0580
0C80
1860
11F0
26BC
489E
8984
0B00
0B10
0810
07F0
07F0
ENDCHAR
STARTCHAR uni4ED4
ENCODING 20180
SWIDTH 1000 0
DWIDTH 17 0
BBX 15 13 1 0
BITMAP
0800
0DF0
1860
10C0
3040
707E
57FE
9460
1060
1060
1060
1260
11C0
ENDCHAR
STARTCHAR uni4ED5
ENCODING 20181
SWIDTH 1000 0
DWIDTH 17 0
BBX 15 14 1 -1
BITMAP
0200
0630
0430
0C30
087E
1BFE
1A70
2870
4870
8860
09FC
09CC
1800
0800
ENDCHAR
STARTCHAR uni4ED6
ENCODING 20182
SWIDTH 1000 0
DWIDTH 17 0
BBX 15 14 1 -1
BITMAP
0100
0900
1900
1100
31F0
2730
6D60
BDE0
2542
2502
2402
2706
23FE
20FC
ENDCHAR
STARTCHAR uni4ED7
ENCODING 20183
SWIDTH 1000 0
DWIDTH 17 0
BBX 15 14 1 -1
BITMAP
0080
00C0
18C0
10F0
2780
4080
A780
2380
2100
23C0
2CE0
3078
203E
0008
ENDCHAR
STARTCHAR uni4ED8
ENCODING 20184
SWIDTH 1000 0
DWIDTH 17 0
BBX 15 14 1 -1
BITMAP
0630
0430
0C30
083E
17FE
2830
2B30
49B0
98B0
1820
1830
1830
09E0
0060
ENDCHAR
STARTCHAR uni4ED9
ENCODING 20185
SWIDTH 1000 0
DWIDTH 17 0
BBX 15 14 1 -1
BITMAP
0800
0C00
0840
1860
1060
2060
4864
4B66
9BFE
1FE6
1A06
1804
1800
1000
ENDCHAR
STARTCHAR uni4EDD
ENCODING 20189
SWIDTH 1000 0
DWIDTH 17 0
BBX 15 14 1 -1
BITMAP
0200
0600
0600
0D00
0980
10C0
3070
673C
CE1E
8604
0600
0600
1FE0
3800
ENDCHAR
STARTCHAR uni4EDE
ENCODING 20190
SWIDTH 1000 0
DWIDTH 17 0
BBX 15 14 1 -1
BITMAP
0400
0600
0C00
09FC
106E
104E
2FCC
4B8C
898C
091C
0A18
1CF8
1870
0870
ENDCHAR
STARTCHAR uni4EDF
ENCODING 20191
SWIDTH 1000 0
DWIDTH 17 0
BBX 16 15 0 -1
BITMAP
0010
0218
0230
04E0
0510
081F
1BF0
2530
4810
8810
0810
0810
0C10
0010
0010
ENDCHAR
STARTCHAR uni4EE1
ENCODING 20193
SWIDTH 1000 0
DWIDTH 17 0
BBX 17 14 0 -1
BITMAP
008000
04C000
06B800
0DF000
190000
123000
2DE000
512000
904000
104100
102100
102180
103F80
000E00
ENDCHAR
STARTCHAR uni4EE3
ENCODING 20195
SWIDTH 1000 0
DWIDTH 17 0
BBX 15 14 1 -1
BITMAP
0080
04B0
0C98
0C80
18F0
1780
2AC0
4840
8860
0860
1832
181E
000E
0004
ENDCHAR
STARTCHAR uni4EE4
ENCODING 20196
SWIDTH 1000 0
DWIDTH 17 0
BBX 15 16 1 -2
BITMAP
0200
0600
0600
0F80
19C0
16F0
277C
463E
8080
0FC0
3080
0180
0300
0600
0300
0300
ENDCHAR
STARTCHAR uni4EE5
ENCODING 20197
SWIDTH 1000 0
DWIDTH 17 0
BBX 13 12 2 -1
BITMAP
0040
0E60
8660
40C0
40C0
68C0
7180
7100
6260
E438
D818
8008
ENDCHAR
STARTCHAR uni4EE8
ENCODING 20200
SWIDTH 1000 0
DWIDTH 17 0
BBX 15 12 1 0
BITMAP
0600
0C70
08F0
1800
1020
28F0
4880
8800
087E
0BFE
1800
1800
ENDCHAR
STARTCHAR uni4EEA
ENCODING 20202
SWIDTH 1000 0
DWIDTH 17 0
BBX 15 12 1 0
BITMAP
0800
1940
19E0
3260
2240
71C0
51C0
91C0
1370
143C
181E
1000
ENDCHAR
STARTCHAR uni4EEB
ENCODING 20203
SWIDTH 1000 0
DWIDTH 17 0
BBX 15 14 1 -1
BITMAP
0400
0620
0C60
0840
18C0
11B0
2A20
4C40
98CC
19FE
19F6
10C4
1000
1800
ENDCHAR
STARTCHAR uni4EEC
ENCODING 20204
SWIDTH 1000 0
DWIDTH 17 0
BBX 13 14 2 -1
BITMAP
0800
1820
1358
3108
6408
4408
9408
9408
2408
2408
2408
3418
3078
0018
ENDCHAR
STARTCHAR uni4EF0
ENCODING 20208
SWIDTH 1000 0
DWIDTH 17 0
BBX 15 14 1 -1
BITMAP
0C00
0D00
1980
111C
3626
3A76
52A6
9324
963C
1620
1020
1020
0020
0020
ENDCHAR
STARTCHAR uni4EF2
ENCODING 20210
SWIDTH 1000 0
DWIDTH 17 0
BBX 13 16 2 -2
BITMAP
0180
0180
19C0
11C0
27B8
4D98
A7F0
25A0
3180
2180
2180
0180
0080
0080
0080
0080
ENDCHAR
STARTCHAR uni4EF3
ENCODING 20211
SWIDTH 1000 0
DWIDTH 17 0
BBX 17 12 0 0
BITMAP
040000
062400
0C2C00
082C00
1BB000
1A2000
2AE000
4B2100
8B2100
0A1F80
180F00
080000
ENDCHAR
STARTCHAR uni4EF5
ENCODING 20213
SWIDTH 1000 0
DWIDTH 17 0
BBX 15 16 1 -2
BITMAP
0100
0900
1BE0
16E0
2C40
50C0
93FE
1EC0
10C0
10C0
10C0
10C0
00C0
00C0
00C0
0080
ENDCHAR
STARTCHAR uni4EF6
ENCODING 20214
SWIDTH 1000 0
DWIDTH 17 0
BBX 15 16 1 -2
BITMAP
0040
0860
1840
1A70
37E0
2440
684E
57FE
9C40
1040
1040
3040
3040
0040
0040
0040
ENDCHAR
STARTCHAR uni4EF7
ENCODING 20215
SWIDTH 1000 0
DWIDTH 17 0
BBX 17 16 0 -2
BITMAP
004000
00C000
0C8000
0DC000
193000
123C00
2D3F80
49A200
892000
192000
1B2000
1A2000
1C2000
002000
002000
002000
ENDCHAR
STARTCHAR uni4EFB
ENCODING 20219
SWIDTH 1000 0
DWIDTH 17 0
BBX 15 14 1 -1
BITMAP
0400
0630
0C70
1980
1060
287E
4FFE
8E60
8860
0860
11FC
1000
1000
1800
ENDCHAR
STARTCHAR uni4EFD
ENCODING 20221
SWIDTH 1000 0
DWIDTH 17 0
BBX 15 12 1 0
BITMAP
08C0
0860
1A30
161C
2C0E
53C4
5160
9160
1260
1440
39C0
1080
ENDCHAR
STARTCHAR uni4EFF
ENCODING 20223
SWIDTH 1000 0
DWIDTH 17 0
BBX 15 14 1 -1
BITMAP
0400
0CC0
08C0
1840
11FE
2740
30C0
50B0
9190
1230
1430
11E0
10C0
0080
ENDCHAR
STARTCHAR uni4F01
ENCODING 20225
SWIDTH 1000 0
DWIDTH 17 0
BBX 15 14 1 -1
BITMAP
0200
0600
0D80
08C0
10E0
2078
431E
830C
13C0
1300
1A00
1A00
1FF0
7000
ENDCHAR
STARTCHAR uni4F09
ENCODING 20233
SWIDTH 1000 0
DWIDTH 17 0
BBX 15 12 1 0
BITMAP
0D80
0880
1BF8
1400
21E0
3140
5140
9140
9240
1262
143A
181E
ENDCHAR
STARTCHAR uni4F0A
ENCODING 20234
SWIDTH 1000 0
DWIDTH 17 0
BBX 15 14 1 -1
BITMAP
0C00
0C60
09B0
10BE
11F6
3720
51F0
5300
9100
1200
1200
1400
3400
1800
ENDCHAR
STARTCHAR uni4F0D
ENCODING 20237
SWIDTH 1000 0
DWIDTH 17 0
BBX 15 14 1 -1
BITMAP
0800
0C00
18F0
1B80
3080
3180
53E0
9730
1360
1260
17FE
1C06
3000
1000
ENDCHAR
STARTCHAR uni4F0E
ENCODING 20238
SWIDTH 1000 0
DWIDTH 17 0
BBX 16 14 0 -1
BITMAP
0060
0660
0660
0C78
09E0
1060
2878
4890
8990
08F0
0860
08F8
0B1F
080E
ENDCHAR
STARTCHAR uni4F0F
ENCODING 20239
SWIDTH 1000 0
DWIDTH 17 0
BBX 15 14 1 -1
BITMAP
0080
09B0
1DB8
1100
3160
23F0
5D80
9180
23C0
22E0
2470
2838
301E
200C
ENDCHAR
STARTCHAR uni4F10
ENCODING 20240
SWIDTH 1000 0
DWIDTH 17 0
BBX 15 14 1 -1
BITMAP
0100
0960
0D30
1900
1970
3380
36B0
50E0
90E0
10E0
11B2
121E
100E
0006
ENDCHAR
STARTCHAR uni4F11
ENCODING 20241
SWIDTH 1000 0
DWIDTH 17 0
BBX 16 14 1 -1
BITMAP
0880
0C80
1880
10F0
2780
3180
53C0
92E0
94B0
189C
108F
1084
3180
0080
ENDCHAR
STARTCHAR uni4F17
ENCODING 20247
SWIDTH 1000 0
DWIDTH 17 0
BBX 15 16 1 -2
BITMAP
0200
0300
0600
0400
0DC0
10C0
20C0
0080
1980
1180
1180
3BC0
6E60
C438
081E
0008
ENDCHAR
STARTCHAR uni4F18
ENCODING 20248
SWIDTH 1000 0
DWIDTH 17 0
BBX 15 14 1 -1
BITMAP
0880
1CB0
19B0
3100
23F0
4500
5380
9280
1280
1480
1484
18C6
307E
101C
ENDCHAR
STARTCHAR uni4F19
ENCODING 20249
SWIDTH 1000 0
DWIDTH 17 0
BBX 15 12 1 0
BITMAP
0C80
0890
18B0
15E0
3780
5D80
5DC0
9540
1360
1230
141C
381E
ENDCHAR
STARTCHAR uni4F1A
ENCODING 20250
SWIDTH 1000 0
DWIDTH 17 0
BBX 17 14 0 -1
BITMAP
018000
018000
03C000
066000
047000
0C3C00
1BDF00
200780
C3F000
0F1000
030000
066000
07E000
073000
ENDCHAR
STARTCHAR uni4F1B
ENCODING 20251
SWIDTH 1000 0
DWIDTH 17 0
BBX 15 14 1 -1
BITMAP
0400
0CF0
0880
1800
1110
21B0
6960
D178
1198
1100
1300
13FE
138E
1200
ENDCHAR
STARTCHAR uni4F1E
ENCODING 20254
SWIDTH 1000 0
DWIDTH 17 0
BBX 13 16 2 -2
BITMAP
0400
0400
0A00
1900
1180
26E0
47F8
9F18
8600
0FE0
7E20
0600
0600
0400
0400
0400
ENDCHAR
STARTCHAR uni4F1F
ENCODING 20255
SWIDTH 1000 0
DWIDTH 17 0
BBX 14 16 1 -2
BITMAP
0080
08C0
0CF0
1B80
10F0
3390
58F8
93CC
1C8C
10BC
10B8
1090
1080
0080
0080
0080
ENDCHAR
STARTCHAR uni4F20
ENCODING 20256
SWIDTH 1000 0
DWIDTH 17 0
BBX 15 16 1 -2
BITMAP
0040
0440
0C40
0870
1BF0
10C0
31FE
5FC2
9180
91F8
1138
1030
1020
10C0
00E0
0060
ENDCHAR
STARTCHAR uni4F22
ENCODING 20258
SWIDTH 1000 0
DWIDTH 17 0
BBX 15 16 1 -2
BITMAP
0020
08F0
1C60
1120
3124
33FE
5F60
9A60
10E0
1120
1220
1420
1820
01E0
00E0
0040
ENDCHAR
STARTCHAR uni4F24
ENCODING 20260
SWIDTH 1000 0
DWIDTH 17 0
BBX 14 14 1 -1
BITMAP
0020
0660
0C7C
0CA0
1920
1830
287C
48EC
884C
08CC
088C
09D8
0B38
0430
ENDCHAR
STARTCHAR uni4F25
ENCODING 20261
SWIDTH 1000 0
DWIDTH 17 0
BBX 15 12 1 0
BITMAP
0D20
0960
1940
31B0
23F8
5580
91C0
1160
1378
139E
330E
1300
ENDCHAR
STARTCHAR uni4F26
ENCODING 20262
SWIDTH 1000 0
DWIDTH 17 0
BBX 17 14 0 -1
BITMAP
004000
066000
0CE000
08B000
191C00
1A0E00
2CA780
48E000
894000
088000
090400
088C00
08FC00
007000
ENDCHAR
STARTCHAR uni4F27
ENCODING 20263
SWIDTH 1000 0
DWIDTH 17 0
BBX 17 14 0 -1
BITMAP
004000
064000
04E000
0D1800
091C00
1AFF80
3D3300
692000
496000
892000
090200
088400
08FE00
007C00
ENDCHAR
STARTCHAR uni4F2A
ENCODING 20266
SWIDTH 1000 0
DWIDTH 17 0
BBX 15 14 1 -1
BITMAP
0C10
0C30
1C30
1B20
3360
68FC
5BC6
9886
19F6
132E
140C
10CC
1838
1030
ENDCHAR
STARTCHAR uni4F2B
ENCODING 20267
SWIDTH 1000 0
DWIDTH 17 0
BBX 13 14 2 -1
BITMAP
1180
1980
31F0
3618
2438
4C20
B400
B000
3000
3000
33F8
3FF8
3000
3000
ENDCHAR
STARTCHAR uni4F2F
ENCODING 20271
SWIDTH 1000 0
DWIDTH 17 0
BBX 13 14 2 -1
BITMAP
0440
0C60
08C0
1180
13F8
3218
5A18
99D8
9918
1918
11D0
11F0
1030
1020
ENDCHAR
STARTCHAR uni4F30
ENCODING 20272
SWIDTH 1000 0
DWIDTH 17 0
BBX 15 14 1 -1
BITMAP
0800
0CC0
18C0
10C0
33FE
37C6
50C0
91F0
1218
1230
1370
31F0
1100
1000
ENDCHAR
STARTCHAR uni4F32
ENCODING 20274
SWIDTH 1000 0
DWIDTH 17 0
BBX 15 12 1 0
BITMAP
0CF0
0818
1130
11F0
2100
5150
9358
9260
1242
14C2
1466
183E
ENDCHAR
STARTCHAR uni4F34
ENCODING 20276
SWIDTH 1000 0
DWIDTH 17 0
BBX 15 14 1 -1
BITMAP
0060
0468
0DF8
08E0
10F8
3160
587E
9FF6
1860
1860
1860
1860
0840
0040
ENDCHAR
STARTCHAR uni4F36
ENCODING 20278
SWIDTH 1000 0
DWIDTH 17 0
BBX 17 14 0 -1
BITMAP
006000
044000
0CE000
09B000
191800
12CE00
2C6780
483200
89D800
083000
102000
10C000
186000
083000
ENDCHAR
STARTCHAR uni4F38
ENCODING 20280
SWIDTH 1000 0
DWIDTH 17 0
BBX 15 16 1 -2
BITMAP
0040
0660
0C60
08F4
134E
22EC
536C
91FC
1148
1040
1040
1040
1040
0040
0040
0040
ENDCHAR
STARTCHAR uni4F3A
ENCODING 20282
SWIDTH 1000 0
DWIDTH 17 0
BBX 13 16 2 -2
BITMAP
0400
0C00
08F8
1B18
1018
23D8
5618
93D8
94D8
1598
1398
1018
3098
0078
0030
0020
ENDCHAR
STARTCHAR uni4F3C
ENCODING 20284
SWIDTH 1000 0
DWIDTH 17 0
BBX 15 12 1 0
BITMAP
0C00
0800
18CC
304C
2608
5258
9290
1338
1366
12C6
1000
1000
ENDCHAR
STARTCHAR uni4F3D
ENCODING 20285
SWIDTH 1000 0
DWIDTH 17 0
BBX 15 14 1 -1
BITMAP
0800
0C00
1900
1100
2380
26DC
52E6
94AC
15BC
1BBC
3310
3000
3000
1000
ENDCHAR
STARTCHAR uni4F43
ENCODING 20291
SWIDTH 1000 0
DWIDTH 17 0
BBX 15 14 1 -1
BITMAP
0400
0600
0C00
09F0
1A4E
1246
2AE6
494E
494E
89FC
098C
1938
1810
0800
ENDCHAR
STARTCHAR uni4F46
ENCODING 20294
SWIDTH 1000 0
DWIDTH 17 0
BBX 15 14 1 -1
BITMAP
0800
0C00
19F8
1B18
31D0
21B0
5170
91E0
3000
3004
37FE
3E00
3000
3000
ENDCHAR
STARTCHAR uni4F4D
ENCODING 20301
SWIDTH 1000 0
DWIDTH 17 0
BBX 15 14 1 -1
BITMAP
0400
0CC0
0C40
1848
13FC
2810
5818
9990
19B0
1860
18FE
1FE6
1800
1000
ENDCHAR
STARTCHAR uni4F4E
ENCODING 20302
SWIDTH 1000 0
DWIDTH 17 0
BBX 15 14 1 -1
BITMAP
0040
0CC0
1980
1280
3640
27F0
5740
9660
16A0
1532
361A
34CE
30E6
0040
ENDCHAR
STARTCHAR uni4F4F
ENCODING 20303
SWIDTH 1000 0
DWIDTH 17 0
BBX 15 16 1 -2
BITMAP
0800
0480
0CC0
0840
1078
3380
3040
5870
99F0
10C0
10C0
10C0
13FE
1600
1000
1000
ENDCHAR
STARTCHAR uni4F50
ENCODING 20304
SWIDTH 1000 0
DWIDTH 17 0
BBX 15 14 1 -1
BITMAP
0040
0C40
1840
10FC
3388
2180
5180
9170
1220
1620
1C78
13FE
1100
1000
ENDCHAR
STARTCHAR uni4F51
ENCODING 20305
SWIDTH 1000 0
DWIDTH 17 0
BBX 15 14 1 -1
BITMAP
0020
0660
0C60
0840
1BFE
12C0
2880
49B8
89CC
098C
0A8C
0C98
187C
0840
ENDCHAR
STARTCHAR uni4F53
ENCODING 20307
SWIDTH 1000 0
DWIDTH 17 0
BBX 15 14 1 -1
BITMAP
0080
1980
1980
33F0
2D80
6380
A3C0
27E0
2DB0
39FC
27EE
2100
2100
0100
ENDCHAR
STARTCHAR uni4F55
ENCODING 20309
SWIDTH 1000 0
DWIDTH 17 0
BBX 15 14 1 -1
BITMAP
0800
080E
11FE
3E10
20D0
43D0
9490
13D0
2310
2018
2018
2098
2070
0020
ENDCHAR
STARTCHAR uni4F57
ENCODING 20311
SWIDTH 1000 0
DWIDTH 17 0
BBX 15 14 1 -1
BITMAP
08C0
0C60
08F0
1B0E
160E
3680
5098
90B0
10E0
10C2
1382
1082
30EE
007E
ENDCHAR
STARTCHAR uni4F58
ENCODING 20312
SWIDTH 1000 0
DWIDTH 17 0
BBX 15 16 1 -2
BITMAP
0200
0600
0F00
0980
17C0
2E70
40FE
8FCC
3800
0200
1280
3270
2230
2E00
0600
0400
ENDCHAR
STARTCHAR uni4F59
ENCODING 20313
SWIDTH 1000 0
DWIDTH 17 0
BBX 15 16 1 -2
BITMAP
0200
0600
0600
0980
18C0
3060
2F78
4A1E
87C8
1E40
0200
17C0
26E0
2620
0E00
0400
ENDCHAR
STARTCHAR uni4F5A
ENCODING 20314
SWIDTH 1000 0
DWIDTH 17 0
BBX 15 14 1 -1
BITMAP
0040
1840
1840
13E0
23F0
64C0
64C0
B3F8
ACC0
21C0
21E0
2330
221C
240E
ENDCHAR
STARTCHAR uni4F5B
ENCODING 20315
SWIDTH 1000 0
DWIDTH 17 0
BBX 13 16 2 -2
BITMAP
0080
12C0
1A80
33F0
26F0
63E0
76C0
AFF8
AE98
2AD8
24B8
24B0
2880
2080
0080
0080
ENDCHAR
STARTCHAR uni4F5C
ENCODING 20316
SWIDTH 1000 0
DWIDTH 17 0
BBX 13 16 2 -2
BITMAP
0080
0180
1900
12F8
3400
2880
50A0
90F0
1080
10F0
10F0
3080
1080
0080
0080
0080
ENDCHAR
STARTCHAR uni4F5D
ENCODING 20317
SWIDTH 1000 0
DWIDTH 17 0
BBX 13 16 2 -2
BITMAP
0080
0880
0980
1100
33F0
2618
6418
5BD8
B2D8
B398
3398
3018
3018
31B0
0070
0040
ENDCHAR
STARTCHAR uni4F5E
ENCODING 20318
SWIDTH 1000 0
DWIDTH 17 0
BBX 15 14 1 -1
BITMAP
0800
1B80
1980
1000
37E0
6500
5100
A3FE
3FCE
3280
2380
21E0
2270
0020
ENDCHAR
STARTCHAR uni4F5F
ENCODING 20319
SWIDTH 1000 0
DWIDTH 17 0
BBX 17 14 0 -1
BITMAP
008000
08A000
0D7000
0B2000
16C000
30E000
31F800
533F80
94EE00
184000
100000
10C000
106000
102000
ENDCHAR
STARTCHAR uni4F60
ENCODING 20320
SWIDTH 1000 0
DWIDTH 17 0
BBX 15 14 1 -1
BITMAP
00C0
0CC0
0F80
0978
129C
3430
3840
5240
9240
164E
1646
1440
11C0
00C0
ENDCHAR
STARTCHAR uni4F63
ENCODING 20323
SWIDTH 1000 0
DWIDTH 17 0
BBX 15 14 1 -1
BITMAP
0600
0600
0CFC
096C
1164
29E4
4974
89E4
0A66
0A66
0A66
1A66
087E
004C
ENDCHAR
STARTCHAR uni4F64
ENCODING 20324
SWIDTH 1000 0
DWIDTH 17 0
BBX 15 12 1 0
BITMAP
1800
10F0
1700
23E0
4240
6240
A340
2440
24C2
2762
2E32
243E
ENDCHAR
STARTCHAR uni4F65
ENCODING 20325
SWIDTH 1000 0
DWIDTH 17 0
BBX 13 16 2 -2
BITMAP
0400
0400
0C00
0E00
1380
31C0
60F0
8F38
1000
0880
2580
1700
1200
0C00
3FE0
2000
ENDCHAR
STARTCHAR uni4F67
ENCODING 20327
SWIDTH 1000 0
DWIDTH 17 0
BBX 15 16 1 -2
BITMAP
0080
04C0
04E0
0CC0
08C4
13FE
16C0
28C0
50C0
90F8
10D8
10C0
10C0
18C0
0040
0080
ENDCHAR
STARTCHAR uni4F69
ENCODING 20329
SWIDTH 1000 0
DWIDTH 17 0
BBX 15 14 1 -1
BITMAP
1000
19C0
1620
2420
27E0
6560
A7E0
2560
2B60
2BF2
311E
210E
0106
0100
ENDCHAR
STARTCHAR uni4F6C
ENCODING 20332
SWIDTH 1000 0
DWIDTH 17 0
BBX 16 14 0 -1
BITMAP
0020
0222
02FE
0426
042C
09FF
1E10
1430
2478
44F8
8520
0E20
0C3C
001C
ENDCHAR
STARTCHAR uni4F6F
ENCODING 20335
SWIDTH 1000 0
DWIDTH 17 0
BBX 15 16 1 -2
BITMAP
0810
0B10
1920
10F0
23C0
20E0
51C0
90C0
21FC
2EC6
20C0
20C0
00C0
00C0
0080
0080
ENDCHAR
STARTCHAR uni4F70
ENCODING 20336
SWIDTH 1000 0
DWIDTH 17 0
BBX 15 14 1 -1
BITMAP
0400
0C00
09FE
1BE6
1040
28F8
5918
9998
18F8
1898
1098
10F8
1098
1010
ENDCHAR
STARTCHAR uni4F73
ENCODING 20339
SWIDTH 1000 0
DWIDTH 17 0
BBX 15 14 1 -1
BITMAP
0840
0C40
1870
11C0
30C0
79FE
5600
9040
10F0
1160
1040
10FC
138C
1000
ENDCHAR
STARTCHAR uni4F74
ENCODING 20340
SWIDTH 1000 0
DWIDTH 17 0
BBX 15 16 1 -2
BITMAP
0800
1830
13F0
2660
41E0
6260
A3E0
2264
23FE
3E60
2060
2060
2060
0060
0060
0040
ENDCHAR
STARTCHAR uni4F76
ENCODING 20342
SWIDTH 1000 0
DWIDTH 17 0
BBX 15 14 1 -1
BITMAP
0660
0660
0C60
0BFE
1B60
3860
29F0
4900
8808
09FC
091C
1930
18F8
0888
ENDCHAR
STARTCHAR uni4F7B
ENCODING 20347
SWIDTH 1000 0
DWIDTH 17 0
BBX 16 12 0 0
BITMAP
0620
0420
0928
0938
1330
1920
2B38
4D29
8921
0A3F
1C1F
0800
ENDCHAR
STARTCHAR uni4F7C
ENCODING 20348
SWIDTH 1000 0
DWIDTH 17 0
BBX 15 14 1 -1
BITMAP
08C0
0CC0
09FC
1200
3030
2118
5328
9560
98C0
10C0
10E0
1338
141E
100C
ENDCHAR
STARTCHAR uni4F7E
ENCODING 20350
SWIDTH 1000 0
DWIDTH 17 0
BBX 17 14 0 -1
BITMAP
042000
0C9000
0D9800
190E00
127F80
2C9800
48F800
889800
08F800
08D800
089800
091800
08B800
001800
ENDCHAR
STARTCHAR uni4F7F
ENCODING 20351
SWIDTH 1000 0
DWIDTH 17 0
BBX 15 14 1 -1
BITMAP
0080
10C0
1BE0
30C0
27B0
62B0
A3E0
2580
2300
2380
26E0
2878
203E
000C
ENDCHAR
STARTCHAR uni4F83
ENCODING 20355
SWIDTH 1000 0
DWIDTH 17 0
BBX 15 14 1 -1
BITMAP
0800
0BF0
1A38
1260
21E0
5020
52B0
92A0
22A0
22A0
24A2
34A2
301E
0004
ENDCHAR
STARTCHAR uni4F84
ENCODING 20356
SWIDTH 1000 0
DWIDTH 17 0
BBX 15 12 1 0
BITMAP
0DF0
0C40
18D0
11B8
21C8
5060
5070
91F0
1060
1060
13FE
17CE
ENDCHAR
STARTCHAR uni4F88
ENCODING 20360
SWIDTH 1000 0
DWIDTH 17 0
BBX 13 16 2 -2
BITMAP
0040
0860
0DB0
1A60
11C0
21A0
5270
9458
1198
1030
30F0
3060
30C0
3180
0300
0400
ENDCHAR
STARTCHAR uni4F89
ENCODING 20361
SWIDTH 1000 0
DWIDTH 17 0
BBX 17 16 0 -2
BITMAP
004000
04C000
04F000
0DE800
08B000
191000
39DC00
7A3E00
9FC780
18C000
18E000
183000
183000
102000
01E000
00C000
ENDCHAR
STARTCHAR uni4F8B
ENCODING 20363
SWIDTH 1000 0
DWIDTH 17 0
BBX 15 14 1 -1
BITMAP
0402
0C02
0FC6
1906
119E
2AD6
4CB6
8B96
1986
1306
1606
1826
181E
000C
ENDCHAR
STARTCHAR uni4F8D
ENCODING 20365
SWIDTH 1000 0
DWIDTH 17 0
BBX 15 14 1 -1
BITMAP
00C0
0CF0
1DC0
18C4
31FE
2E60
5078
97A0
9020
11A0
10E0
3060
1160
00C0
ENDCHAR
STARTCHAR uni4F8F
ENCODING 20367
SWIDTH 1000 0
DWIDTH 17 0
BBX 15 16 1 -2
BITMAP
0080
00C0
1880
1A80
33E0
2480
50F8
5F88
91C0
33E0
22B8
249C
288E
3080
0080
0080
ENDCHAR
STARTCHAR uni4F91
ENCODING 20369
SWIDTH 1000 0
DWIDTH 17 0
BBX 13 16 2 -2
BITMAP
0080
08C0
18F8
17D8
1180
21E0
7230
55F0
99F0
1130
11F0
1130
3130
1130
0060
0020
ENDCHAR
STARTCHAR uni4F94
ENCODING 20372
SWIDTH 1000 0
DWIDTH 17 0
BBX 17 16 0 -2
BITMAP
002000
026800
067C00
06C400
0C1000
08F800
1C9100
1D1F80
2DF000
4F1000
8C1000
0C1000
0C1000
001000
001000
001000
ENDCHAR
STARTCHAR uni4F97
ENCODING 20375
SWIDTH 1000 0
DWIDTH 17 0
BBX 13 14 2 -1
BITMAP
1C78
1B98
1418
27D8
2518
55D8
9678
97D8
15D8
1418
3418
3418
30F8
0038
ENDCHAR
STARTCHAR uni4F9B
ENCODING 20379
SWIDTH 1000 0
DWIDTH 17 0
BBX 15 14 1 -1
BITMAP
0820
0C30
0930
19F0
3320
3160
5144
97FE
1C02
1320
1330
1618
3008
1000
ENDCHAR
STARTCHAR uni4F9D
ENCODING 20381
SWIDTH 1000 0
DWIDTH 17 0
BBX 17 14 0 -1
BITMAP
04C000
04C000
0CFC00
0B8000
128800
31CC00
797800
532000
957000
195800
114E00
118780
118000
010000
ENDCHAR
STARTCHAR uni4FA0
ENCODING 20384
SWIDTH 1000 0
DWIDTH 17 0
BBX 15 14 1 -1
BITMAP
0080
0880
0DE0
1A80
35B0
26B0
53E0
93FC
1FC0
11C0
1260
3238
343E
380E
ENDCHAR
STARTCHAR uni4FA3
ENCODING 20387
SWIDTH 1000 0
DWIDTH 17 0
BBX 15 14 1 -1
BITMAP
09F8
1D18
1118
3170
20F0
5000
9040
13FE
120E
120C
120C
11FC
1108
1000
ENDCHAR
STARTCHAR uni4FA5
ENCODING 20389
SWIDTH 1000 0
DWIDTH 17 0
BBX 15 14 1 -1
BITMAP
0580
0C80
09F0
1BD0
3070
60E2
5134
967E
17E0
1140
1142
1242
127E
043E
ENDCHAR
STARTCHAR uni4FA6
ENCODING 20390
SWIDTH 1000 0
DWIDTH 17 0
BBX 13 16 2 -2
BITMAP
0080
0C80
0CF0
18C0
1080
31F0
5298
92D8
12D8
1298
1298
1398
1140
1238
0418
0008
ENDCHAR
STARTCHAR uni4FA7
ENCODING 20391
SWIDTH 1000 0
DWIDTH 17 0
BBX 15 14 1 -1
BITMAP
0C02
09C2
1AC2
12D6
25DA
75DA
D5D2
15D2
1782
14C2
1842
1006
100E
0006
ENDCHAR
STARTCHAR uni4FA8
ENCODING 20392
SWIDTH 1000 0
DWIDTH 17 0
BBX 15 14 1 -1
BITMAP
19C0
1B80
3500
23F8
4EC0
A240
A460
2A78
3A5E
22CE
2440
6440
2840
0040
ENDCHAR
STARTCHAR uni4FA9
ENCODING 20393
SWIDTH 1000 0
DWIDTH 17 0
BBX 15 14 1 -1
BITMAP
0080
1900
1980
32C0
2260
65B8
6B9E
900E
B7F0
2900
2240
24E0
2760
2000
ENDCHAR
STARTCHAR uni4FAA
ENCODING 20394
SWIDTH 1000 0
DWIDTH 17 0
BBX 15 14 1 -1
BITMAP
0980
19F0
1640
21C0
61C0
5370
AF7E
316C
2160
2360
2240
3440
0040
0040
ENDCHAR
STARTCHAR uni4FAC
ENCODING 20396
SWIDTH 1000 0
DWIDTH 17 0
BBX 15 16 1 -2
BITMAP
0080
0080
1080
1DF0
3798
2520
4510
92B0
A2E0
2760
2A30
22BC
231E
2300
0200
0200
ENDCHAR
STARTCHAR uni4FAE
ENCODING 20398
SWIDTH 1000 0
DWIDTH 17 0
BBX 16 16 0 -2
BITMAP
0040
0040
06F8
0DE0
0900
1A78
18B8
28BF
4BFF
8D50
0950
0BF8
0BBC
0830
00E0
0040
ENDCHAR
STARTCHAR uni4FAF
ENCODING 20399
SWIDTH 1000 0
DWIDTH 17 0
BBX 15 15 1 -2
BITMAP
0DE0
1840
10FE
3700
2100
51E0
9340
145C
13FC
16C0
3080
30B0
3118
0208
0400
ENDCHAR
STARTCHAR uni4FB5
ENCODING 20405
SWIDTH 1000 0
DWIDTH 17 0
BBX 15 14 1 -1
BITMAP
0DF0
0860
11E0
3060
21C0
51FC
9606
14EA
1560
10C0
30C0
31E0
3638
181E
ENDCHAR
STARTCHAR uni4FBF
ENCODING 20415
SWIDTH 1000 0
DWIDTH 17 0
BBX 15 12 1 0
BITMAP
0BE0
1880
11F0
26D8
3398
53F0
96A0
1180
11C0
1270
3C3C
001E
ENDCHAR
STARTCHAR uni4FC3
ENCODING 20419
SWIDTH 1000 0
DWIDTH 17 0
BBX 15 12 1 0
BITMAP
13E0
1A60
3280
23C0
6000
9280
22E0
2480
2780
29E0
307E
201C
ENDCHAR
STARTCHAR uni4FC4
ENCODING 20420
SWIDTH 1000 0
DWIDTH 17 0
BBX 15 14 1 -1
BITMAP
0080
09A0
1B98
3E90
22F0
47C0
BBD0
A250
2660
3A60
32F2
331E
2C1E
2406
ENDCHAR
STARTCHAR uni4FC5
ENCODING 20421
SWIDTH 1000 0
DWIDTH 17 0
BBX 15 14 1 -1
BITMAP
0080
0890
0898
1880
33F0
3490
50B0
97E0
11E0
12F8
1C9E
148C
1380
0180
ENDCHAR
STARTCHAR uni4FCA
ENCODING 20426
SWIDTH 1000 0
DWIDTH 17 0
BBX 15 14 1 -1
BITMAP
0080
08A0
1970
1390
3000
2138
5398
94E0
11E0
12C0
14E0
31B8
321E
100C
ENDCHAR
STARTCHAR uni4FCE
ENCODING 20430
SWIDTH 1000 0
DWIDTH 17 0
BBX 15 14 1 -1
BITMAP
1000
18F0
1130
1D30
2DF0
61E0
9130
11E0
31E0
3920
6B20
497E
8FFE
0800
ENDCHAR
STARTCHAR uni4FCF
ENCODING 20431
SWIDTH 1000 0
DWIDTH 17 0
BBX 13 16 2 -2
BITMAP
0040
0848
0C58
1B70
11E0
20F8
7918
D1F8
9118
11F8
1118
1118
1118
1178
0010
0010
ENDCHAR
STARTCHAR uni4FD0
ENCODING 20432
SWIDTH 1000 0
DWIDTH 17 0
BBX 15 16 1 -2
BITMAP
0002
0882
0DC2
0B82
1582
31F6
379A
5D9A
93F2
1762
3502
3906
1126
001E
000E
0004
ENDCHAR
STARTCHAR uni4FD1
ENCODING 20433
SWIDTH 1000 0
DWIDTH 17 0
BBX 13 16 2 -2
BITMAP
0800
0DF0
1820
11C0
30C0
31F8
5298
93D8
9498
15F8
1698
3498
34D8
32B8
1098
0010
ENDCHAR
STARTCHAR uni4FD7
ENCODING 20439
SWIDTH 1000 0
DWIDTH 17 0
BBX 17 12 0 0
BITMAP
051800
0D0800
0B4000
14C000
28A000
491800
921E00
14F780
191800
113000
117000
109000
ENDCHAR
STARTCHAR uni4FD8
ENCODING 20440
SWIDTH 1000 0
DWIDTH 17 0
BBX 15 16 1 -2
BITMAP
0040
08E0
0D90
1898
1370
3040
21F0
5060
9060
10FE
17A0
1020
1020
1020
01E0
0040
ENDCHAR
STARTCHAR uni4FDA
ENCODING 20442
SWIDTH 1000 0
DWIDTH 17 0
BBX 15 14 1 -1
BITMAP
0400
0DF8
0E2C
19FC
116C
29F8
6970
D078
91E0
1060
11FE
1306
1000
1800
ENDCHAR
STARTCHAR uni4FDC
ENCODING 20444
SWIDTH 1000 0
DWIDTH 17 0
BBX 15 16 1 -2
BITMAP
0040
0840
0DF8
0B7C
19D8
1178
29F0
480E
97FE
1480
11F0
1110
1030
1130
10E0
0040
ENDCHAR
STARTCHAR uni4FDD
ENCODING 20445
SWIDTH 1000 0
DWIDTH 17 0
BBX 17 13 0 0
BITMAP
002000
06D800
0CB000
08F000
104000
187E00
2FE600
48F000
88F800
095E00
0E4780
084000
004000
ENDCHAR
STARTCHAR uni4FDE
ENCODING 20446
SWIDTH 1000 0
DWIDTH 17 0
BBX 15 16 1 -2
BITMAP
0200
0200
0700
0980
18E0
3FF8
601E
8E4E
1340
1F40
1340
1F40
1640
1640
14C0
0040
ENDCHAR
STARTCHAR uni4FDF
ENCODING 20447
SWIDTH 1000 0
DWIDTH 17 0
BBX 15 16 1 -2
BITMAP
0040
0060
0CC0
0D98
19E8
1108
3080
59F0
9240
1466
13FE
1640
10D0
119C
130C
1400
ENDCHAR
STARTCHAR uni4FE1
ENCODING 20449
SWIDTH 1000 0
DWIDTH 17 0
BBX 15 14 1 -1
BITMAP
04C0
0E60
0C7C
1F86
1200
28F0
4800
88E0
0800
08F8
1918
1930
19F0
1890
ENDCHAR
STARTCHAR uni4FE3
ENCODING 20451
SWIDTH 1000 0
DWIDTH 17 0
BBX 15 14 1 -1
BITMAP
0CF8
1930
11B0
30F0
2080
50F0
91C0
1040
13FE
14C0
1080
1198
111C
1608
ENDCHAR
STARTCHAR uni4FE6
ENCODING 20454
SWIDTH 1000 0
DWIDTH 17 0
BBX 15 16 1 -2
BITMAP
0080
0CC0
0DF0
0A80
11E0
1180
21FE
5F04
5320
93F8
1420
19A0
10A0
1020
10E0
0040
ENDCHAR
STARTCHAR uni4FE8
ENCODING 20456
SWIDTH 1000 0
DWIDTH 17 0
BBX 15 15 1 -2
BITMAP
0DF0
18A4
12AC
33B0
60FE
5386
B300
3300
3300
3200
3600
3600
3400
0800
1000
ENDCHAR
STARTCHAR uni4FE9
ENCODING 20457
SWIDTH 1000 0
DWIDTH 17 0
BBX 15 14 1 -1
BITMAP
0C00
1830
13F8
30A0
20E0
67BE
556E
956E
26DE
248C
240C
247C
3038
0010
ENDCHAR
STARTCHAR uni4FEA
ENCODING 20458
SWIDTH 1000 0
DWIDTH 17 0
BBX 15 14 1 -1
BITMAP
0800
0800
1BFE
1400
23BC
52A4
54A4
93B4
14A4
14A4
14A4
1184
101C
0008
ENDCHAR
STARTCHAR uni4FED
ENCODING 20461
SWIDTH 1000 0
DWIDTH 17 0
BBX 15 14 1 -1
BITMAP
0080
1900
1380
32C0
2460
6838
AB9E
B004
2120
2560
24C0
21E0
2FF8
2000
ENDCHAR
STARTCHAR uni4FEE
ENCODING 20462
SWIDTH 1000 0
DWIDTH 17 0
BBX 15 14 1 -1
BITMAP
00C0
19F0
1160
32C0
20F0
4F3E
ECC4
A9C0
2B60
28B0
2120
2060
20C0
0300
ENDCHAR
STARTCHAR uni4FEF
ENCODING 20463
SWIDTH 1000 0
DWIDTH 17 0
BBX 15 14 1 -1
BITMAP
08E0
0C7C
1984
1100
3348
33C8
72FE
5388
96B8
14B8
1888
3188
1028
0018
ENDCHAR
STARTCHAR uni4FF1
ENCODING 20465
SWIDTH 1000 0
DWIDTH 17 0
BBX 17 14 0 -1
BITMAP
04F000
071800
0D5800
09D800
117000
119000
29F000
491000
897F80
0FF300
192000
199C00
1A0C00
040000
ENDCHAR
STARTCHAR uni4FF3
ENCODING 20467
SWIDTH 1000 0
DWIDTH 17 0
BBX 13 16 2 -2
BITMAP
0040
1060
1240
2278
4E70
6240
AF70
2240
2E50
3E78
2240
2040
2040
0040
0040
0040
ENDCHAR
STARTCHAR uni4FF8
ENCODING 20472
SWIDTH 1000 0
DWIDTH 17 0
BBX 16 16 0 -2
BITMAP
0040
0640
04F8
0DC0
09F0
10BC
1BF4
2958
49EC
8AC7
0CFA
0940
1840
0840
0040
0040
ENDCHAR
STARTCHAR uni4FFA
ENCODING 20474
SWIDTH 1000 0
DWIDTH 17 0
BBX 17 14 0 -1
BITMAP
04C000
0C8000
08F000
0BC000
112000
239000
33FC00
56DF00
9BB380
12E000
11A000
108200
104600
007E00
ENDCHAR
STARTCHAR uni4FFE
ENCODING 20478
SWIDTH 1000 0
DWIDTH 17 0
BBX 15 16 1 -2
BITMAP
0080
0100
1BE0
14B0
23A0
4320
63E0
A180
23FE
3E82
2880
2080
2080
0080
0080
0080
ENDCHAR
STARTCHAR uni500C
ENCODING 20492
SWIDTH 1000 0
DWIDTH 17 0
BBX 15 14 1 -1
BITMAP
00C0
0C60
09FC
1A0E
1200
24F0
5120
5160
9180
11F8
1118
1178
1180
1100
ENDCHAR
STARTCHAR uni500D
ENCODING 20493
SWIDTH 1000 0
DWIDTH 17 0
BBX 15 14 1 -1
BITMAP
0D80
0CC0
1BF0
1020
2260
41FC
97FE
9800
13F0
1230
1220
1260
31E0
1100
ENDCHAR
STARTCHAR uni500F
ENCODING 20495
SWIDTH 1000 0
DWIDTH 17 0
BBX 15 14 1 -1
BITMAP
0080
10F0
19A0
12E0
30F0
25BE
566C
9450
B7F8
35C0
20A0
31B8
3318
0408
ENDCHAR
STARTCHAR uni5012
ENCODING 20498
SWIDTH 1000 0
DWIDTH 17 0
BBX 15 15 1 -1
BITMAP
0004
0C02
0CC6
1FC6
1186
22F6
377E
571E
91D6
1386
11C6
1786
3406
301E
100E
ENDCHAR
STARTCHAR uni5014
ENCODING 20500
SWIDTH 1000 0
DWIDTH 17 0
BBX 15 15 1 -1
BITMAP
0400
047C
0CD8
0898
18F8
30C0
2930
4974
89BC
0BE4
0A20
1CA8
1CAC
19FE
1886
ENDCHAR
STARTCHAR uni5018
ENCODING 20504
SWIDTH 1000 0
DWIDTH 17 0
BBX 15 14 1 -1
BITMAP
0040
0C48
0D58
1B70
1160
21FE
5E06
92F6
93B6
12E6
1286
120E
103C
0018
ENDCHAR
STARTCHAR uni5019
ENCODING 20505
SWIDTH 1000 0
DWIDTH 17 0
BBX 15 14 1 -1
BITMAP
0C70
0C30
1A30
13FE
3A00
5AF8
92A0
1720
12FE
1160
1050
10DC
118C
0204
ENDCHAR
STARTCHAR uni501A
ENCODING 20506
SWIDTH 1000 0
DWIDTH 17 0
BBX 15 16 1 -2
BITMAP
0080
0880
19E0
1380
2160
2210
54FE
9F20
13A0
35A0
37A0
3220
3020
0020
01E0
0040
ENDCHAR
STARTCHAR uni501C
ENCODING 20508
SWIDTH 1000 0
DWIDTH 17 0
BBX 13 16 2 -2
BITMAP
0800
09F8
1848
1268
23D8
72F8
5318
92F8
1378
1748
14E8
1408
3808
1058
0038
0010
ENDCHAR
STARTCHAR uni501F
ENCODING 20511
SWIDTH 1000 0
DWIDTH 17 0
BBX 17 14 0 -1
BITMAP
001000
069000
0DF800
087000
106000
39FF80
2E6000
489800
88F000
08D000
089000
08F800
08B800
009000
ENDCHAR
STARTCHAR uni5021
ENCODING 20513
SWIDTH 1000 0
DWIDTH 17 0
BBX 15 14 1 -1
BITMAP
06F0
0518
0D78
1898
10F8
3090
2878
4986
8A66
19E6
190E
19FC
191C
1008
ENDCHAR
STARTCHAR uni5025
ENCODING 20517
SWIDTH 1000 0
DWIDTH 17 0
BBX 15 14 1 -1
BITMAP
0080
0CC0
09F8
1606
270A
25B0
5118
9208
15E0
10C0
1040
1040
33FE
1200
ENDCHAR
STARTCHAR uni5026
ENCODING 20518
SWIDTH 1000 0
DWIDTH 17 0
BBX 17 14 0 -1
BITMAP
004000
055800
0CE000
0BF000
118000
10FC00
2FB000
497800
9AAE00
14E780
10A000
108800
188C00
007800
ENDCHAR
STARTCHAR uni5028
ENCODING 20520
SWIDTH 1000 0
DWIDTH 17 0
BBX 15 14 1 -1
BITMAP
0870
0DB8
1930
11F0
3180
3320
52FE
9360
9660
14FC
1898
10B8
30F8
1040
ENDCHAR
STARTCHAR uni5029
ENCODING 20521
SWIDTH 1000 0
DWIDTH 17 0
BBX 15 16 1 -2
BITMAP
0040
0840
0FF0
1040
11E0
30C0
53FE
9CE2
1130
11F0
1130
31F0
3130
3230
2270
0020
ENDCHAR
STARTCHAR uni502A
ENCODING 20522
SWIDTH 1000 0
DWIDTH 17 0
BBX 15 14 1 -1
BITMAP
0180
1900
12F0
1430
27F0
6430
57A0
B6E0
3240
3340
3242
3642
347E
281C
ENDCHAR
STARTCHAR uni502C
ENCODING 20524
SWIDTH 1000 0
DWIDTH 17 0
BBX 15 16 1 -2
BITMAP
0080
08E0
1880
10E0
3318
23D8
5230
93B0
10A0
10FE
1FC2
10C0
30C0
10C0
00C0
0080
ENDCHAR
STARTCHAR uni502D
ENCODING 20525
SWIDTH 1000 0
DWIDTH 17 0
BBX 15 14 1 -1
BITMAP
0060
0DC0
0C78
1BE8
12E0
315C
5A44
9C40
91FE
16A0
11E0
11E0
11B0
0218
ENDCHAR
STARTCHAR uni502E
ENCODING 20526
SWIDTH 1000 0
DWIDTH 17 0
BBX 15 14 1 -1
BITMAP
09C0
1E38
1AD8
33F0
23F0
51F0
90C0
13FE
2FC6
2280
26B8
288C
23C8
3180
ENDCHAR
STARTCHAR uni503A
ENCODING 20538
SWIDTH 1000 0
DWIDTH 17 0
BBX 15 16 1 -2
BITMAP
0040
0040
0DF0
18E0
11E0
30FE
3F06
51F0
91B0
91F0
11B0
11B0
31A0
1378
0618
0008
ENDCHAR
STARTCHAR uni503C
ENCODING 20540
SWIDTH 1000 0
DWIDTH 17 0
BBX 15 14 1 -1
BITMAP
00C0
0880
1FF8
1180
21E0
5230
53F0
9260
13A0
12E0
1370
1230
37FE
3820
ENDCHAR
STARTCHAR uni503E
ENCODING 20542
SWIDTH 1000 0
DWIDTH 17 0
BBX 15 14 1 -1
BITMAP
087E
0DA0
1820
347C
274C
54A8
94AC
97AC
1EAC
1CAC
1868
30D8
319C
0004
ENDCHAR
STARTCHAR uni5043
ENCODING 20547
SWIDTH 1000 0
DWIDTH 17 0
BBX 15 14 1 -1
BITMAP
08F0
1990
10F0
10F0
22E0
2280
525E
93E0
12A0
12E0
36D8
27FC
27FE
2200
ENDCHAR
STARTCHAR uni5047
ENCODING 20551
SWIDTH 1000 0
DWIDTH 17 0
BBX 17 12 0 0
BITMAP
0C1000
0BB800
199800
11B000
220800
7BB800
945800
15B800
173000
143800
14CE00
150780
ENDCHAR
STARTCHAR uni5048
ENCODING 20552
SWIDTH 1000 0
DWIDTH 17 0
BBX 15 16 1 -2
BITMAP
04F0
0718
0D58
0898
10B8
10F0
2880
497E
8A46
0D76
1996
1906
19FC
192C
0018
0008
ENDCHAR
STARTCHAR uni504C
ENCODING 20556
SWIDTH 1000 0
DWIDTH 17 0
BBX 15 16 1 -2
BITMAP
0020
0830
0920
1938
1378
2140
2080
51FE
9F06
3100
3270
33B8
2530
29F0
21F0
2080
ENDCHAR
STARTCHAR uni504E
ENCODING 20558
SWIDTH 1000 0
DWIDTH 17 0
BBX 17 14 0 -1
BITMAP
05F800
0D7800
09D800
19D000
10F000
383E00
5BC800
9FD800
196000
193000
195800
198E00
118780
010000
ENDCHAR
STARTCHAR uni504F
ENCODING 20559
SWIDTH 1000 0
DWIDTH 17 0
BBX 15 16 1 -2
BITMAP
0080
0C40
0C78
0998
1130
1170
29C0
5B00
9BFE
12A6
1EFE
15A6
19A6
112C
101C
0008
ENDCHAR
STARTCHAR uni5055
ENCODING 20565
SWIDTH 1000 0
DWIDTH 17 0
BBX 15 16 1 -2
BITMAP
0040
0848
0E58
1BD0
1260
2342
3366
56BE
931C
13E0
1630
11F0
1330
32B0
11F0
0220
ENDCHAR
STARTCHAR uni505A
ENCODING 20570
SWIDTH 1000 0
DWIDTH 17 0
BBX 17 12 0 0
BITMAP
041000
091000
093000
11FC00
3F2800
315800
53F800
94B000
15B800
136E00
118780
100200
ENDCHAR
STARTCHAR uni505C
ENCODING 20572
SWIDTH 1000 0
DWIDTH 17 0
BBX 15 16 1 -2
BITMAP
0100
0180
19F0
3660
21E0
4160
61E0
A1FC
260E
28EE
2B40
2040
2040
2240
01C0
0080
ENDCHAR
STARTCHAR uni5065
ENCODING 20581
SWIDTH 1000 0
DWIDTH 17 0
BBX 15 14 1 -1
BITMAP
0040
18F8
1350
2EFE
4740
68F0
AF60
27E0
3478
2DF8
2E40
3BC0
21FE
207C
ENDCHAR
STARTCHAR uni506C
ENCODING 20588
SWIDTH 1000 0
DWIDTH 17 0
BBX 15 16 1 -2
BITMAP
0080
0CC0
0D80
1970
12AC
34EC
31D8
52D8
91B8
9270
10AE
1262
1548
348C
10FC
0038
ENDCHAR
STARTCHAR uni5076
ENCODING 20598
SWIDTH 1000 0
DWIDTH 17 0
BBX 14 13 1 -1
BITMAP
0FF0
1ED8
1BF8
33B0
21F0
53A0
91F8
968C
15FC
15FC
120C
323C
1018
ENDCHAR
STARTCHAR uni5077
ENCODING 20599
SWIDTH 1000 0
DWIDTH 17 0
BBX 15 14 1 -1
BITMAP
0180
1180
3BC0
3660
243C
6FDE
B220
A560
2760
2760
2570
2730
25B0
2060
ENDCHAR
STARTCHAR uni507B
ENCODING 20603
SWIDTH 1000 0
DWIDTH 17 0
BBX 15 14 1 -1
BITMAP
00D0
1AF0
11E0
31F8
2680
51B8
6298
A480
20E0
2FFE
21E0
20E0
21B0
2318
ENDCHAR
STARTCHAR uni507E
ENCODING 20606
SWIDTH 1000 0
DWIDTH 17 0
BBX 15 16 1 -2
BITMAP
0080
0880
09E0
1A80
10B0
27FE
5E60
52C0
9330
12A0
12A0
33A0
3320
3260
0430
0010
ENDCHAR
STARTCHAR uni507F
ENCODING 20607
SWIDTH 1000 0
DWIDTH 17 0
BBX 15 14 1 -1
BITMAP
0C80
0890
1CA0
12C0
21F0
560E
58CC
99D0
1838
13F0
14A0
1130
33F8
1380
ENDCHAR
STARTCHAR uni5080
ENCODING 20608
SWIDTH 1000 0
DWIDTH 17 0
BBX 15 14 1 -1
BITMAP
0080
1980
13E0
34B0
27B0
45B0
A3E0
AD20
23A0
22D8
24EA
2882
30FE
007E
ENDCHAR
STARTCHAR uni5085
ENCODING 20613
SWIDTH 1000 0
DWIDTH 17 0
BBX 15 16 1 -2
BITMAP
0050
08D0
1DF8
1AE0
3150
39F0
51F0
91D0
92F0
123E
17F2
11B0
10B0
1030
01E0
0040
ENDCHAR
STARTCHAR uni5088
ENCODING 20616
SWIDTH 1000 0
DWIDTH 17 0
BBX 15 16 1 -2
BITMAP
0030
0DE0
0930
1BFC
14EC
22CC
33F8
5A50
9040
13FE
1640
1258
124C
124C
00C0
0080
ENDCHAR
STARTCHAR uni508D
ENCODING 20621
SWIDTH 1000 0
DWIDTH 17 0
BBX 15 16 1 -2
BITMAP
0080
00C0
19F8
1920
11C0
21FC
460E
6CCE
ACF8
2360
20B0
2130
2230
2160
00C0
0080
ENDCHAR
STARTCHAR uni50A3
ENCODING 20643
SWIDTH 1000 0
DWIDTH 17 0
BBX 15 14 1 -1
BITMAP
0180
1970
1780
13C0
2190
27F8
5240
9530
197C
37CE
2380
2570
3320
0100
ENDCHAR
STARTCHAR uni50A5
ENCODING 20645
SWIDTH 1000 0
DWIDTH 17 0
BBX 15 14 1 -1
BITMAP
0880
18B0
13E0
31F0
260E
54EE
9530
15E0
1100
1140
3140
3242
3666
203E
ENDCHAR
STARTCHAR uni50A7
ENCODING 20647
SWIDTH 1000 0
DWIDTH 17 0
BBX 15 12 1 0
BITMAP
0080
09F0
1A0C
14D0
35F0
2140
5140
9140
9FFE
1900
3170
3630
ENDCHAR
STARTCHAR uni50A8
ENCODING 20648
SWIDTH 1000 0
DWIDTH 17 0
BBX 15 14 1 -1
BITMAP
0020
0824
1834
13EC
3068
64FE
5D30
9478
1548
16E8
1788
16A8
30F8
1088
ENDCHAR
STARTCHAR uni50A9
ENCODING 20649
SWIDTH 1000 0
DWIDTH 17 0
BBX 15 14 1 -1
BITMAP
0040
1860
1070
3098
2FFC
629C
ACB8
AE98
38B8
2090
20FE
2080
2080
0080
ENDCHAR
STARTCHAR uni50AC
ENCODING 20652
SWIDTH 1000 0
DWIDTH 17 0
BBX 15 16 1 -2
BITMAP
0040
0440
0DC8
0978
138C
12A0
29B8
49E0
9B78
1D38
1970
1120
197C
1986
1100
1100
ENDCHAR
STARTCHAR uni50B2
ENCODING 20658
SWIDTH 1000 0
DWIDTH 17 0
BBX 17 14 0 -1
BITMAP
012000
011000
099000
0F2000
13BE00
352800
2FE800
537800
939800
149800
18BC00
15EF00
138780
020000
ENDCHAR
STARTCHAR uni50BA
ENCODING 20666
SWIDTH 1000 0
DWIDTH 17 0
BBX 17 14 0 -1
BITMAP
00A000
09A600
0DFE00
0ED400
1D9800
138C00
2B6F00
4A0380
8CF800
092000
093000
1B2C00
096400
004000
ENDCHAR
STARTCHAR uni50BB
ENCODING 20667
SWIDTH 1000 0
DWIDTH 17 0
BBX 15 16 1 -2
BITMAP
0040
0840
0CF0
1B48
12C8
22A8
51F8
9110
9198
13C8
15F0
11A0
1260
30F8
119E
0204
ENDCHAR
STARTCHAR uni50CF
ENCODING 20687
SWIDTH 1000 0
DWIDTH 17 0
BBX 15 16 1 -2
BITMAP
0080
00E0
0930
0A40
11FC
324C
31F8
5048
91B0
12E0
15E0
12F8
115E
1344
00C0
0080
ENDCHAR
STARTCHAR uni50D6
ENCODING 20694
SWIDTH 1000 0
DWIDTH 17 0
BBX 15 16 1 -2
BITMAP
0080
00C0
33F0
30C0
33F0
61E0
BE30
A9E0
A110
23FE
2F62
2060
23B0
6160
21E0
2100
ENDCHAR
STARTCHAR uni50DA
ENCODING 20698
SWIDTH 1000 0
DWIDTH 17 0
BBX 15 16 1 -2
BITMAP
0080
0880
19F0
17A0
3150
2258
56E0
B778
BBBE
3324
21C0
2080
24B0
2698
0180
0100
ENDCHAR
STARTCHAR uni50E6
ENCODING 20710
SWIDTH 1000 0
DWIDTH 17 0
BBX 17 14 0 -1
BITMAP
001000
0B1000
1B1400
17D000
29BC00
26F000
553000
97A800
123000
1BF100
2AC900
368F80
320700
100000
ENDCHAR
STARTCHAR uni50E7
ENCODING 20711
SWIDTH 1000 0
DWIDTH 17 0
BBX 15 16 1 -2
BITMAP
0010
0598
0CB0
09FC
1A56
12F4
297C
5988
5870
9898
18F8
18D8
1898
18F0
10B0
0010
ENDCHAR
STARTCHAR uni50EC
ENCODING 20716
SWIDTH 1000 0
DWIDTH 17 0
BBX 15 16 1 -2
BITMAP
04E0
04A0
0D78
0BA0
17F0
1920
29F8
4920
89FC
0BA0
1900
18EC
1E96
1E06
1800
0800
ENDCHAR
STARTCHAR uni50ED
ENCODING 20717
SWIDTH 1000 0
DWIDTH 17 0
BBX 15 16 1 -2
BITMAP
0400
07B8
0C50
0B5C
15F0
3770
33B2
5DDE
998E
10F0
1110
11D0
1110
31F0
1130
0020
ENDCHAR
STARTCHAR uni50EE
ENCODING 20718
SWIDTH 1000 0
DWIDTH 17 0
BBX 15 14 1 -1
BITMAP
0080
18E0
1B30
3260
21C0
5F3E
69F0
A3F0
22A0
23E0
20C0
27F0
2180
27F8
ENDCHAR
STARTCHAR uni50F3
ENCODING 20723
SWIDTH 1000 0
DWIDTH 17 0
BBX 15 14 1 -1
BITMAP
09E0
0C20
1BF8
14CC
22EC
7398
5270
9160
13FC
1DE0
13F8
36DE
188C
0080
ENDCHAR
STARTCHAR uni50F5
ENCODING 20725
SWIDTH 1000 0
DWIDTH 17 0
BBX 15 14 1 -1
BITMAP
08F0
0D80
09F8
1A78
11D8
31F8
7896
5BFE
9ED8
19F8
1178
1090
11FC
1300
ENDCHAR
STARTCHAR uni50FB
ENCODING 20731
SWIDTH 1000 0
DWIDTH 17 0
BBX 15 16 1 -2
BITMAP
0020
0830
1B18
11E0
2358
5750
543E
9FE2
1910
177C
1410
3010
1010
0010
0010
0010
ENDCHAR
STARTCHAR uni5106
ENCODING 20742
SWIDTH 1000 0
DWIDTH 17 0
BBX 15 14 1 -1
BITMAP
0080
1CB0
14A0
2FE0
2328
627C
A7D0
AED0
3AB0
26B0
21B8
65CE
6304
2000
ENDCHAR
STARTCHAR uni5107
ENCODING 20743
SWIDTH 1000 0
DWIDTH 17 0
BBX 15 14 1 -1
BITMAP
0FF8
1B58
12F0
31E0
20F0
5F0C
93F0
1220
11E8
3158
3360
3534
399E
3104
ENDCHAR
STARTCHAR uni510B
ENCODING 20747
SWIDTH 1000 0
DWIDTH 17 0
BBX 15 16 1 -2
BITMAP
0020
0458
0498
0928
08F8
1148
294C
49B4
897E
0990
0A70
1A78
1E7C
1C48
0858
0068
ENDCHAR
STARTCHAR uni5112
ENCODING 20754
SWIDTH 1000 0
DWIDTH 17 0
BBX 15 14 1 -1
BITMAP
0CC0
09E0
18FC
17AE
2DEA
58B0
5A90
93E0
1100
13F8
1558
2558
3570
10B0
ENDCHAR
STARTCHAR uni5121
ENCODING 20769
SWIDTH 1000 0
DWIDTH 17 0
BBX 15 14 1 -1
BITMAP
09F0
0E58
1AD8
1198
21F0
7130
533C
96D6
17DE
16F6
16D6
17FE
314C
1004
ENDCHAR
STARTCHAR uni513F
ENCODING 20799
SWIDTH 1000 0
DWIDTH 17 0
BBX 15 12 1 0
BITMAP
0180
0980
0900
0900
0900
0900
1900
1100
1182
21C2
40FE
807E
ENDCHAR
STARTCHAR uni5140
ENCODING 20800
SWIDTH 1000 0
DWIDTH 17 0
BBX 15 12 1 0
BITMAP
07F0
3D10
0900
0900
0900
0900
1900
1100
1102
2182
40FE
803E
ENDCHAR
STARTCHAR uni5141
ENCODING 20801
SWIDTH 1000 0
DWIDTH 17 0
BBX 15 14 1 -1
BITMAP
0600
0C00
0900
11C0
36C0
3A40
2300
0B00
0B00
1B00
1302
1102
21FE
C0FE
ENDCHAR
STARTCHAR uni5143
ENCODING 20803
SWIDTH 1000 0
DWIDTH 17 0
BBX 15 14 1 -1
BITMAP
0F80
0C80
0000
0018
1FFC
F900
4D00
0900
0900
0902
1902
1186
20FE
407E
ENDCHAR
STARTCHAR uni5144
ENCODING 20804
SWIDTH 1000 0
DWIDTH 17 0
BBX 15 14 1 -1
BITMAP
1FC0
21C0
2180
1300
1F00
1200
1300
1A00
1200
1200
1202
2302
21FE
C0FC
ENDCHAR
STARTCHAR uni5145
ENCODING 20805
SWIDTH 1000 0
DWIDTH 17 0
BBX 13 16 2 -2
BITMAP
0800
0C00
0C40
3FE0
E800
1B00
3380
3D80
3400
1600
1600
1408
2408
2618
43F8
80F0
ENDCHAR
STARTCHAR uni5146
ENCODING 20806
SWIDTH 1000 0
DWIDTH 17 0
BBX 15 14 1 -1
BITMAP
0100
0900
0920
0960
69C0
3900
1980
39E0
F160
D100
3102
20C6
40FE
003C
ENDCHAR
STARTCHAR uni5148
ENCODING 20808
SWIDTH 1000 0
DWIDTH 17 0
BBX 13 16 2 -2
BITMAP
0400
0600
1600
3F00
6600
4460
9FF0
F200
1A00
1A00
1200
3200
2208
4318
81F8
00F8
ENDCHAR
STARTCHAR uni5149
ENCODING 20809
SWIDTH 1000 0
DWIDTH 17 0
BBX 15 16 1 -2
BITMAP
0200
0300
0260
1AE0
1AC0
0B80
07F8
791C
C900
0D00
0900
0904
1902
1186
20FE
0018
ENDCHAR
STARTCHAR uni514B
ENCODING 20811
SWIDTH 1000 0
DWIDTH 17 0
BBX 15 16 1 -2
BITMAP
0200
0200
07C0
1A40
0600
0FC0
10C0
11C0
0F80
0900
0900
0904
0904
1106
21FE
C07C
ENDCHAR
STARTCHAR uni514D
ENCODING 20813
SWIDTH 1000 0
DWIDTH 17 0
BBX 15 16 1 -2
BITMAP
0400
0600
0F80
19C0
1300
0FE0
1270
1660
1FC0
1500
0D00
0900
1104
3104
41FE
807C
ENDCHAR
STARTCHAR uni5151
ENCODING 20817
SWIDTH 1000 0
DWIDTH 17 0
BBX 13 16 2 -2
BITMAP
0100
1100
1A00
0400
1F80
1180
1180
1F00
1200
0A00
1A00
1208
3208
21F8
41F8
8000
ENDCHAR
STARTCHAR uni5154
ENCODING 20820
SWIDTH 1000 0
DWIDTH 17 0
BBX 15 16 1 -2
BITMAP
0800
0C00
0B80
1300
2F80
1660
16C0
1FC0
1C80
0E00
0AC0
1A44
1204
63FE
81FC
0020
ENDCHAR
STARTCHAR uni5155
ENCODING 20821
SWIDTH 1000 0
DWIDTH 17 0
BBX 15 15 1 -1
BITMAP
00C0
38B0
68B0
69B0
2F30
2060
3FE0
2B40
0B00
1B00
1B04
1304
3306
61FE
81FE
ENDCHAR
STARTCHAR uni5156
ENCODING 20822
SWIDTH 1000 0
DWIDTH 17 0
BBX 11 16 3 -2
BITMAP
1800
1800
3FC0
C8C0
2300
6980
9400
2600
7B00
2400
2400
2400
6420
4620
87E0
01E0
ENDCHAR
STARTCHAR uni515A
ENCODING 20826
SWIDTH 1000 0
DWIDTH 17 0
BBX 13 16 2 -2
BITMAP
0400
04C0
0D80
1600
0FC0
7038
4778
C980
D100
8E00
0A00
0A00
0A08
1318
21F8
40F0
ENDCHAR
STARTCHAR uni515C
ENCODING 20828
SWIDTH 1000 0
DWIDTH 17 0
BBX 13 16 2 -2
BITMAP
0400
0C00
1E80
3340
4F40
2B40
2F40
3BC0
2280
0A00
1A00
1210
1210
2318
41F0
80F0
ENDCHAR
STARTCHAR uni5162
ENCODING 20834
SWIDTH 1000 0
DWIDTH 17 0
BBX 15 14 1 -1
BITMAP
0860
1840
1FF0
7040
18F0
7730
6D60
3C90
28A0
3AA0
2D22
3D22
4A3E
841E
ENDCHAR
STARTCHAR uni5165
ENCODING 20837
SWIDTH 1000 0
DWIDTH 17 0
BBX 15 10 1 1
BITMAP
0C00
0E00
0700
0700
0D80
0CC0
1870
3038
C01E
0008
ENDCHAR
STARTCHAR uni5168
ENCODING 20840
SWIDTH 1000 0
DWIDTH 17 0
BBX 17 14 0 -1
BITMAP
030000
030000
078000
04C000
086000
107800
27DE00
430F80
83C200
070000
030000
030000
07F800
1E1800
ENDCHAR
STARTCHAR uni516B
ENCODING 20843
SWIDTH 1000 0
DWIDTH 17 0
BBX 17 8 0 2
BITMAP
008000
00C000
0C6000
086000
183000
301C00
401F00
800780
ENDCHAR
STARTCHAR uni516C
ENCODING 20844
SWIDTH 1000 0
DWIDTH 17 0
BBX 15 12 1 0
BITMAP
0100
0980
18C0
1060
2038
423E
860C
0C00
0880
11C0
3F60
1C00
ENDCHAR
STARTCHAR uni516D
ENCODING 20845
SWIDTH 1000 0
DWIDTH 17 0
BBX 15 14 1 -1
BITMAP
0400
0300
0300
0300
01FE
3E0C
E000
0000
0400
0C60
0C30
1838
1018
2000
ENDCHAR
STARTCHAR uni516E
ENCODING 20846
SWIDTH 1000 0
DWIDTH 17 0
BBX 15 16 1 -2
BITMAP
0100
0480
0C40
0860
1030
67DC
9A0E
0200
0780
04C0
00C0
0080
1180
0F00
0700
0200
ENDCHAR
STARTCHAR uni5170
ENCODING 20848
SWIDTH 1000 0
DWIDTH 17 0
BBX 15 14 1 -1
BITMAP
0060
0060
18C0
0D80
0300
3FFE
E000
0000
0FC0
0600
0000
0000
03C0
0FE0
ENDCHAR
STARTCHAR uni5171
ENCODING 20849
SWIDTH 1000 0
DWIDTH 17 0
BBX 15 14 1 -1
BITMAP
0080
08C0
0C80
0FE0
1880
0880
0980
09C4
3FFE
E800
8800
1CE0
3070
6030
ENDCHAR
STARTCHAR uni5173
ENCODING 20851
SWIDTH 1000 0
DWIDTH 17 0
BBX 15 16 1 -2
BITMAP
0080
01C0
1980
0B00
07C0
1E80
1600
07E0
7E70
2600
0F00
0D80
18E0
3078
C03E
0008
ENDCHAR
STARTCHAR uni5174
ENCODING 20852
SWIDTH 1000 0
DWIDTH 17 0
BBX 15 14 1 -1
BITMAP
0020
0330
13B8
1960
1C80
0300
0000
7FFE
E004
0800
0CE0
1878
2030
4010
ENDCHAR
STARTCHAR uni5175
ENCODING 20853
SWIDTH 1000 0
DWIDTH 17 0
BBX 15 15 1 -2
BITMAP
0300
0600
0800
09E0
0E80
0980
0980
0BFC
3FFE
E100
0800
0CE0
1830
3010
4000
ENDCHAR
STARTCHAR uni5176
ENCODING 20854
SWIDTH 1000 0
DWIDTH 17 0
BBX 13 16 2 -2
BITMAP
0080
0080
0880
0FC0
39A0
0B80
0D80
0F80
0980
09F0
FFF8
C800
1980
10C0
2060
C000
ENDCHAR
STARTCHAR uni5177
ENCODING 20855
SWIDTH 1000 0
DWIDTH 17 0
BBX 15 16 1 -2
BITMAP
00C0
07E0
0460
0740
0640
0740
04C0
07C0
04C0
07FE
3CC2
E000
44E0
0C30
1830
2000
ENDCHAR
STARTCHAR uni5178
ENCODING 20856
SWIDTH 1000 0
DWIDTH 17 0
BBX 15 14 1 -1
BITMAP
0100
0580
0FE0
1570
0FE0
0F60
0D60
0DFE
7FFE
E000
44C0
0870
1030
2020
ENDCHAR
STARTCHAR uni5179
ENCODING 20857
SWIDTH 1000 0
DWIDTH 17 0
BBX 15 14 1 -1
BITMAP
0060
0C60
04C0
05FE
3FFE
E840
0940
1A90
17B0
3DE0
2A40
0BD8
1F9C
18EC
ENDCHAR
STARTCHAR uni517B
ENCODING 20859
SWIDTH 1000 0
DWIDTH 17 0
BBX 13 16 2 -2
BITMAP
0300
2200
1400
3F00
0E00
1E00
0E00
7BE0
9380
3BC0
3AE0
5278
9220
3200
2200
4200
ENDCHAR
STARTCHAR uni517C
ENCODING 20860
SWIDTH 1000 0
DWIDTH 17 0
BBX 15 16 1 -2
BITMAP
0080
0D80
03C0
1D00
07C0
1D60
1FFE
ED40
1FC0
0900
3980
6970
2B30
0B00
0300
0100
ENDCHAR
STARTCHAR uni517D
ENCODING 20861
SWIDTH 1000 0
DWIDTH 17 0
BBX 15 16 1 -2
BITMAP
0840
04C0
0780
0FE0
1B30
0FA0
0B60
0BE0
0F60
03FC
7FFE
C380
0E60
0460
07C0
07C0
ENDCHAR
STARTCHAR uni5180
ENCODING 20864
SWIDTH 1000 0
DWIDTH 17 0
BBX 13 16 2 -2
BITMAP
0280
12C0
33A0
1B20
31E0
7F40
5F80
1580
1F00
0F80
1A00
0FF8
F008
1980
11C0
20C0
ENDCHAR
STARTCHAR uni5181
ENCODING 20865
SWIDTH 1000 0
DWIDTH 17 0
BBX 15 14 1 -1
BITMAP
08F0
6930
5920
75E0
BD60
5DF0
7D60
16FC
3F58
D2E0
14B0
14DC
188E
0800
ENDCHAR
STARTCHAR uni5182
ENCODING 20866
SWIDTH 1000 0
DWIDTH 17 0
BBX 11 14 3 -1
BITMAP
3FC0
E060
8060
8060
8060
8060
8060
8060
8060
80E0
80E0
03E0
01C0
0180
ENDCHAR
STARTCHAR uni5185
ENCODING 20869
SWIDTH 1000 0
DWIDTH 17 0
BBX 11 14 3 -1
BITMAP
0400
0600
0C00
7F80
8CE0
8C60
8860
9F60
9760
A360
C0E0
C7E0
C3C0
0180
ENDCHAR
STARTCHAR uni5188
ENCODING 20872
SWIDTH 1000 0
DWIDTH 17 0
BBX 11 14 3 -1
BITMAP
3FE0
4060
4260
4660
5460
4C60
4E60
5360
E160
C060
C060
8060
83E0
00C0
ENDCHAR
STARTCHAR uni5189
ENCODING 20873
SWIDTH 1000 0
DWIDTH 17 0
BBX 15 16 1 -2
BITMAP
0100
0100
07C0
0B30
0B30
17B0
1730
1330
1FFE
7E36
D030
1030
1030
10F0
0060
0040
ENDCHAR
STARTCHAR uni518C
ENCODING 20876
SWIDTH 1000 0
DWIDTH 17 0
BBX 15 12 1 0
BITMAP
1EF0
1490
1490
14FC
7FFE
E490
2590
2510
2D18
4618
8058
0030
ENDCHAR
STARTCHAR uni518D
ENCODING 20877
SWIDTH 1000 0
DWIDTH 17 0
BBX 15 14 1 -1
BITMAP
1FF8
1100
07E0
0B70
0BE0
0FE0
0B7C
3FFE
E830
0830
1030
1230
11F0
00E0
ENDCHAR
STARTCHAR uni5192
ENCODING 20882
SWIDTH 1000 0
DWIDTH 17 0
BBX 9 16 4 -2
BITMAP
3800
C780
B980
E180
4300
7F00
0000
7E00
5A00
7200
5A00
7A00
5A00
7600
4E00
0400
ENDCHAR
STARTCHAR uni5195
ENCODING 20885
SWIDTH 1000 0
DWIDTH 17 0
BBX 13 16 2 -2
BITMAP
1F80
11C0
1D80
1180
1F80
1900
1F00
3200
5FC0
24C0
1F80
1A08
1A08
1218
63F8
80F8
ENDCHAR
STARTCHAR uni5196
ENCODING 20886
SWIDTH 1000 0
DWIDTH 17 0
BBX 15 6 1 3
BITMAP
03F8
7C3E
400E
C03C
C040
8000
ENDCHAR
STARTCHAR uni5197
ENCODING 20887
SWIDTH 1000 0
DWIDTH 17 0
BBX 15 14 1 -1
BITMAP
1F80
6078
6078
C040
4F80
0900
0900
1100
1100
1104
1104
21CE
40FC
0038
ENDCHAR
STARTCHAR uni5199
ENCODING 20889
SWIDTH 1000 0
DWIDTH 17 0
BBX 13 14 2 -1
BITMAP
3FE0
6030
C478
4780
0780
0C00
0F80
0CE0
0860
0F60
38E0
00C0
03C0
0180
ENDCHAR
STARTCHAR uni519B
ENCODING 20891
SWIDTH 1000 0
DWIDTH 17 0
BBX 13 16 2 -2
BITMAP
0FC0
5030
4478
4F80
5800
0A00
0B80
1F80
1200
07F0
7F10
C200
0200
0200
0200
0200
ENDCHAR
STARTCHAR uni519C
ENCODING 20892
SWIDTH 1000 0
DWIDTH 17 0
BBX 15 16 1 -2
BITMAP
0100
0100
1380
1F70
1270
1200
0730
05C0
0C80
1CE0
3470
653E
C51C
0600
0600
0400
ENDCHAR
STARTCHAR uni51A0
ENCODING 20896
SWIDTH 1000 0
DWIDTH 17 0
BBX 15 16 1 -2
BITMAP
0300
3CF8
2038
4228
4C40
C040
0E70
77E0
1540
15E0
3460
2762
24C4
474E
03FC
0010
ENDCHAR
STARTCHAR uni51A2
ENCODING 20898
SWIDTH 1000 0
DWIDTH 17 0
BBX 14 14 2 -1
BITMAP
5FE0
6070
C0F0
CF00
3600
08C0
3D80
5600
3700
5BC0
1BF8
673C
AE00
1C00
ENDCHAR
STARTCHAR uni51A4
ENCODING 20900
SWIDTH 1000 0
DWIDTH 17 0
BBX 13 16 2 -2
BITMAP
0F00
70F0
C8F0
D300
2400
1F80
2CC0
2F80
3D80
2C00
1D00
1588
2408
C7F8
03F8
0020
ENDCHAR
STARTCHAR uni51A5
ENCODING 20901
SWIDTH 1000 0
DWIDTH 17 0
BBX 13 14 2 -1
BITMAP
3FF0
4038
4FC0
C8C0
8EC0
09C0
0F80
0C80
0600
3FE0
2800
0CC0
1860
6060
ENDCHAR
STARTCHAR uni51AB
ENCODING 20907
SWIDTH 1000 0
DWIDTH 17 0
BBX 6 12 6 -1
BITMAP
30
18
18
04
04
08
10
30
E0
E0
C0
40
ENDCHAR
STARTCHAR uni51AC
ENCODING 20908
SWIDTH 1000 0
DWIDTH 17 0
BBX 15 14 1 -1
BITMAP
0600
0D00
0B80
1F00
2600
0700
09C0
30FC
463E
8200
0000
0C00
0700
0300
ENDCHAR
STARTCHAR uni51AF
ENCODING 20911
SWIDTH 1000 0
DWIDTH 17 0
BBX 14 15 2 -2
BITMAP
01C0
3260
1AC0
02C0
0AC0
12C0
27F8
E21C
C0DC
5FDC
0818
0238
01F0
00E0
0040
ENDCHAR
STARTCHAR uni51B0
ENCODING 20912
SWIDTH 1000 0
DWIDTH 17 0
BBX 15 14 1 -1
BITMAP
0180
0180
3188
3198
01B0
0FC0
1F80
25C0
4D70
C93C
D99E
3584
0300
0100
ENDCHAR
STARTCHAR uni51B1
ENCODING 20913
SWIDTH 1000 0
DWIDTH 17 0
BBX 15 12 1 0
BITMAP
23F0
1900
1880
01E0
0930
1330
3230
27E0
6440
E0C0
C7FE
1C04
ENDCHAR
STARTCHAR uni51B2
ENCODING 20914
SWIDTH 1000 0
DWIDTH 17 0
BBX 13 16 2 -2
BITMAP
0100
0180
2180
33F0
0DB8
0DB0
15F0
27A0
4180
C180
4180
0180
0180
0100
0100
0100
ENDCHAR
STARTCHAR uni51B3
ENCODING 20915
SWIDTH 1000 0
DWIDTH 17 0
BBX 15 14 1 -1
BITMAP
0180
0180
2180
37F8
11B0
0930
13FE
3F02
6300
E240
4670
0438
0818
1008
ENDCHAR
STARTCHAR uni51B5
ENCODING 20917
SWIDTH 1000 0
DWIDTH 17 0
BBX 15 12 1 0
BITMAP
07E0
6460
3440
13E0
03C0
1080
2280
6680
C682
C482
487E
107E
ENDCHAR
STARTCHAR uni51B6
ENCODING 20918
SWIDTH 1000 0
DWIDTH 17 0
BBX 13 14 2 -1
BITMAP
00C0
00C0
3180
1930
1A38
07D8
0708
1000
20F0
6338
C230
C270
41F0
01F0
ENDCHAR
STARTCHAR uni51B7
ENCODING 20919
SWIDTH 1000 0
DWIDTH 17 0
BBX 15 14 1 -1
BITMAP
0080
0180
0100
33C0
3260
0430
199E
3088
63E0
C460
C0C0
00C0
0180
0180
ENDCHAR
STARTCHAR uni51BB
ENCODING 20923
SWIDTH 1000 0
DWIDTH 17 0
BBX 13 14 2 -1
BITMAP
0100
4260
3FE0
1200
0700
1580
27E0
4F80
C980
C1A0
89B8
1D98
1380
0300
ENDCHAR
STARTCHAR uni51BC
ENCODING 20924
SWIDTH 1000 0
DWIDTH 17 0
BBX 15 16 1 -2
BITMAP
0080
02C0
03C0
26E0
35C0
08C0
10FC
2F0E
2A40
4340
C340
C240
C642
0462
083E
000C
ENDCHAR
STARTCHAR uni51BD
ENCODING 20925
SWIDTH 1000 0
DWIDTH 17 0
BBX 13 14 2 -1
BITMAP
0008
2108
3F88
3A48
0768
1568
2948
4708
C608
C408
1808
2018
0078
0030
ENDCHAR
STARTCHAR uni51C0
ENCODING 20928
SWIDTH 1000 0
DWIDTH 17 0
BBX 13 16 2 -2
BITMAP
0300
0380
4480
6900
27E0
0B68
3FF8
53C0
C7E0
8F40
8300
0300
0300
1F00
0F00
0600
ENDCHAR
STARTCHAR uni51C4
ENCODING 20932
SWIDTH 1000 0
DWIDTH 17 0
BBX 15 16 1 -2
BITMAP
0100
0100
01E0
3380
31E0
0360
03FC
1D60
23E0
6500
C3FE
DFCE
1780
01E0
0E70
0020
ENDCHAR
STARTCHAR uni51C6
ENCODING 20934
SWIDTH 1000 0
DWIDTH 17 0
BBX 15 14 1 -1
BITMAP
0180
0340
2260
34F8
0560
0AF0
1BE0
1670
27E0
6460
C4FC
47FE
0400
0600
ENDCHAR
STARTCHAR uni51C7
ENCODING 20935
SWIDTH 1000 0
DWIDTH 17 0
BBX 15 14 1 -1
BITMAP
0200
0200
2208
376E
0A46
1282
2730
2720
4E4C
DACE
72F6
0644
0600
0400
ENDCHAR
STARTCHAR uni51C9
ENCODING 20937
SWIDTH 1000 0
DWIDTH 17 0
BBX 15 16 1 -2
BITMAP
0080
00C0
00DC
33FE
1E00
01F8
0130
1130
11F0
2040
6040
E658
044C
0644
01C0
0080
ENDCHAR
STARTCHAR uni51CB
ENCODING 20939
SWIDTH 1000 0
DWIDTH 17 0
BBX 13 16 2 -2
BITMAP
00F0
07F8
3298
1C98
05D8
0C98
17F8
2418
67D8
C6D8
49D8
0818
1038
20F8
0070
0020
ENDCHAR
STARTCHAR uni51CC
ENCODING 20940
SWIDTH 1000 0
DWIDTH 17 0
BBX 15 16 1 -2
BITMAP
0080
00C0
01F0
32C0
10C0
07BC
0100
0B38
1298
2D60
71E0
E2C0
64E0
01B8
031E
0408
ENDCHAR
STARTCHAR uni51CF
ENCODING 20943
SWIDTH 1000 0
DWIDTH 17 0
BBX 15 14 1 -1
BITMAP
0120
0198
03F0
7680
3480
0FD0
18D0
2BF0
CD60
DF60
5772
359A
621E
8006
ENDCHAR
STARTCHAR uni51D1
ENCODING 20945
SWIDTH 1000 0
DWIDTH 17 0
BBX 15 15 1 -2
BITMAP
0180
0100
37E0
1120
07C0
12B8
1FF8
2E40
47A0
CD78
CFDE
1100
02E0
0460
0800
ENDCHAR
STARTCHAR uni51DB
ENCODING 20955
SWIDTH 1000 0
DWIDTH 17 0
BBX 13 16 2 -2
BITMAP
0100
0180
03F0
7400
37F0
05F0
15B0
1570
23E0
4180
C200
4FF8
1940
0570
0F30
0100
ENDCHAR
STARTCHAR uni51DD
ENCODING 20957
SWIDTH 1000 0
DWIDTH 17 0
BBX 17 14 0 -1
BITMAP
009800
05A800
231800
163000
171000
03BC00
14D800
275000
6BD800
FE5000
0EB000
079C00
090F80
100200
ENDCHAR
STARTCHAR uni51E0
ENCODING 20960
SWIDTH 1000 0
DWIDTH 17 0
BBX 15 14 1 -1
BITMAP
0600
1980
1300
1300
1300
1300
1300
3300
2300
2304
4186
40FE
807E
0018
ENDCHAR
STARTCHAR uni51E1
ENCODING 20961
SWIDTH 1000 0
DWIDTH 17 0
BBX 15 12 1 0
BITMAP
1F80
0980
1900
1900
3900
1D00
1D00
1100
1182
21C6
40FE
807C
ENDCHAR
STARTCHAR uni51E4
ENCODING 20964
SWIDTH 1000 0
DWIDTH 17 0
BBX 15 14 1 -1
BITMAP
0F80
10C0
00C0
2780
1B80
1280
1A80
3EC0
2FC0
33C2
6162
807E
003E
000E
ENDCHAR
STARTCHAR uni51EB
ENCODING 20971
SWIDTH 1000 0
DWIDTH 17 0
BBX 13 16 2 -2
BITMAP
0800
1F00
1100
3500
5700
9200
1FE0
1060
0E60
16C0
15C0
1400
2608
2308
43F8
80F8
ENDCHAR
STARTCHAR uni51ED
ENCODING 20973
SWIDTH 1000 0
DWIDTH 17 0
BBX 13 16 2 -2
BITMAP
1180
3700
2300
67F0
BB10
A300
2FC0
2000
2F00
1200
1200
1208
1208
2398
41F8
80F0
ENDCHAR
STARTCHAR uni51EF
ENCODING 20975
SWIDTH 1000 0
DWIDTH 17 0
BBX 15 16 1 -2
BITMAP
0800
1800
1A00
5E00
FE00
C0F0
1D30
2D20
0D20
7920
4120
4B22
5232
F43E
E01E
4000
ENDCHAR
STARTCHAR uni51F0
ENCODING 20976
SWIDTH 1000 0
DWIDTH 17 0
BBX 15 14 1 -1
BITMAP
0FC0
0660
0640
1F40
1BC0
1DC0
1FC0
1940
1F40
2360
2F32
627A
9F9E
000E
ENDCHAR
STARTCHAR uni51F3
ENCODING 20979
SWIDTH 1000 0
DWIDTH 17 0
BBX 15 16 1 -2
BITMAP
17F0
0D20
04C0
1DE0
0E38
17DE
2788
4480
85C0
1E30
0780
0584
0584
0CFC
087C
1000
ENDCHAR
STARTCHAR uni51F5
ENCODING 20981
SWIDTH 1000 0
DWIDTH 17 0
BBX 12 10 3 0
BITMAP
0060
C070
C060
C060
4060
40E0
CFE0
7FE0
61C0
4080
ENDCHAR
STARTCHAR uni51F6
ENCODING 20982
SWIDTH 1000 0
DWIDTH 17 0
BBX 12 12 3 -1
BITMAP
0300
0600
3600
9C30
8E30
9F30
B330
A030
9FF0
F060
8060
0060
ENDCHAR
STARTCHAR uni51F8
ENCODING 20984
SWIDTH 1000 0
DWIDTH 17 0
BBX 13 14 2 -1
BITMAP
0F80
0980
1980
1900
1B00
1BF0
7BF8
E930
4030
4030
4030
67F0
7FE0
2060
ENDCHAR
STARTCHAR uni51F9
ENCODING 20985
SWIDTH 1000 0
DWIDTH 17 0
BBX 15 12 1 0
BITMAP
0870
7C5C
484E
484C
4CCC
6F8C
6C88
6018
6198
7FF8
FFF8
6010
ENDCHAR
STARTCHAR uni51FA
ENCODING 20986
SWIDTH 1000 0
DWIDTH 17 0
BBX 10 14 4 -2
BITMAP
0800
0C00
4900
4980
FE80
F880
8800
0800
4980
5880
9AC0
FFC0
C0C0
00C0
ENDCHAR
STARTCHAR uni51FB
ENCODING 20987
SWIDTH 1000 0
DWIDTH 17 0
BBX 15 14 1 -1
BITMAP
0100
0300
03E0
0FC0
0300
0300
7FFE
E300
1320
1B30
1B30
17F0
1FF0
1030
ENDCHAR
STARTCHAR uni51FC
ENCODING 20988
SWIDTH 1000 0
DWIDTH 17 0
BBX 13 13 2 -1
BITMAP
0600
0600
0640
0E80
3F00
8F00
97D8
A658
4E18
47F8
7C70
C070
0020
ENDCHAR
STARTCHAR uni51FD
ENCODING 20989
SWIDTH 1000 0
DWIDTH 17 0
BBX 13 13 2 -1
BITMAP
0F00
0300
0280
06C0
1B80
8F18
4BD8
5AD8
7E18
47F0
7FF0
6030
0020
ENDCHAR
STARTCHAR uni51FF
ENCODING 20991
SWIDTH 1000 0
DWIDTH 17 0
BBX 13 16 2 -2
BITMAP
0100
0940
0BC0
3B80
1BF0
7FF8
8900
0E00
2F60
3460
2F60
2460
2540
3FC0
20C0
0040
ENDCHAR
STARTCHAR uni5200
ENCODING 20992
SWIDTH 1000 0
DWIDTH 17 0
BBX 13 11 1 0
BITMAP
0FF0
0198
0198
0338
0338
0638
0438
0830
1270
21E0
C0E0
ENDCHAR
STARTCHAR uni5201
ENCODING 20993
SWIDTH 1000 0
DWIDTH 17 0
BBX 11 16 3 -2
BITMAP
0200
3FC0
0060
0140
0240
0640
1C40
3840
E040
C040
0040
00C0
00C0
07C0
0180
0080
ENDCHAR
STARTCHAR uni5202
ENCODING 20994
SWIDTH 1000 0
DWIDTH 17 0
BBX 5 16 6 -2
BITMAP
18
18
18
18
98
D8
D8
D8
98
18
18
18
18
78
30
20
ENDCHAR
STARTCHAR uni5203
ENCODING 20995
SWIDTH 1000 0
DWIDTH 17 0
BBX 12 11 2 0
BITMAP
0FE0
0270
0670
3670
7460
3C60
18E0
18E0
35C0
63C0
8380
ENDCHAR
STARTCHAR uni5206
ENCODING 20998
SWIDTH 1000 0
DWIDTH 17 0
BBX 15 14 1 -1
BITMAP
0100
1180
1880
18E0
3070
603C
CFDE
84C4
0CC0
0880
1180
2180
4700
0200
ENDCHAR
STARTCHAR uni5207
ENCODING 20999
SWIDTH 1000 0
DWIDTH 17 0
BBX 13 13 2 -1
BITMAP
2000
2000
2800
7DF0
E0D8
6198
6598
7B18
7230
E630
CDF0
D8E0
3040
ENDCHAR
STARTCHAR uni5208
ENCODING 21000
SWIDTH 1000 0
DWIDTH 17 0
BBX 13 16 2 -2
BITMAP
0010
0018
0418
0418
0CB8
68D8
18D8
3C98
6C98
8618
0218
0018
0018
00D8
0030
0010
ENDCHAR
STARTCHAR uni520A
ENCODING 21002
SWIDTH 1000 0
DWIDTH 17 0
BBX 13 15 2 -1
BITMAP
0008
0008
0608
1E08
0848
0C68
0FC8
7FC8
C848
0808
0808
0808
0808
0078
0018
ENDCHAR
STARTCHAR uni520D
ENCODING 21005
SWIDTH 1000 0
DWIDTH 17 0
BBX 9 14 4 -1
BITMAP
1800
3800
3700
4200
8600
0C00
3F80
4180
0580
3D80
2180
0380
1F00
7F00
ENDCHAR
STARTCHAR uni520E
ENCODING 21006
SWIDTH 1000 0
DWIDTH 17 0
BBX 13 16 2 -2
BITMAP
0010
0018
1818
1818
3010
7C50
5350
AB70
5BD0
92D0
2610
DC10
1810
1090
0070
0020
ENDCHAR
STARTCHAR uni5211
ENCODING 21009
SWIDTH 1000 0
DWIDTH 17 0
BBX 13 14 2 -1
BITMAP
0018
0418
3E18
0458
3458
3758
FF58
F458
2408
2408
4408
4418
8078
0038
ENDCHAR
STARTCHAR uni5212
ENCODING 21010
SWIDTH 1000 0
DWIDTH 17 0
BBX 13 14 2 -1
BITMAP
0018
2810
2410
2010
3C90
54D0
18D8
1898
3098
6A18
8E18
0798
0278
0030
ENDCHAR
STARTCHAR uni5216
ENCODING 21014
SWIDTH 1000 0
DWIDTH 17 0
BBX 13 16 2 -2
BITMAP
0008
0C08
1308
1248
1248
1E58
1268
3E68
3248
2248
2208
5208
8E08
0658
0038
0010
ENDCHAR
STARTCHAR uni5217
ENCODING 21015
SWIDTH 1000 0
DWIDTH 17 0
BBX 13 16 2 -2
BITMAP
0010
0018
0218
7F18
0818
1898
1EB0
34D0
2490
5C90
8818
1818
3018
4098
8078
0010
ENDCHAR
STARTCHAR uni5218
ENCODING 21016
SWIDTH 1000 0
DWIDTH 17 0
BBX 13 16 2 -2
BITMAP
0010
1010
1810
0C10
0E10
3090
4CD0
0C90
3C98
1810
1C18
2418
C018
0078
0030
0020
ENDCHAR
STARTCHAR uni5219
ENCODING 21017
SWIDTH 1000 0
DWIDTH 17 0
BBX 13 16 2 -2
BITMAP
0010
1C10
2610
2690
3690
3E90
3ED0
5E90
5690
7690
1010
2C18
4618
8078
0030
0020
ENDCHAR
STARTCHAR uni521A
ENCODING 21018
SWIDTH 1000 0
DWIDTH 17 0
BBX 13 14 2 -1
BITMAP
0018
7E10
4210
4A90
4AB0
7AD0
5AD8
6E98
4218
4218
D618
CE18
86B8
0070
ENDCHAR
STARTCHAR uni521B
ENCODING 21019
SWIDTH 1000 0
DWIDTH 17 0
BBX 15 14 1 -1
BITMAP
0404
0F04
1984
1034
2634
4A34
D224
1624
1606
1086
1086
0F86
079C
000C
ENDCHAR
STARTCHAR uni521D
ENCODING 21021
SWIDTH 1000 0
DWIDTH 17 0
BBX 15 14 1 -1
BITMAP
0C00
0600
0200
0E00
3438
0EEE
0F66
1864
3ECC
6C8C
C90C
0A78
1C38
1810
ENDCHAR
STARTCHAR uni5220
ENCODING 21024
SWIDTH 1000 0
DWIDTH 17 0
BBX 14 14 1 -1
BITMAP
0004
0004
0984
16E4
1794
15F4
3FF4
6AB4
2694
2C84
4884
80EC
001C
001C
ENDCHAR
STARTCHAR uni5224
ENCODING 21028
SWIDTH 1000 0
DWIDTH 17 0
BBX 13 16 2 -2
BITMAP
0810
0818
0A18
2C18
0898
3F98
58D8
1FD8
F898
1018
1018
3018
2018
40D8
8030
0010
ENDCHAR
STARTCHAR uni5228
ENCODING 21032
SWIDTH 1000 0
DWIDTH 17 0
BBX 13 16 2 -2
BITMAP
0010
1818
1018
3E18
4218
5A58
AE58
7E78
7ED8
66D8
4098
4098
4198
3FD8
1F38
0010
ENDCHAR
STARTCHAR uni5229
ENCODING 21033
SWIDTH 1000 0
DWIDTH 17 0
BBX 13 16 2 -2
BITMAP
0008
0E08
0E08
3008
2908
0FC8
7C58
D868
1E68
3BC8
6808
8808
0808
1858
0838
0010
ENDCHAR
STARTCHAR uni522B
ENCODING 21035
SWIDTH 1000 0
DWIDTH 17 0
BBX 13 14 2 -1
BITMAP
0E18
3318
2618
2C98
1E58
1078
0858
3FD8
5B18
3318
3E18
6E18
4498
8078
ENDCHAR
STARTCHAR uni522D
ENCODING 21037
SWIDTH 1000 0
DWIDTH 17 0
BBX 13 16 2 -2
BITMAP
0008
0008
1E08
0C08
0C48
1B48
31E8
4E68
9C48
0C48
0A08
3F08
3018
0058
0038
0010
ENDCHAR
STARTCHAR uni522E
ENCODING 21038
SWIDTH 1000 0
DWIDTH 17 0
BBX 13 14 2 -1
BITMAP
0418
0E08
0C08
3808
0DD8
3FD8
D878
1858
3F48
2608
2608
1C18
0078
0010
ENDCHAR
STARTCHAR uni5230
ENCODING 21040
SWIDTH 1000 0
DWIDTH 17 0
BBX 13 16 2 -2
BITMAP
0010
0E18
3818
1818
3418
6EB8
7BD8
68D8
0CD8
3898
1818
1E18
7E18
C0F8
0030
0030
ENDCHAR
STARTCHAR uni5233
ENCODING 21043
SWIDTH 1000 0
DWIDTH 17 0
BBX 13 16 2 -2
BITMAP
0810
0818
1E10
3210
1010
2698
6FB8
D0D8
1ED8
7098
3818
3418
0C18
2C18
1878
0030
ENDCHAR
STARTCHAR uni5236
ENCODING 21046
SWIDTH 1000 0
DWIDTH 17 0
BBX 13 14 2 -1
BITMAP
0C08
3F08
3E08
4C48
7FC8
CC68
1F48
2948
2948
2F08
2A08
0818
0878
0838
ENDCHAR
STARTCHAR uni5237
ENCODING 21047
SWIDTH 1000 0
DWIDTH 17 0
BBX 15 16 1 -2
BITMAP
0004
0186
0F86
0186
0B02
0FA2
0C1A
1212
17D2
1A52
3AC2
2BC2
4682
8206
021E
0004
ENDCHAR
STARTCHAR uni5238
ENCODING 21048
SWIDTH 1000 0
DWIDTH 17 0
BBX 15 16 1 -2
BITMAP
0200
0340
0EC0
0700
0F80
0700
0FF8
3C80
0CC0
0B60
1EB0
24FC
C48E
0980
1380
0100
ENDCHAR
STARTCHAR uni5239
ENCODING 21049
SWIDTH 1000 0
DWIDTH 17 0
BBX 13 16 2 -2
BITMAP
0010
0410
0410
3810
1C10
2690
48B0
0FD0
38D0
5C90
1E18
2818
4818
8858
0838
0010
ENDCHAR
STARTCHAR uni523A
ENCODING 21050
SWIDTH 1000 0
DWIDTH 17 0
BBX 13 16 2 -2
BITMAP
0808
0C08
0E08
1E08
0808
1F48
6968
2F48
3B48
1E48
2B08
4908
8818
0878
0818
0010
ENDCHAR
STARTCHAR uni523B
ENCODING 21051
SWIDTH 1000 0
DWIDTH 17 0
BBX 13 16 2 -2
BITMAP
0810
0C08
0508
3F88
DA88
1468
3C48
3CC8
1EC8
3448
6C08
D308
2118
0058
0070
0020
ENDCHAR
STARTCHAR uni523D
ENCODING 21053
SWIDTH 1000 0
DWIDTH 17 0
BBX 13 16 2 -2
BITMAP
0008
0C08
0808
1B88
1188
2648
3868
47C8
B848
2B08
1308
3D88
3818
0058
0038
0010
ENDCHAR
STARTCHAR uni523F
ENCODING 21055
SWIDTH 1000 0
DWIDTH 17 0
BBX 11 16 3 -2
BITMAP
1020
1020
1420
9620
BE20
C520
B1A0
39A0
49A0
9920
3020
3020
6220
81E0
00E0
0040
ENDCHAR
STARTCHAR uni5240
ENCODING 21056
SWIDTH 1000 0
DWIDTH 17 0
BBX 11 16 3 -2
BITMAP
1000
1020
1220
9A20
FE20
C020
3D20
0920
1920
7120
4020
4820
7020
E1E0
40E0
00C0
ENDCHAR
STARTCHAR uni5241
ENCODING 21057
SWIDTH 1000 0
DWIDTH 17 0
BBX 13 16 2 -2
BITMAP
0008
0C08
1408
1408
1408
2748
2C58
4DE8
3EE8
CC48
1E08
2F08
4C08
8848
0838
0010
ENDCHAR
STARTCHAR uni5242
ENCODING 21058
SWIDTH 1000 0
DWIDTH 17 0
BBX 14 16 2 -2
BITMAP
0008
0C08
0408
1F08
6648
1C48
0C68
1BE8
33E8
7248
9208
1208
1208
222C
0018
0010
ENDCHAR
STARTCHAR uni5243
ENCODING 21059
SWIDTH 1000 0
DWIDTH 17 0
BBX 13 16 2 -2
BITMAP
0010
0618
3418
0E18
3E18
1ED8
78F8
5ED8
79D8
DB58
BB18
3E18
5418
9018
1078
0020
ENDCHAR
STARTCHAR uni524A
ENCODING 21066
SWIDTH 1000 0
DWIDTH 17 0
BBX 11 16 3 -2
BITMAP
2020
3020
3620
3E20
F820
F120
6DA0
5DA0
7D20
4D20
7C20
8C20
8C20
9C20
88E0
0060
ENDCHAR
STARTCHAR uni524C
ENCODING 21068
SWIDTH 1000 0
DWIDTH 17 0
BBX 13 16 2 -2
BITMAP
0810
0818
0E18
3818
0C98
7BD8
6ED8
6EC8
38C8
3C08
3F08
6B08
C808
0858
0838
0010
ENDCHAR
STARTCHAR uni524D
ENCODING 21069
SWIDTH 1000 0
DWIDTH 17 0
BBX 15 16 1 -2
BITMAP
0080
00C0
0980
0F7C
3FFE
E020
1E20
12A0
1EA0
12A0
1AA0
2220
2220
2E20
04E0
0040
ENDCHAR
STARTCHAR uni5250
ENCODING 21072
SWIDTH 1000 0
DWIDTH 17 0
BBX 13 14 2 -1
BITMAP
0018
3E10
2610
2490
3CD0
10D0
3CD0
D350
5F10
6718
4318
4E18
0478
0030
ENDCHAR
STARTCHAR uni5251
ENCODING 21073
SWIDTH 1000 0
DWIDTH 17 0
BBX 13 15 2 -2
BITMAP
0410
0C18
0C10
1F10
3390
2CD0
5070
89D0
1750
3258
0618
3F18
7098
0070
0010
ENDCHAR
STARTCHAR uni5254
ENCODING 21076
SWIDTH 1000 0
DWIDTH 17 0
BBX 13 16 2 -2
BITMAP
1E08
2308
3B08
2208
3E68
1468
1868
3E68
7548
BF08
5B08
B308
6618
1CB8
0878
0010
ENDCHAR
STARTCHAR uni5256
ENCODING 21078
SWIDTH 1000 0
DWIDTH 17 0
BBX 13 16 2 -2
BITMAP
1808
0C08
0F08
1608
1348
1648
0FD8
7FE8
C468
3F48
3608
3E08
1E08
1848
0038
0010
ENDCHAR
STARTCHAR uni525C
ENCODING 21084
SWIDTH 1000 0
DWIDTH 17 0
BBX 13 16 2 -2
BITMAP
0008
1808
1F08
68C8
4188
7048
6758
3D68
5548
B748
2688
2508
4E88
8668
0018
0010
ENDCHAR
STARTCHAR uni525E
ENCODING 21086
SWIDTH 1000 0
DWIDTH 17 0
BBX 13 16 2 -2
BITMAP
0808
0C08
0F08
1808
1618
13A8
2FE8
72C8
DAC8
2A88
3A08
3208
2208
1E58
0438
0010
ENDCHAR
STARTCHAR uni5261
ENCODING 21089
SWIDTH 1000 0
DWIDTH 17 0
BBX 13 16 2 -2
BITMAP
0808
0A08
0E08
7808
1C08
36D8
4278
9AC8
1EC8
5808
7808
1C08
2608
4258
8038
0010
ENDCHAR
STARTCHAR uni5265
ENCODING 21093
SWIDTH 1000 0
DWIDTH 17 0
BBX 13 16 2 -2
BITMAP
0008
3E08
0608
1C08
0448
3FC8
CA68
0EC8
6CC8
1C88
2F08
CA08
B808
1878
0018
0010
ENDCHAR
STARTCHAR uni5267
ENCODING 21095
SWIDTH 1000 0
DWIDTH 17 0
BBX 15 16 1 -2
BITMAP
0004
0786
0904
0B04
0F24
082C
1234
17B4
1E24
3784
2984
6B04
C704
040C
001C
0008
ENDCHAR
STARTCHAR uni5269
ENCODING 21097
SWIDTH 1000 0
DWIDTH 17 0
BBX 13 16 2 -2
BITMAP
0410
0C18
3018
0B98
3C58
EF58
6A78
3BD8
6C58
D808
3F08
6B08
8818
0878
0838
0010
ENDCHAR
STARTCHAR uni526A
ENCODING 21098
SWIDTH 1000 0
DWIDTH 17 0
BBX 11 16 3 -2
BITMAP
0100
3300
1FE0
F0E0
3180
6B80
5D80
6D00
5D00
0B00
3E00
1B00
1300
2B00
4600
8400
ENDCHAR
STARTCHAR uni526F
ENCODING 21103
SWIDTH 1000 0
DWIDTH 17 0
BBX 12 16 3 -2
BITMAP
0020
1820
7C20
0020
7C20
8D20
59A0
71A0
7DA0
A620
F630
A620
FC20
8D30
08E0
0060
ENDCHAR
STARTCHAR uni5272
ENCODING 21106
SWIDTH 1000 0
DWIDTH 17 0
BBX 13 16 2 -2
BITMAP
1000
1818
1E18
6998
8E10
BC50
9EF8
3CD8
3FD8
40D8
3F18
2618
2E18
3C98
0078
0010
ENDCHAR
STARTCHAR uni527D
ENCODING 21117
SWIDTH 1000 0
DWIDTH 17 0
BBX 13 16 2 -2
BITMAP
0010
3C18
6818
7F18
9998
5BF8
76D8
3AD8
2E98
3890
CE10
4B10
4810
58F0
1030
0020
ENDCHAR
STARTCHAR uni527F
ENCODING 21119
SWIDTH 1000 0
DWIDTH 17 0
BBX 13 16 2 -2
BITMAP
0508
1508
2A08
2B08
6548
3F48
3568
1F68
1E58
0458
3F88
E608
3D08
2C18
0838
0010
ENDCHAR
STARTCHAR uni5281
ENCODING 21121
SWIDTH 1000 0
DWIDTH 17 0
BBX 13 16 2 -2
BITMAP
0008
1808
1608
2708
2A48
7F58
B368
AE68
2248
3F08
2008
2308
1A88
6008
4038
0018
ENDCHAR
STARTCHAR uni5282
ENCODING 21122
SWIDTH 1000 0
DWIDTH 17 0
BBX 15 16 1 -2
BITMAP
0006
0706
0686
01C6
1B86
1FF6
1DB6
15DE
2F96
2D96
3D46
4666
4806
803E
000C
000C
ENDCHAR
STARTCHAR uni5288
ENCODING 21128
SWIDTH 1000 0
DWIDTH 17 0
BBX 13 16 2 -2
BITMAP
0040
0778
0B90
1EF0
10F8
1E38
13E0
3E20
4860
83E0
0130
0220
0660
0DE0
10C0
2000
ENDCHAR
STARTCHAR uni5290
ENCODING 21136
SWIDTH 1000 0
DWIDTH 17 0
BBX 13 16 2 -2
BITMAP
0210
2618
2718
1C18
3F18
6758
6F58
AE58
2FD8
3058
1E18
1C08
0E08
1BD8
6038
0010
ENDCHAR
STARTCHAR uni5293
ENCODING 21139
SWIDTH 1000 0
DWIDTH 17 0
BBX 13 16 2 -2
BITMAP
0800
1C18
2318
3A18
3A10
3E90
26B0
3ED0
3AD0
3E90
3F90
E410
2430
25B0
4470
0020
ENDCHAR
STARTCHAR uni529B
ENCODING 21147
SWIDTH 1000 0
DWIDTH 17 0
BBX 13 14 2 -1
BITMAP
0080
0180
0180
07C0
1BB8
0338
0338
0630
0670
0C70
0AE0
11E0
20C0
C000
ENDCHAR
STARTCHAR uni529D
ENCODING 21149
SWIDTH 1000 0
DWIDTH 17 0
BBX 15 14 1 -1
BITMAP
0010
0030
1C30
26F8
0D66
0C66
3846
1CCC
3CCC
258C
C15C
0238
0430
0800
ENDCHAR
STARTCHAR uni529E
ENCODING 21150
SWIDTH 1000 0
DWIDTH 17 0
BBX 15 14 1 -1
BITMAP
0100
0100
0100
0FC0
0370
2660
2660
6460
6C7E
18EE
10C6
25C0
C380
0300
ENDCHAR
STARTCHAR uni529F
ENCODING 21151
SWIDTH 1000 0
DWIDTH 17 0
BBX 15 14 1 -1
BITMAP
0010
0010
0030
3F30
2C78
0CA6
0C66
0F66
1CCC
708C
E18C
4178
0238
0400
ENDCHAR
STARTCHAR uni52A0
ENCODING 21152
SWIDTH 1000 0
DWIDTH 17 0
BBX 15 12 1 0
BITMAP
0400
0600
0400
1F00
2DBE
0DC6
194C
1B5C
333C
2320
4E00
8600
ENDCHAR
STARTCHAR uni52A1
ENCODING 21153
SWIDTH 1000 0
DWIDTH 17 0
BBX 15 14 1 -1
BITMAP
0600
0DC0
1980
2700
0700
0DC0
3AF8
623E
8F8C
0580
0D80
1980
3300
4300
ENDCHAR
STARTCHAR uni52A2
ENCODING 21154
SWIDTH 1000 0
DWIDTH 17 0
BBX 13 14 2 -1
BITMAP
0060
0460
FE60
10F0
31D8
3CD8
6598
4D98
89B8
BB70
1220
0600
0800
1000
ENDCHAR
STARTCHAR uni52A3
ENCODING 21155
SWIDTH 1000 0
DWIDTH 17 0
BBX 11 16 3 -2
BITMAP
0400
0600
26E0
66E0
6780
2F00
0600
0D80
1900
6FC0
8660
0CE0
08C0
17C0
6180
8000
ENDCHAR
STARTCHAR uni52A8
ENCODING 21160
SWIDTH 1000 0
DWIDTH 17 0
BBX 13 14 2 -1
BITMAP
0020
3860
0060
1E40
E1F8
B0D8
2CD8
4D98
F5B8
6330
02F0
0460
0800
1000
ENDCHAR
STARTCHAR uni52A9
ENCODING 21161
SWIDTH 1000 0
DWIDTH 17 0
BBX 15 14 1 -1
BITMAP
0018
1F18
2318
1F30
1AF8
2226
1A66
2264
27CC
3E8C
F19C
4178
0210
0400
ENDCHAR
STARTCHAR uni52AA
ENCODING 21162
SWIDTH 1000 0
DWIDTH 17 0
BBX 15 16 1 -2
BITMAP
0400
0400
0870
3EA0
D4C0
1CE0
0F3C
139E
0100
07C0
0A60
0640
04C0
0AC0
1180
2080
ENDCHAR
STARTCHAR uni52AB
ENCODING 21163
SWIDTH 1000 0
DWIDTH 17 0
BBX 15 14 1 -1
BITMAP
0800
0C00
1E10
2C10
0830
3FB0
C8FC
1866
3466
26CC
7B8C
71DC
0338
0410
ENDCHAR
STARTCHAR uni52AC
ENCODING 21164
SWIDTH 1000 0
DWIDTH 17 0
BBX 15 16 1 -2
BITMAP
0C00
0800
1010
3610
2B10
437C
BF36
4B24
3B64
236C
137C
0E98
0700
0100
0200
0400
ENDCHAR
STARTCHAR uni52AD
ENCODING 21165
SWIDTH 1000 0
DWIDTH 17 0
BBX 15 14 1 -1
BITMAP
3F10
1B10
1310
3630
36FC
4C26
8866
3F6E
47CC
26CC
3DFC
2138
0230
0400
ENDCHAR
STARTCHAR uni52B1
ENCODING 21169
SWIDTH 1000 0
DWIDTH 17 0
BBX 15 14 1 -1
BITMAP
0F00
1C10
0010
2130
3FB0
247C
2726
296E
336C
6ACC
46FC
81B8
0330
0600
ENDCHAR
STARTCHAR uni52B2
ENCODING 21170
SWIDTH 1000 0
DWIDTH 17 0
BBX 15 14 1 -1
BITMAP
0E00
1418
0C18
0C10
1F38
33FE
5E2E
9C6C
0D4C
0ECC
1CDC
7138
2210
0200
ENDCHAR
STARTCHAR uni52B3
ENCODING 21171
SWIDTH 1000 0
DWIDTH 17 0
BBX 13 16 2 -2
BITMAP
0080
1180
19C0
19C0
2B00
1FF0
6078
C238
C640
9D80
0D80
0900
1900
3F00
4600
8400
ENDCHAR
STARTCHAR uni52BE
ENCODING 21182
SWIDTH 1000 0
DWIDTH 17 0
BBX 15 16 1 -2
BITMAP
0800
0400
0410
1F90
6A10
1230
3E7C
3EA6
2B64
0A44
16CC
2BCC
5138
8310
0400
0800
ENDCHAR
STARTCHAR uni52BF
ENCODING 21183
SWIDTH 1000 0
DWIDTH 17 0
BBX 13 16 2 -2
BITMAP
1100
1100
1900
7FC0
1280
3680
D788
BC48
1638
1F80
0D80
0980
1980
3700
4200
8000
ENDCHAR
STARTCHAR uni52C3
ENCODING 21187
SWIDTH 1000 0
DWIDTH 17 0
BBX 15 16 1 -2
BITMAP
0400
0400
0E00
1C18
0F18
71D0
5F70
C4FE
4C34
1F6C
666C
064C
04FC
3D98
1D00
0A00
ENDCHAR
STARTCHAR uni52C7
ENCODING 21191
SWIDTH 1000 0
DWIDTH 17 0
BBX 9 16 4 -2
BITMAP
1F00
2300
0C00
3F80
2680
3C80
3E80
2580
2F80
0D00
3980
1980
1300
2F00
4600
8000
ENDCHAR
STARTCHAR uni52C9
ENCODING 21193
SWIDTH 1000 0
DWIDTH 17 0
BBX 15 16 1 -2
BITMAP
1000
1800
1C00
2420
0820
3F60
53F0
5E58
3098
1C90
29F2
2A62
4C02
879E
83FE
00FC
ENDCHAR
STARTCHAR uni52CB
ENCODING 21195
SWIDTH 1000 0
DWIDTH 17 0
BBX 13 15 2 -1
BITMAP
3000
4C00
4C60
4860
3860
39F0
4CD8
54D8
7498
7498
65B8
7970
4E70
8400
0800
ENDCHAR
STARTCHAR uni52D0
ENCODING 21200
SWIDTH 1000 0
DWIDTH 17 0
BBX 15 16 1 -2
BITMAP
0600
1A00
0C10
0510
3F10
24FE
0436
1C34
3F64
376C
3BCC
2FCC
79B8
8318
0600
0800
ENDCHAR
STARTCHAR uni52D2
ENCODING 21202
SWIDTH 1000 0
DWIDTH 17 0
BBX 13 16 2 -2
BITMAP
0200
2200
3700
7420
1C20
1860
3F40
4FF0
38D8
0FB0
F930
4930
0AE0
1440
0800
3000
ENDCHAR
STARTCHAR uni52D6
ENCODING 21206
SWIDTH 1000 0
DWIDTH 17 0
BBX 13 14 2 -1
BITMAP
FE00
B600
6640
5C40
7C40
51F0
64D8
54D8
6498
75B0
4DB0
7F70
6E20
5C00
ENDCHAR
STARTCHAR uni52D8
ENCODING 21208
SWIDTH 1000 0
DWIDTH 17 0
BBX 15 16 1 -2
BITMAP
0200
0100
0B00
0F80
3A10
0E10
0E10
0A78
1FF6
7426
AE26
2944
16CC
3CB8
1118
0600
ENDCHAR
STARTCHAR uni52DF
ENCODING 21215
SWIDTH 1000 0
DWIDTH 17 0
BBX 13 16 2 -2
BITMAP
1100
11C0
1A00
0F80
1D80
1300
0C00
0FE0
7D20
13C0
2EE0
4578
8B30
0B00
1600
2200
ENDCHAR
STARTCHAR uni52E4
ENCODING 21220
SWIDTH 1000 0
DWIDTH 17 0
BBX 13 16 2 -2
BITMAP
0400
4400
4E00
A860
3860
3E60
D7F0
FED8
58D8
3898
1898
3138
3FF0
C270
0460
0800
ENDCHAR
STARTCHAR uni52F0
ENCODING 21232
SWIDTH 1000 0
DWIDTH 17 0
BBX 15 14 1 -1
BITMAP
0800
0C00
1F78
0ABC
1A68
1678
2EF8
2600
3D36
37EA
3BC4
5EA6
B23C
9000
ENDCHAR
STARTCHAR uni52F9
ENCODING 21241
SWIDTH 1000 0
DWIDTH 17 0
BBX 11 16 3 -2
BITMAP
0800
0C00
1800
1000
3FC0
2060
4060
4060
80E0
00C0
00C0
00C0
01C0
0F80
0700
0200
ENDCHAR
STARTCHAR uni52FA
ENCODING 21242
SWIDTH 1000 0
DWIDTH 17 0
BBX 11 16 3 -2
BITMAP
0800
0C00
0800
1800
37E0
2060
4040
9840
1CC0
08C0
00C0
00C0
00C0
0980
0780
0300
ENDCHAR
STARTCHAR uni52FE
ENCODING 21246
SWIDTH 1000 0
DWIDTH 17 0
BBX 13 16 2 -2
BITMAP
0200
0300
0600
0C00
0BF8
1818
3618
6418
8930
1FB0
1CB0
0030
0030
01E0
00E0
0080
ENDCHAR
STARTCHAR uni52FF
ENCODING 21247
SWIDTH 1000 0
DWIDTH 17 0
BBX 11 16 3 -2
BITMAP
0800
0800
1800
1000
2780
5060
9860
2660
4C60
98C0
18C0
21C0
D180
0F00
0700
0400
ENDCHAR
STARTCHAR uni5300
ENCODING 21248
SWIDTH 1000 0
DWIDTH 17 0
BBX 10 16 3 -2
BITMAP
0800
0C00
0800
1800
2780
40C0
9840
18C0
06C0
38C0
60C0
2180
0180
1F80
0700
0200
ENDCHAR
STARTCHAR uni5305
ENCODING 21253
SWIDTH 1000 0
DWIDTH 17 0
BBX 13 16 2 -2
BITMAP
0800
0C00
1800
1F80
3080
7C80
5580
AD80
3D80
2700
2300
2008
2008
1838
1FF8
07F0
ENDCHAR
STARTCHAR uni5306
ENCODING 21254
SWIDTH 1000 0
DWIDTH 17 0
BBX 13 15 2 -2
BITMAP
0400
0600
0C00
0800
17C0
22B0
4598
8D38
1F38
2730
4870
3070
0EE0
03C0
0180
ENDCHAR
STARTCHAR uni5308
ENCODING 21256
SWIDTH 1000 0
DWIDTH 17 0
BBX 13 16 2 -2
BITMAP
0200
0600
0400
0FE0
1838
3230
6A30
86B0
2EB0
12B0
2FB0
30B0
0070
0060
03E0
00C0
ENDCHAR
STARTCHAR uni530D
ENCODING 21261
SWIDTH 1000 0
DWIDTH 17 0
BBX 13 16 2 -2
BITMAP
0200
0600
0400
0FF0
1A98
17D8
2E10
5390
9E98
1F98
1290
1290
17B0
0430
01E0
0040
ENDCHAR
STARTCHAR uni530F
ENCODING 21263
SWIDTH 1000 0
DWIDTH 17 0
BBX 15 16 1 -2
BITMAP
08C0
0880
1E80
3180
35F8
2710
5AD0
B550
1D50
71F0
3100
3D02
0D02
0986
48FE
3800
ENDCHAR
STARTCHAR uni5310
ENCODING 21264
SWIDTH 1000 0
DWIDTH 17 0
BBX 11 16 3 -2
BITMAP
0400
0E00
0C00
1BE0
3260
5E60
8E60
1660
1860
3F60
3D60
2B60
1E60
04E0
03C0
0080
ENDCHAR
STARTCHAR uni5315
ENCODING 21269
SWIDTH 1000 0
DWIDTH 17 0
BBX 11 12 3 -1
BITMAP
2000
2200
2600
2C00
3800
3000
6000
A020
2040
20E0
3FE0
1FC0
ENDCHAR
STARTCHAR uni5316
ENCODING 21270
SWIDTH 1000 0
DWIDTH 17 0
BBX 15 12 1 0
BITMAP
0580
0C90
0898
10B8
20E0
51C0
5180
9300
1102
1082
10FE
107E
ENDCHAR
STARTCHAR uni5317
ENCODING 21271
SWIDTH 1000 0
DWIDTH 17 0
BBX 15 13 1 0
BITMAP
0080
0880
0890
08B0
28A0
3AE0
0DC0
1980
3982
7B82
D882
98FE
087E
ENDCHAR
STARTCHAR uni5319
ENCODING 21273
SWIDTH 1000 0
DWIDTH 17 0
BBX 17 15 0 -2
BITMAP
0F8000
098000
0FA000
09AC00
0F2800
003000
1FE000
2AA400
0BA400
1E3C00
170000
33C000
20FF80
401F00
800000
ENDCHAR
STARTCHAR uni531A
ENCODING 21274
SWIDTH 1000 0
DWIDTH 17 0
BBX 11 14 3 -1
BITMAP
0780
3F80
5000
4000
4000
4000
4000
4000
4000
4000
4000
FFE0
FFE0
C000
ENDCHAR
STARTCHAR uni531D
ENCODING 21277
SWIDTH 1000 0
DWIDTH 17 0
BBX 11 14 3 -1
BITMAP
3F00
6000
8400
C400
DF80
D580
D580
D780
D500
C400
C400
FFE0
FFE0
C060
ENDCHAR
STARTCHAR uni5320
ENCODING 21280
SWIDTH 1000 0
DWIDTH 17 0
BBX 13 14 2 -1
BITMAP
0F80
1E80
0200
8600
4900
5BE0
4D00
4900
4900
5100
5100
4000
7FF8
F070
ENDCHAR
STARTCHAR uni5321
ENCODING 21281
SWIDTH 1000 0
DWIDTH 17 0
BBX 13 14 2 -1
BITMAP
1FC0
3800
0000
4780
4200
4300
4700
4200
4FC0
5840
4000
47F0
FFF8
6010
ENDCHAR
STARTCHAR uni5323
ENCODING 21283
SWIDTH 1000 0
DWIDTH 17 0
BBX 12 14 3 -1
BITMAP
1F80
3FC0
0000
5F80
52C0
5FC0
5780
4F80
4600
4600
4700
FFF0
FC70
4000
ENDCHAR
STARTCHAR uni5326
ENCODING 21286
SWIDTH 1000 0
DWIDTH 17 0
BBX 13 14 2 -1
BITMAP
3FC0
2800
4880
4C80
7080
57C0
5D50
5B90
5FD0
6A70
4C00
5FF0
FFF8
4000
ENDCHAR
STARTCHAR uni532A
ENCODING 21290
SWIDTH 1000 0
DWIDTH 17 0
BBX 13 14 2 -1
BITMAP
3FC0
3100
8900
49C0
5940
4900
5DC0
4900
79E0
7900
4900
CFF0
FFF8
C018
ENDCHAR
STARTCHAR uni532E
ENCODING 21294
SWIDTH 1000 0
DWIDTH 17 0
BBX 11 14 3 -1
BITMAP
3F80
0C00
1F00
5F00
54C0
7FE0
4F00
5500
DD00
DB00
D180
FFC0
E1E0
8000
ENDCHAR
STARTCHAR uni5339
ENCODING 21305
SWIDTH 1000 0
DWIDTH 17 0
BBX 11 13 4 -1
BITMAP
1F00
3100
0400
9400
D400
9400
9600
9380
A080
8000
8040
FFE0
E040
ENDCHAR
STARTCHAR uni533A
ENCODING 21306
SWIDTH 1000 0
DWIDTH 17 0
BBX 11 14 3 -1
BITMAP
3F80
7180
0200
8200
9E00
8E00
8F00
9B00
E100
C000
C000
FFE0
FFE0
C000
ENDCHAR
STARTCHAR uni533B
ENCODING 21307
SWIDTH 1000 0
DWIDTH 17 0
BBX 11 14 3 -1
BITMAP
3F80
3000
1000
9E00
B400
A780
BC80
8B00
9980
9100
8000
FFE0
E1E0
8000
ENDCHAR
STARTCHAR uni533E
ENCODING 21310
SWIDTH 1000 0
DWIDTH 17 0
BBX 13 16 2 -2
BITMAP
0FC0
3860
0200
47C0
4880
4F80
4C00
4FE0
5BA0
5FE0
5B60
68E0
4000
5FF0
F8F8
C010
ENDCHAR
STARTCHAR uni533F
ENCODING 21311
SWIDTH 1000 0
DWIDTH 17 0
BBX 11 16 3 -2
BITMAP
0200
3F00
0200
5780
9A00
8E20
BFE0
4A00
9D80
AB00
A700
4000
DFC0
FFE0
C040
8000
ENDCHAR
STARTCHAR uni5341
ENCODING 21313
SWIDTH 1000 0
DWIDTH 17 0
BBX 15 14 1 -1
BITMAP
0100
0100
0180
0100
011C
3FFE
F180
0180
0180
0100
0100
0100
0100
0100
ENDCHAR
STARTCHAR uni5343
ENCODING 21315
SWIDTH 1000 0
DWIDTH 17 0
BBX 11 14 3 -1
BITMAP
0600
0C00
3000
0400
07E0
3FE0
E400
0400
0400
0400
0400
0400
0400
0400
ENDCHAR
STARTCHAR uni5345
ENCODING 21317
SWIDTH 1000 0
DWIDTH 17 0
BBX 15 16 1 -2
BITMAP
0040
0060
0960
0960
0B60
0B7E
7FFE
FB60
1360
1360
3260
2060
4060
0060
0040
0040
ENDCHAR
STARTCHAR uni5347
ENCODING 21319
SWIDTH 1000 0
DWIDTH 17 0
BBX 13 16 2 -2
BITMAP
0180
0480
0C80
1880
2890
0BF8
1F80
F880
4880
0880
1880
1080
2080
4080
0080
0080
ENDCHAR
STARTCHAR uni5348
ENCODING 21320
SWIDTH 1000 0
DWIDTH 17 0
BBX 13 16 2 -2
BITMAP
0800
0980
1F80
3200
2300
03F8
3F10
C300
0300
0300
0300
0300
0300
0300
0200
0200
ENDCHAR
STARTCHAR uni5349
ENCODING 21321
SWIDTH 1000 0
DWIDTH 17 0
BBX 13 16 2 -2
BITMAP
0200
0200
0FC0
1200
0600
0280
09F0
3FF8
F980
1880
1080
1080
2080
4080
0180
0080
ENDCHAR
STARTCHAR uni534A
ENCODING 21322
SWIDTH 1000 0
DWIDTH 17 0
BBX 13 16 2 -2
BITMAP
0200
02C0
1BC0
1B00
07C0
1E00
0200
03F8
7F18
C200
0200
0200
0200
0200
0200
0200
ENDCHAR
STARTCHAR uni534E
ENCODING 21326
SWIDTH 1000 0
DWIDTH 17 0
BBX 11 16 3 -2
BITMAP
1200
1280
2380
6200
A400
2A20
23E0
2CC0
0C00
0FE0
FC60
CC00
0C00
0400
0400
0400
ENDCHAR
STARTCHAR uni534F
ENCODING 21327
SWIDTH 1000 0
DWIDTH 17 0
BBX 15 14 1 -1
BITMAP
1000
1080
1080
1080
3DE0
F3B0
5530
1D30
2F2E
2266
2660
2DE0
20C0
2000
ENDCHAR
STARTCHAR uni5351
ENCODING 21329
SWIDTH 1000 0
DWIDTH 17 0
BBX 15 16 1 -2
BITMAP
0200
0600
0FE0
1260
1F60
12E0
1FC0
0E00
0B7C
3F86
C300
0300
0300
0300
0200
0200
ENDCHAR
STARTCHAR uni5352
ENCODING 21330
SWIDTH 1000 0
DWIDTH 17 0
BBX 13 16 2 -2
BITMAP
0400
0600
0F80
1100
1980
19C0
2E60
4200
0600
FFF8
4200
0200
0200
0200
0200
0200
ENDCHAR
STARTCHAR uni5353
ENCODING 21331
SWIDTH 1000 0
DWIDTH 17 0
BBX 13 16 2 -2
BITMAP
0200
0300
0200
0FC0
10E0
1EC0
1380
0F80
0200
3FF8
E200
0200
0200
0200
0600
0200
ENDCHAR
STARTCHAR uni5355
ENCODING 21333
SWIDTH 1000 0
DWIDTH 17 0
BBX 15 16 1 -2
BITMAP
0080
0D80
0600
0FE0
1730
1A60
0FE0
0E40
020C
0FFE
FA00
0200
0200
0200
0200
0200
ENDCHAR
STARTCHAR uni5356
ENCODING 21334
SWIDTH 1000 0
DWIDTH 17 0
BBX 11 16 3 -2
BITMAP
0400
0400
3F00
0C00
3FE0
C2E0
1E00
0600
3600
14E0
3FE0
EC00
0B00
11C0
20C0
4040
ENDCHAR
STARTCHAR uni5357
ENCODING 21335
SWIDTH 1000 0
DWIDTH 17 0
BBX 11 16 3 -2
BITMAP
0800
0C00
0C00
3FC0
CC60
0E00
1F00
76E0
9C60
BE60
8E60
BA60
8860
8AC0
01C0
0080
ENDCHAR
STARTCHAR uni535A
ENCODING 21338
SWIDTH 1000 0
DWIDTH 17 0
BBX 13 16 2 -2
BITMAP
0100
0130
27E0
2900
33C0
F5C0
A7C0
2740
2540
21F8
2E40
3340
2240
22C0
21C0
0080
ENDCHAR
STARTCHAR uni535C
ENCODING 21340
SWIDTH 1000 0
DWIDTH 17 0
BBX 5 16 6 -2
BITMAP
80
80
80
80
80
80
B8
98
88
80
80
80
80
80
80
80
ENDCHAR
STARTCHAR uni535E
ENCODING 21342
SWIDTH 1000 0
DWIDTH 17 0
BBX 13 16 2 -2
BITMAP
0400
0600
0200
01F8
3F78
E600
0600
0600
07C0
06C0
0640
0600
0600
0600
0600
0400
ENDCHAR
STARTCHAR uni535F
ENCODING 21343
SWIDTH 1000 0
DWIDTH 17 0
BBX 13 16 2 -2
BITMAP
0180
0080
0180
0180
7980
9980
91B0
71B8
7198
4180
0180
0180
0180
0180
0100
0100
ENDCHAR
STARTCHAR uni5360
ENCODING 21344
SWIDTH 1000 0
DWIDTH 17 0
BBX 9 14 4 -1
BITMAP
1000
1800
1000
1E00
1E00
1000
1000
1A00
FF80
C380
C300
4700
7F00
7F00
ENDCHAR
STARTCHAR uni5361
ENCODING 21345
SWIDTH 1000 0
DWIDTH 17 0
BBX 13 16 2 -2
BITMAP
0600
0600
0780
0600
0600
07F8
3C08
C200
0200
0380
02C0
0640
0600
0200
0200
0400
ENDCHAR
STARTCHAR uni5362
ENCODING 21346
SWIDTH 1000 0
DWIDTH 17 0
BBX 11 16 3 -2
BITMAP
0200
0600
0780
0600
0600
0FE0
1860
09C0
0E40
1800
1000
1000
2000
6000
4000
8000
ENDCHAR
STARTCHAR uni5363
ENCODING 21347
SWIDTH 1000 0
DWIDTH 17 0
BBX 9 16 4 -2
BITMAP
1000
1800
1E00
1400
1000
7F80
8180
B980
F980
9980
F180
C180
9980
FD80
8380
0100
ENDCHAR
STARTCHAR uni5364
ENCODING 21348
SWIDTH 1000 0
DWIDTH 17 0
BBX 9 16 4 -2
BITMAP
1000
1000
1400
1E00
1000
1000
7F80
8D80
A980
9980
AD80
C180
9D80
FD80
8380
0100
ENDCHAR
STARTCHAR uni5366
ENCODING 21350
SWIDTH 1000 0
DWIDTH 17 0
BBX 13 16 2 -2
BITMAP
1080
10C0
1080
7C80
1080
3E80
E280
10B0
1898
3088
1C80
7C80
C080
0080
0080
0080
ENDCHAR
STARTCHAR uni5367
ENCODING 21351
SWIDTH 1000 0
DWIDTH 17 0
BBX 13 14 2 -1
BITMAP
00C0
3CC0
18C0
98C0
FCC0
8CF0
BCF8
D0D8
98C0
D8C0
FEC0
C0C0
0080
0080
ENDCHAR
STARTCHAR uni5369
ENCODING 21353
SWIDTH 1000 0
DWIDTH 17 0
BBX 7 15 5 -1
BITMAP
08
F6
36
36
36
36
2C
3C
3C
20
20
20
20
20
20
ENDCHAR
STARTCHAR uni536B
ENCODING 21355
SWIDTH 1000 0
DWIDTH 17 0
BBX 15 12 1 0
BITMAP
0FE0
1A70
0660
0660
06E0
07C0
07C0
0600
0600
07FC
7FFE
E000
ENDCHAR
STARTCHAR uni536E
ENCODING 21358
SWIDTH 1000 0
DWIDTH 17 0
BBX 15 14 1 -1
BITMAP
0180
0300
0400
0870
0FF0
0800
09E0
1A60
1A60
12C4
3242
2206
43FE
81FC
ENDCHAR
STARTCHAR uni536F
ENCODING 21359
SWIDTH 1000 0
DWIDTH 17 0
BBX 12 16 3 -2
BITMAP
1000
1800
2000
CBE0
CB30
4A60
4A60
5A60
BA60
F3C0
D2C0
A200
2200
4200
8200
0200
ENDCHAR
STARTCHAR uni5370
ENCODING 21360
SWIDTH 1000 0
DWIDTH 17 0
BBX 11 16 3 -2
BITMAP
1000
3000
62C0
8760
9260
F260
8260
A2C0
F3C0
8380
0200
0200
0200
0200
0200
0200
ENDCHAR
STARTCHAR uni5371
ENCODING 21361
SWIDTH 1000 0
DWIDTH 17 0
BBX 14 15 1 -2
BITMAP
0200
03C0
0480
0960
1FE0
0800
0BE0
0A60
1A60
13C0
1240
3204
23FC
41FC
8000
ENDCHAR
STARTCHAR uni5373
ENCODING 21363
SWIDTH 1000 0
DWIDTH 17 0
BBX 11 16 3 -2
BITMAP
1800
7800
1800
B9E0
D220
B320
6360
9B60
9FC0
EBC0
C300
8300
0300
0200
0200
0200
ENDCHAR
STARTCHAR uni5374
ENCODING 21364
SWIDTH 1000 0
DWIDTH 17 0
BBX 13 16 2 -2
BITMAP
0800
0800
0800
3C00
18F0
1F98
F098
1898
3498
7EF0
70B0
0080
0080
0080
0080
0080
ENDCHAR
STARTCHAR uni5375
ENCODING 21365
SWIDTH 1000 0
DWIDTH 17 0
BBX 11 16 3 -2
BITMAP
1000
3000
63E0
9A20
9A60
73E0
52E0
7260
F3E0
D2C0
E280
2200
4200
C200
0200
0200
ENDCHAR
STARTCHAR uni5377
ENCODING 21367
SWIDTH 1000 0
DWIDTH 17 0
BBX 15 16 1 -2
BITMAP
0280
06C0
1F80
0EC0
3FC0
0D00
3FF0
0980
10C0
1FE0
2938
491E
8B08
0820
04E0
07C0
ENDCHAR
STARTCHAR uni5378
ENCODING 21368
SWIDTH 1000 0
DWIDTH 17 0
BBX 13 16 2 -2
BITMAP
0800
0800
1E00
2010
29F8
1FD8
68D0
8ED0
29D0
2AF0
2CC0
38C0
20C0
0040
0040
0040
ENDCHAR
STARTCHAR uni537A
ENCODING 21370
SWIDTH 1000 0
DWIDTH 17 0
BBX 14 16 1 -2
BITMAP
0780
0980
0260
1BC0
0AC0
1270
363C
67C8
9800
0FC0
0880
0988
0808
0818
07F8
01F0
ENDCHAR
STARTCHAR uni537F
ENCODING 21375
SWIDTH 1000 0
DWIDTH 17 0
BBX 15 16 1 -2
BITMAP
1000
1800
3380
5C88
5FB6
5DB4
5F34
753C
74B8
57E8
1620
3420
2020
4020
8020
0020
ENDCHAR
STARTCHAR uni5382
ENCODING 21378
SWIDTH 1000 0
DWIDTH 17 0
BBX 13 14 2 -1
BITMAP
00F8
07F8
0A00
0400
0C00
0C00
0800
0800
1800
1000
1000
2000
6000
C000
ENDCHAR
STARTCHAR uni5384
ENCODING 21380
SWIDTH 1000 0
DWIDTH 17 0
BBX 15 14 1 -1
BITMAP
01E0
07A0
0800
0800
09F0
0A20
0A60
1AE0
1240
1202
2202
6106
41FE
8038
ENDCHAR
STARTCHAR uni5385
ENCODING 21381
SWIDTH 1000 0
DWIDTH 17 0
BBX 13 15 2 -1
BITMAP
0040
07E0
0C00
1000
0800
19F8
1640
1040
1040
1040
3040
2040
60C0
43C0
8180
ENDCHAR
STARTCHAR uni5386
ENCODING 21382
SWIDTH 1000 0
DWIDTH 17 0
BBX 13 14 2 -1
BITMAP
0FE0
0820
0000
18C0
18C0
1FF8
1398
1198
1130
3330
2230
6570
48E0
80C0
ENDCHAR
STARTCHAR uni5389
ENCODING 21385
SWIDTH 1000 0
DWIDTH 17 0
BBX 13 16 2 -2
BITMAP
0040
07E0
0620
0000
0800
08F8
1FF8
10C0
1180
11F0
3330
2630
6420
4960
80C0
0080
ENDCHAR
STARTCHAR uni538B
ENCODING 21387
SWIDTH 1000 0
DWIDTH 17 0
BBX 15 16 1 -2
BITMAP
0040
07E0
0000
0880
08C0
0880
1BF0
1880
18B8
109C
1088
27FE
2E06
4000
8000
8000
ENDCHAR
STARTCHAR uni538C
ENCODING 21388
SWIDTH 1000 0
DWIDTH 17 0
BBX 15 14 1 -1
BITMAP
0100
1F00
0080
2260
2320
23C0
2F00
2380
2780
26C0
4CE0
5078
803E
0008
ENDCHAR
STARTCHAR uni538D
ENCODING 21389
SWIDTH 1000 0
DWIDTH 17 0
BBX 13 16 2 -2
BITMAP
0380
0FC0
0400
2200
13C0
3600
3280
2580
27C0
2580
63F8
5D88
4180
8180
0180
0100
ENDCHAR
STARTCHAR uni5395
ENCODING 21397
SWIDTH 1000 0
DWIDTH 17 0
BBX 13 16 2 -2
BITMAP
0040
07E0
0000
1008
1788
15C8
15B8
17A8
37E8
2BA8
2B88
4608
8908
9028
0018
0008
ENDCHAR
STARTCHAR uni5398
ENCODING 21400
SWIDTH 1000 0
DWIDTH 17 0
BBX 15 14 1 -1
BITMAP
07F0
0200
0800
0BF8
0ACC
1BF8
1AD8
13F8
10D0
31F0
2280
2080
47FE
8C00
ENDCHAR
STARTCHAR uni539A
ENCODING 21402
SWIDTH 1000 0
DWIDTH 17 0
BBX 15 16 1 -2
BITMAP
01C0
07E0
0000
0BF0
0BB0
1AE0
1920
19E0
10C0
11FC
3E4E
2040
2040
44C0
83C0
0180
ENDCHAR
STARTCHAR uni539D
ENCODING 21405
SWIDTH 1000 0
DWIDTH 17 0
BBX 15 16 1 -2
BITMAP
0040
07E0
0440
0940
0BE0
1140
1140
17FE
19C0
3260
23E0
2220
4220
83E0
02E0
0040
ENDCHAR
STARTCHAR uni539F
ENCODING 21407
SWIDTH 1000 0
DWIDTH 17 0
BBX 14 16 1 -2
BITMAP
0060
01E0
0140
04C0
04FC
050C
05D8
04B8
09D0
0840
1A40
125C
264C
4444
81C0
0080
ENDCHAR
STARTCHAR uni53A2
ENCODING 21410
SWIDTH 1000 0
DWIDTH 17 0
BBX 15 14 1 -1
BITMAP
07F0
0400
0000
0900
193E
17C4
1764
1274
17C4
3E74
2A4C
727C
425C
8208
ENDCHAR
STARTCHAR uni53A3
ENCODING 21411
SWIDTH 1000 0
DWIDTH 17 0
BBX 15 16 1 -2
BITMAP
03E0
0480
08B0
08E0
1BA0
1140
1360
1630
2BFC
23FE
42A0
43E0
8080
0080
0080
0080
ENDCHAR
STARTCHAR uni53A5
ENCODING 21413
SWIDTH 1000 0
DWIDTH 17 0
BBX 17 14 0 -1
BITMAP
003000
07F000
089000
0A9000
0B6000
0BFC00
1D6800
1D5000
17F000
353800
233C00
424E00
448780
800000
ENDCHAR
STARTCHAR uni53A6
ENCODING 21414
SWIDTH 1000 0
DWIDTH 17 0
BBX 15 16 1 -2
BITMAP
00C0
07C0
0000
0BE0
1180
1260
1560
17E0
34E0
2FC0
29E0
4740
89C0
91F8
063E
0008
ENDCHAR
STARTCHAR uni53A8
ENCODING 21416
SWIDTH 1000 0
DWIDTH 17 0
BBX 15 14 1 -1
BITMAP
07E0
0000
130C
178C
131E
1FEC
130C
15CC
173C
348C
250C
43CC
8C38
0018
ENDCHAR
STARTCHAR uni53A9
ENCODING 21417
SWIDTH 1000 0
DWIDTH 17 0
BBX 15 14 1 -1
BITMAP
00C0
1FC0
0800
1770
19A0
3FB8
3AE0
2CF0
2A60
2B62
4CA2
591E
900E
8000
ENDCHAR
STARTCHAR uni53AE
ENCODING 21422
SWIDTH 1000 0
DWIDTH 17 0
BBX 13 16 2 -2
BITMAP
01C0
0E60
0200
1A20
1B60
3E80
2EB0
2AF8
2EB0
6AB0
7FB0
6BB0
5130
8030
0030
0020
ENDCHAR
STARTCHAR uni53B6
ENCODING 21430
SWIDTH 1000 0
DWIDTH 17 0
BBX 11 11 3 0
BITMAP
0400
0600
0600
0C00
0800
1100
31C0
63E0
FFE0
FC60
4020
ENDCHAR
STARTCHAR uni53BB
ENCODING 21435
SWIDTH 1000 0
DWIDTH 17 0
BBX 15 14 1 -1
BITMAP
0300
0300
0300
07E0
1F20
0300
03FE
1E02
E200
0680
0460
08E0
1F70
1E30
ENDCHAR
STARTCHAR uni53BF
ENCODING 21439
SWIDTH 1000 0
DWIDTH 17 0
BBX 15 14 1 -1
BITMAP
07C0
0880
0880
0E80
0880
0E80
0880
0BFE
3E82
E600
04C0
08E0
1F60
1C40
ENDCHAR
STARTCHAR uni53C1
ENCODING 21441
SWIDTH 1000 0
DWIDTH 17 0
BBX 15 16 1 -2
BITMAP
0100
0200
0480
0F40
0E60
0200
0FF8
34C0
0860
1BB0
373C
438E
8780
0040
1FE0
0800
ENDCHAR
STARTCHAR uni53C2
ENCODING 21442
SWIDTH 1000 0
DWIDTH 17 0
BBX 15 16 1 -2
BITMAP
0400
0C80
0FC0
1CC0
06F8
1D18
6A80
0BC0
1670
2D38
521E
8480
0900
0300
0600
1800
ENDCHAR
STARTCHAR uni53C8
ENCODING 21448
SWIDTH 1000 0
DWIDTH 17 0
BBX 15 12 1 0
BITMAP
07C0
08C0
0180
1980
0D80
0F00
0700
0780
0FE0
19F8
307E
C018
ENDCHAR
STARTCHAR uni53C9
ENCODING 21449
SWIDTH 1000 0
DWIDTH 17 0
BBX 15 12 1 0
BITMAP
0FC0
00C0
06C0
1B80
0D80
0700
0700
0780
0DE0
18F8
707E
801C
ENDCHAR
STARTCHAR uni53CA
ENCODING 21450
SWIDTH 1000 0
DWIDTH 17 0
BBX 15 14 1 -1
BITMAP
0180
1EC0
0180
0980
0B80
1A40
1CC0
16C0
13C0
2180
23E0
477C
9C3E
0008
ENDCHAR
STARTCHAR uni53CB
ENCODING 21451
SWIDTH 1000 0
DWIDTH 17 0
BBX 15 16 1 -2
BITMAP
0200
0600
0600
06E0
1FE0
3C00
0C00
0FC0
1EC0
1AC0
1380
2180
63E0
4678
983E
0008
ENDCHAR
STARTCHAR uni53CC
ENCODING 21452
SWIDTH 1000 0
DWIDTH 17 0
BBX 15 8 1 2
BITMAP
3DE0
0E60
0940
39C0
38C0
39E0
4E78
801E
ENDCHAR
STARTCHAR uni53CD
ENCODING 21453
SWIDTH 1000 0
DWIDTH 17 0
BBX 15 16 1 -2
BITMAP
0100
0380
0E00
0000
1000
1000
17C0
14C0
36C0
3380
3380
21C0
62F0
447C
C83E
9008
ENDCHAR
STARTCHAR uni53D1
ENCODING 21457
SWIDTH 1000 0
DWIDTH 17 0
BBX 15 16 1 -2
BITMAP
0080
0080
0998
0D18
0900
1FE0
1A00
0380
0660
0740
0DC0
19C0
1370
263C
481E
8000
ENDCHAR
STARTCHAR uni53D4
ENCODING 21460
SWIDTH 1000 0
DWIDTH 17 0
BBX 17 12 0 0
BITMAP
0C0000
0C0000
0F0000
0C1000
0BE800
3C9800
E85800
2E7000
2F3000
6C7C00
7F8F80
080700
ENDCHAR
STARTCHAR uni53D6
ENCODING 21462
SWIDTH 1000 0
DWIDTH 17 0
BBX 15 12 1 0
BITMAP
7E00
6400
2460
3DB0
2D60
3CE0
26C0
3CE0
7DB8
E61E
C408
0400
ENDCHAR
STARTCHAR uni53D7
ENCODING 21463
SWIDTH 1000 0
DWIDTH 17 0
BBX 13 16 2 -2
BITMAP
0600
0E00
1080
04C0
3780
1780
78F0
C038
9FE0
8B00
8A00
0600
0600
0F80
31E0
40F0
ENDCHAR
STARTCHAR uni53D8
ENCODING 21464
SWIDTH 1000 0
DWIDTH 17 0
BBX 13 16 2 -2
BITMAP
0C00
0400
0FC0
3200
0A40
2AC0
3B00
0A00
0F00
1300
0A00
0600
0F00
39E0
E0F8
0020
ENDCHAR
STARTCHAR uni53D9
ENCODING 21465
SWIDTH 1000 0
DWIDTH 17 0
BBX 15 14 1 -1
BITMAP
0800
1800
1600
2E00
68F0
5D20
B9E0
1CE0
78C0
5CE0
5FB0
5B1E
3C0E
1000
ENDCHAR
STARTCHAR uni53DB
ENCODING 21467
SWIDTH 1000 0
DWIDTH 17 0
BBX 15 14 1 -1
BITMAP
1040
14C0
5D80
3A00
3E00
53F0
1F20
F6E0
26E0
26C0
65F0
4E3C
981E
2000
ENDCHAR
STARTCHAR uni53DF
ENCODING 21471
SWIDTH 1000 0
DWIDTH 17 0
BBX 11 16 3 -2
BITMAP
0800
3C00
2F80
4880
6F80
6980
5F00
6900
0A00
1E00
3600
1C00
1C00
3780
63E0
80C0
ENDCHAR
STARTCHAR uni53E0
ENCODING 21472
SWIDTH 1000 0
DWIDTH 17 0
BBX 13 16 2 -2
BITMAP
0700
0A00
0600
0900
1A80
2980
1A40
3FF0
4738
C9E0
CD00
1500
0900
13E0
7FE0
6000
ENDCHAR
STARTCHAR uni53E3
ENCODING 21475
SWIDTH 1000 0
DWIDTH 17 0
BBX 12 9 3 1
BITMAP
3FE0
C0F0
40E0
41E0
41C0
6180
6FC0
7FE0
6040
ENDCHAR
STARTCHAR uni53E4
ENCODING 21476
SWIDTH 1000 0
DWIDTH 17 0
BBX 15 14 1 -1
BITMAP
0100
0300
0300
030C
7FFE
C300
0300
0600
0FF0
0860
08E0
08C0
0FE0
0420
ENDCHAR
STARTCHAR uni53E5
ENCODING 21477
SWIDTH 1000 0
DWIDTH 17 0
BBX 11 16 3 -2
BITMAP
0400
0C00
0800
1000
37E0
2060
4E60
B360
2660
3E60
1E60
1040
0040
02C0
0380
0100
ENDCHAR
STARTCHAR uni53E6
ENCODING 21478
SWIDTH 1000 0
DWIDTH 17 0
BBX 11 16 3 -2
BITMAP
0340
1CE0
10C0
0980
0B80
0F80
0200
0FC0
3660
0460
0C60
18E0
14C0
63C0
8180
0100
ENDCHAR
STARTCHAR uni53E8
ENCODING 21480
SWIDTH 1000 0
DWIDTH 17 0
BBX 15 12 1 0
BITMAP
1C00
EFFE
8C46
8CCE
58CC
7D8C
411C
4318
0738
0CF0
1060
2000
ENDCHAR
STARTCHAR uni53E9
ENCODING 21481
SWIDTH 1000 0
DWIDTH 17 0
BBX 12 14 3 -2
BITMAP
03E0
FB70
9E60
9A60
B260
F260
82E0
83C0
0280
0200
0200
0200
0200
0200
ENDCHAR
STARTCHAR uni53EA
ENCODING 21482
SWIDTH 1000 0
DWIDTH 17 0
BBX 12 12 3 -1
BITMAP
1FC0
1180
1180
1180
1F80
0800
0000
1000
30C0
2060
4030
8030
ENDCHAR
STARTCHAR uni53EB
ENCODING 21483
SWIDTH 1000 0
DWIDTH 17 0
BBX 11 16 3 -2
BITMAP
0020
0020
0120
1120
EE60
9A60
92E0
FBE0
4F60
0660
0060
0060
0060
0060
0060
0020
ENDCHAR
STARTCHAR uni53EC
ENCODING 21484
SWIDTH 1000 0
DWIDTH 17 0
BBX 13 14 2 -1
BITMAP
0FF0
0338
0630
0670
0C60
19E0
30C0
6030
8FF8
1870
0CE0
0DC0
07E0
06C0
ENDCHAR
STARTCHAR uni53ED
ENCODING 21485
SWIDTH 1000 0
DWIDTH 17 0
BBX 15 8 1 2
BITMAP
0080
78C0
9A60
9360
F630
7438
481E
100E
ENDCHAR
STARTCHAR uni53EE
ENCODING 21486
SWIDTH 1000 0
DWIDTH 17 0
BBX 15 12 1 0
BITMAP
183E
FFE2
9920
9020
F820
7020
4020
0020
0020
0060
01E0
00E0
ENDCHAR
STARTCHAR uni53EF
ENCODING 21487
SWIDTH 1000 0
DWIDTH 17 0
BBX 15 16 1 -2
BITMAP
0004
7FFE
E060
0060
1E60
2660
2460
1E60
1C40
0040
0040
0040
04C0
03C0
00C0
0080
ENDCHAR
STARTCHAR uni53F0
ENCODING 21488
SWIDTH 1000 0
DWIDTH 17 0
BBX 9 14 4 -1
BITMAP
0800
1C00
3000
2300
4780
FD80
F000
0000
3F80
6180
6180
6300
2F00
3F00
ENDCHAR
STARTCHAR uni53F1
ENCODING 21489
SWIDTH 1000 0
DWIDTH 17 0
BBX 15 14 1 -1
BITMAP
0100
0180
0198
0130
7D20
8D60
9980
9180
7B00
7504
4104
01C6
00FE
007C
ENDCHAR
STARTCHAR uni53F2
ENCODING 21490
SWIDTH 1000 0
DWIDTH 17 0
BBX 15 16 1 -2
BITMAP
0200
0200
0700
1AE0
12E0
12C0
1F80
0E00
3400
1C00
0C00
0E00
13C0
21FC
C07E
0010
ENDCHAR
STARTCHAR uni53F3
ENCODING 21491
SWIDTH 1000 0
DWIDTH 17 0
BBX 12 14 2 -1
BITMAP
0200
0300
0200
07F0
7E30
0400
0C00
0800
1FE0
1460
24C0
44C0
87E0
07E0
ENDCHAR
STARTCHAR uni53F5
ENCODING 21493
SWIDTH 1000 0
DWIDTH 17 0
BBX 11 14 3 -1
BITMAP
1F80
7000
0000
4F00
5180
5380
5600
5F00
5100
8000
8000
BFE0
F8E0
C000
ENDCHAR
STARTCHAR uni53F6
ENCODING 21494
SWIDTH 1000 0
DWIDTH 17 0
BBX 15 14 1 -1
BITMAP
0060
0060
7C60
8C7E
8FE6
9C60
7860
4060
0060
0060
0040
0040
0040
0040
ENDCHAR
STARTCHAR uni53F7
ENCODING 21495
SWIDTH 1000 0
DWIDTH 17 0
BBX 13 16 2 -2
BITMAP
0F00
1180
0980
0B00
0F00
0000
0FF8
F408
8C00
0F80
0880
0080
0180
0980
0700
0600
ENDCHAR
STARTCHAR uni53F8
ENCODING 21496
SWIDTH 1000 0
DWIDTH 17 0
BBX 11 16 3 -2
BITMAP
01C0
1E60
0060
0060
3E60
E060
8460
3E60
4E60
4C60
3C60
0060
00E0
03E0
00C0
0080
ENDCHAR
STARTCHAR uni53F9
ENCODING 21497
SWIDTH 1000 0
DWIDTH 17 0
BBX 15 10 1 1
BITMAP
01E0
3360
DE60
9B40
99C0
91C0
F9E0
4170
023C
0C1E
ENDCHAR
STARTCHAR uni53FB
ENCODING 21499
SWIDTH 1000 0
DWIDTH 17 0
BBX 15 14 1 -1
BITMAP
0020
0030
0060
7E60
8EFC
D94E
58CE
78CC
419C
011C
03F8
0678
0430
1800
ENDCHAR
STARTCHAR uni53FC
ENCODING 21500
SWIDTH 1000 0
DWIDTH 17 0
BBX 15 12 1 0
BITMAP
0800
7DFE
8C16
886C
58CC
798C
7388
4718
4218
0130
00F0
0060
ENDCHAR
STARTCHAR uni53FD
ENCODING 21501
SWIDTH 1000 0
DWIDTH 17 0
BBX 15 12 1 0
BITMAP
01E0
0130
7D60
9D60
9960
B340
FB40
C260
8662
0C32
103E
001C
ENDCHAR
STARTCHAR uni5401
ENCODING 21505
SWIDTH 1000 0
DWIDTH 17 0
BBX 15 14 1 -1
BITMAP
01F0
0080
7C60
8C60
D9FE
5E60
7860
4060
0060
0060
0060
0260
01C0
00C0
ENDCHAR
STARTCHAR uni5403
ENCODING 21507
SWIDTH 1000 0
DWIDTH 17 0
BBX 15 14 1 -1
BITMAP
0080
0080
0180
0100
3FE0
DE00
9C80
BBC0
7880
6082
4082
00C6
00FE
0018
ENDCHAR
STARTCHAR uni5404
ENCODING 21508
SWIDTH 1000 0
DWIDTH 17 0
BBX 15 14 1 -1
BITMAP
0400
0DC0
0980
1700
2700
0DC0
18F8
303E
CFEC
08E0
08C0
0980
0FC0
0440
ENDCHAR
STARTCHAR uni5406
ENCODING 21510
SWIDTH 1000 0
DWIDTH 17 0
BBX 15 12 1 0
BITMAP
0020
0068
00CC
3C8C
CD38
8BF0
5860
7868
60CC
41FE
03FE
01C6
ENDCHAR
STARTCHAR uni5408
ENCODING 21512
SWIDTH 1000 0
DWIDTH 17 0
BBX 15 14 1 -1
BITMAP
0200
0600
0600
0D00
09C0
10E0
2378
6F3E
8018
8FC0
10C0
1880
0980
0F80
ENDCHAR
STARTCHAR uni5409
ENCODING 21513
SWIDTH 1000 0
DWIDTH 17 0
BBX 11 14 3 -1
BITMAP
0400
0E00
0FE0
FFE0
8E00
0F00
1F00
0000
0F80
3180
2180
1300
1F80
1000
ENDCHAR
STARTCHAR uni540A
ENCODING 21514
SWIDTH 1000 0
DWIDTH 17 0
BBX 11 16 3 -2
BITMAP
1F00
6180
2300
2E00
1E00
0F00
7FE0
ECE0
CCC0
4CC0
4FC0
4D80
0D00
0800
0800
0800
ENDCHAR
STARTCHAR uni540C
ENCODING 21516
SWIDTH 1000 0
DWIDTH 17 0
BBX 11 14 3 -1
BITMAP
3FC0
40E0
42E0
7EE0
C060
DE60
A760
A660
9E60
9060
8060
86E0
01E0
01C0
ENDCHAR
STARTCHAR uni540D
ENCODING 21517
SWIDTH 1000 0
DWIDTH 17 0
BBX 15 15 1 -1
BITMAP
0080
00C0
00B0
0118
0230
0460
03E0
01C0
0188
03FE
078C
0D18
1918
60F8
80F8
ENDCHAR
STARTCHAR uni540E
ENCODING 21518
SWIDTH 1000 0
DWIDTH 17 0
BBX 12 15 2 -2
BITMAP
0080
01C0
0780
0800
1000
18F0
17F0
1000
1000
37F0
2430
6470
4260
83F0
0200
ENDCHAR
STARTCHAR uni540F
ENCODING 21519
SWIDTH 1000 0
DWIDTH 17 0
BBX 13 16 2 -2
BITMAP
0400
0400
0F80
7480
0780
3D80
2D00
1F00
1C00
6800
1800
1E00
2780
43F0
80F8
0020
ENDCHAR
STARTCHAR uni5410
ENCODING 21520
SWIDTH 1000 0
DWIDTH 17 0
BBX 15 12 1 0
BITMAP
00C0
00C0
00C0
78C0
8CF0
99D0
90C0
78C0
40C4
03FE
0F06
0800
ENDCHAR
STARTCHAR uni5411
ENCODING 21521
SWIDTH 1000 0
DWIDTH 17 0
BBX 11 14 3 -1
BITMAP
0C00
0C00
1800
3E00
E1C0
8060
BE60
A660
BC60
9660
8060
82E0
83C0
0180
ENDCHAR
STARTCHAR uni5412
ENCODING 21522
SWIDTH 1000 0
DWIDTH 17 0
BBX 15 14 1 -1
BITMAP
0040
00E0
1180
FB00
9D00
B170
F7F0
FD00
8100
0102
0102
01C6
00FE
003E
ENDCHAR
STARTCHAR uni5413
ENCODING 21523
SWIDTH 1000 0
DWIDTH 17 0
BBX 15 14 1 -1
BITMAP
003C
03DE
FC60
8C60
9860
7860
787C
406C
0060
0040
0040
0040
0040
0040
ENDCHAR
STARTCHAR uni5415
ENCODING 21525
SWIDTH 1000 0
DWIDTH 17 0
BBX 11 14 3 -1
BITMAP
3F80
4180
2380
2300
3F00
1000
0000
7FC0
80E0
C0E0
40C0
7FC0
7F80
2180
ENDCHAR
STARTCHAR uni5416
ENCODING 21526
SWIDTH 1000 0
DWIDTH 17 0
BBX 13 16 2 -2
BITMAP
0008
0698
0310
FDA0
9840
91C0
B040
78C0
40C0
00C0
00C0
00C0
00C0
00C0
00C0
0080
ENDCHAR
STARTCHAR uni5417
ENCODING 21527
SWIDTH 1000 0
DWIDTH 17 0
BBX 14 14 2 -1
BITMAP
0180
0260
7840
9AC0
92C0
A2C0
FBF0
F218
041C
07D8
1C18
0038
01F0
00E0
ENDCHAR
STARTCHAR uni541B
ENCODING 21531
SWIDTH 1000 0
DWIDTH 17 0
BBX 15 14 1 -1
BITMAP
03F0
0260
03FE
1FC2
02C0
07C0
0600
0400
0FF8
0C30
1A30
33F0
2100
C000
ENDCHAR
STARTCHAR uni541D
ENCODING 21533
SWIDTH 1000 0
DWIDTH 17 0
BBX 15 16 1 -2
BITMAP
0400
0600
07E0
3D30
2B80
0700
0700
1DC0
30FC
C03E
0FC0
08E0
08C0
0F80
0F80
0400
ENDCHAR
STARTCHAR uni541E
ENCODING 21534
SWIDTH 1000 0
DWIDTH 17 0
BBX 17 14 0 -1
BITMAP
038000
078000
020000
03F000
1EB000
16C000
046000
0C7000
083800
17FE00
246F80
446200
87C000
02C000
ENDCHAR
STARTCHAR uni541F
ENCODING 21535
SWIDTH 1000 0
DWIDTH 17 0
BBX 15 14 1 -1
BITMAP
0080
0080
0180
0140
FA70
9D38
98DE
F084
C1E0
8260
0060
0040
00C0
0080
ENDCHAR
STARTCHAR uni5420
ENCODING 21536
SWIDTH 1000 0
DWIDTH 17 0
BBX 15 14 1 -1
BITMAP
0080
0080
00B0
7D90
9980
9BF8
B580
F180
F3C0
83E0
0670
0C3C
181E
200C
ENDCHAR
STARTCHAR uni5421
ENCODING 21537
SWIDTH 1000 0
DWIDTH 17 0
BBX 15 12 1 0
BITMAP
0040
0040
0048
F858
B770
A460
F5C0
E642
8E42
0C7E
007E
001C
ENDCHAR
STARTCHAR uni5423
ENCODING 21539
SWIDTH 1000 0
DWIDTH 17 0
BBX 15 8 1 2
BITMAP
78C0
98C4
9806
9A12
B508
FD8C
84FC
007C
ENDCHAR
STARTCHAR uni5426
ENCODING 21542
SWIDTH 1000 0
DWIDTH 17 0
BBX 11 14 3 -1
BITMAP
0FE0
F420
0E00
0C00
0C00
1DC0
2C60
CC20
0F80
31C0
2380
3700
1F00
1000
ENDCHAR
STARTCHAR uni5427
ENCODING 21543
SWIDTH 1000 0
DWIDTH 17 0
BBX 15 12 1 0
BITMAP
01F0
1BB0
EF20
9B60
95C0
F600
C400
4402
0402
0206
03FE
00FE
ENDCHAR
STARTCHAR uni5428
ENCODING 21544
SWIDTH 1000 0
DWIDTH 17 0
BBX 15 14 1 -1
BITMAP
0080
00C0
01E0
7A80
9CA0
9AB0
B4F0
F7F0
8482
0182
0082
00C6
00FE
007E
ENDCHAR
STARTCHAR uni5429
ENCODING 21545
SWIDTH 1000 0
DWIDTH 17 0
BBX 15 14 1 -1
BITMAP
0080
0040
6120
9A38
941E
B804
F3E0
81B0
8130
0220
0620
0D60
10C0
0080
ENDCHAR
STARTCHAR uni542B
ENCODING 21547
SWIDTH 1000 0
DWIDTH 17 0
BBX 15 16 1 -2
BITMAP
0200
0300
0600
0D80
1CC0
3270
63BC
8DCE
0180
0300
03C0
0C60
08C0
0980
0780
0400
ENDCHAR
STARTCHAR uni542C
ENCODING 21548
SWIDTH 1000 0
DWIDTH 17 0
BBX 13 16 2 -2
BITMAP
0040
00C0
0100
FA00
9A40
93F8
B7C0
F6C0
84C0
04C0
0C40
1040
0040
0040
0040
0040
ENDCHAR
STARTCHAR uni542D
ENCODING 21549
SWIDTH 1000 0
DWIDTH 17 0
BBX 15 12 1 0
BITMAP
0180
01F8
0608
F8C0
9940
B240
F240
4240
0242
0262
047E
083E
ENDCHAR
STARTCHAR uni542E
ENCODING 21550
SWIDTH 1000 0
DWIDTH 17 0
BBX 15 14 1 -1
BITMAP
0080
0080
0140
0260
03B0
FA80
9A40
9240
F240
8240
0242
0442
087E
101E
ENDCHAR
STARTCHAR uni542F
ENCODING 21551
SWIDTH 1000 0
DWIDTH 17 0
BBX 13 15 2 -2
BITMAP
0300
01C0
0E60
04E0
04C0
0FC0
0C00
0800
0BF0
1E38
1430
3270
23F0
4300
8000
ENDCHAR
STARTCHAR uni5431
ENCODING 21553
SWIDTH 1000 0
DWIDTH 17 0
BBX 17 14 0 -1
BITMAP
004000
004000
004000
19F800
EC4000
486000
59F000
793000
41A000
40E000
00F800
019E00
060F80
000600
ENDCHAR
STARTCHAR uni5432
ENCODING 21554
SWIDTH 1000 0
DWIDTH 17 0
BBX 13 16 2 -2
BITMAP
0008
0388
10C8
FD88
9F98
B618
7418
4F98
0D98
0198
0198
0F18
0718
0018
0018
0010
ENDCHAR
STARTCHAR uni5434
ENCODING 21556
SWIDTH 1000 0
DWIDTH 17 0
BBX 13 16 2 -2
BITMAP
1F00
1180
1300
1700
1800
0700
1F00
0C00
0FE0
FCE0
5C00
1A00
3300
61C0
C0F8
0060
ENDCHAR
STARTCHAR uni5435
ENCODING 21557
SWIDTH 1000 0
DWIDTH 17 0
BBX 15 16 1 -2
BITMAP
0080
00C0
00C0
00D8
7ECE
8ECE
9EF6
5AF0
7030
0060
00C0
01C0
0380
0E00
1800
6000
ENDCHAR
STARTCHAR uni5438
ENCODING 21560
SWIDTH 1000 0
DWIDTH 17 0
BBX 17 12 0 0
BITMAP
00F000
013000
7D6000
CD7800
491000
593000
61B000
437000
027000
04DC00
098F00
020380
ENDCHAR
STARTCHAR uni5439
ENCODING 21561
SWIDTH 1000 0
DWIDTH 17 0
BBX 15 14 1 -1
BITMAP
0080
0080
0180
FDF8
9B18
9AA0
B480
F080
8180
01C0
0160
0238
043C
081E
ENDCHAR
STARTCHAR uni543B
ENCODING 21563
SWIDTH 1000 0
DWIDTH 17 0
BBX 14 15 2 -2
BITMAP
0080
00C0
0180
0100
FAE0
9C18
9B0C
F2CC
F4D8
8998
0318
0438
09F0
00E0
0080
ENDCHAR
STARTCHAR uni543C
ENCODING 21564
SWIDTH 1000 0
DWIDTH 17 0
BBX 15 12 1 0
BITMAP
0320
05A0
7120
9AA0
9560
B360
ED40
9944
3362
0366
0E3E
0C1C
ENDCHAR
STARTCHAR uni543E
ENCODING 21566
SWIDTH 1000 0
DWIDTH 17 0
BBX 13 14 2 -1
BITMAP
0F80
0400
0400
1F80
0D80
0900
3FF8
F008
0000
1F80
11C0
1180
1F00
0980
ENDCHAR
STARTCHAR uni5440
ENCODING 21568
SWIDTH 1000 0
DWIDTH 17 0
BBX 15 16 1 -2
BITMAP
0020
00F0
3C40
DD20
9924
B17E
7BB0
7A70
40E0
00A0
0120
0220
0C20
11E0
0060
0040
ENDCHAR
STARTCHAR uni5443
ENCODING 21571
SWIDTH 1000 0
DWIDTH 17 0
BBX 15 14 1 -1
BITMAP
0070
01F0
7D00
9D00
9BF8
9B98
9290
72B0
46F0
0480
0482
0882
10FE
203C
ENDCHAR
STARTCHAR uni5446
ENCODING 21574
SWIDTH 1000 0
DWIDTH 17 0
BBX 15 16 1 -2
BITMAP
0380
1CC0
0880
0980
0F80
0A00
03F8
3F1C
6780
06C0
0EE0
1A78
223E
4600
8200
0200
ENDCHAR
STARTCHAR uni5448
ENCODING 21576
SWIDTH 1000 0
DWIDTH 17 0
BBX 13 16 2 -2
BITMAP
0080
1FC0
21C0
1300
1780
0D00
0000
1F80
1600
0700
1F00
0600
0430
3FF8
F030
4000
ENDCHAR
STARTCHAR uni544A
ENCODING 21578
SWIDTH 1000 0
DWIDTH 17 0
BBX 15 16 1 -2
BITMAP
0100
0180
0980
0DC0
1FC0
1380
2300
0FFE
780E
C000
07E0
0870
0CC0
05C0
07C0
0400
ENDCHAR
STARTCHAR uni544B
ENCODING 21579
SWIDTH 1000 0
DWIDTH 17 0
BBX 15 14 1 -1
BITMAP
0180
0180
01E0
7BC0
9980
91F0
FF98
C180
C380
02C0
0460
0C78
303E
401E
ENDCHAR
STARTCHAR uni5450
ENCODING 21584
SWIDTH 1000 0
DWIDTH 17 0
BBX 15 12 1 0
BITMAP
0060
0060
0060
F878
8BFE
9A46
BAA6
7BB6
4304
022C
021C
0008
ENDCHAR
STARTCHAR uni5452
ENCODING 21586
SWIDTH 1000 0
DWIDTH 17 0
BBX 15 12 1 0
BITMAP
03E0
7A80
9980
93F8
BF80
F140
C140
0380
0282
0482
0C7E
107E
ENDCHAR
STARTCHAR uni5453
ENCODING 21587
SWIDTH 1000 0
DWIDTH 17 0
BBX 15 14 1 -1
BITMAP
0030
0130
0130
0338
F940
9800
9BE0
FA40
E8C0
0080
0082
00C6
007E
003C
ENDCHAR
STARTCHAR uni5454
ENCODING 21588
SWIDTH 1000 0
DWIDTH 17 0
BBX 15 14 1 -1
BITMAP
0080
0080
0080
0080
7880
9FF0
9980
B180
F1C0
4360
0330
05BC
181E
0004
ENDCHAR
STARTCHAR uni5455
ENCODING 21589
SWIDTH 1000 0
DWIDTH 17 0
BBX 15 12 1 0
BITMAP
00F8
0200
3A30
CE30
4AE0
5A70
7AF8
4398
4200
0200
03FC
030E
ENDCHAR
STARTCHAR uni5456
ENCODING 21590
SWIDTH 1000 0
DWIDTH 17 0
BBX 15 14 1 -1
BITMAP
00FC
01F8
0800
FD10
9930
9B38
9BF6
7A26
6266
4646
04CC
08CC
1138
2210
ENDCHAR
STARTCHAR uni5457
ENCODING 21591
SWIDTH 1000 0
DWIDTH 17 0
BBX 13 14 2 -1
BITMAP
03F0
0118
FE90
9AD0
9AD0
B290
FA90
C290
43F0
0130
0350
0270
0438
0818
ENDCHAR
STARTCHAR uni5458
ENCODING 21592
SWIDTH 1000 0
DWIDTH 17 0
BBX 9 16 4 -2
BITMAP
1C00
6300
2300
3E00
2000
3F00
4300
4B00
4900
5900
5100
5100
3600
6380
8180
0080
ENDCHAR
STARTCHAR uni5459
ENCODING 21593
SWIDTH 1000 0
DWIDTH 17 0
BBX 13 16 2 -2
BITMAP
0E00
11C0
11C0
1180
1F80
1400
0600
7FF0
C438
4C30
5BB0
21B0
2070
21E0
00C0
0080
ENDCHAR
STARTCHAR uni545B
ENCODING 21595
SWIDTH 1000 0
DWIDTH 17 0
BBX 17 14 0 -1
BITMAP
004000
00C000
00E000
3D3000
CD1800
4E4E00
5DB780
792200
412000
016000
010400
010400
00FC00
007C00
ENDCHAR
STARTCHAR uni545C
ENCODING 21596
SWIDTH 1000 0
DWIDTH 17 0
BBX 15 16 1 -2
BITMAP
0080
0080
01E0
7F30
8E20
5920
7960
7100
41FC
010E
01FC
0F8C
088C
0078
0030
0020
ENDCHAR
STARTCHAR uni5462
ENCODING 21602
SWIDTH 1000 0
DWIDTH 17 0
BBX 15 14 1 -1
BITMAP
01F0
0238
0230
7A60
9BF0
9A10
B2B0
F2E0
46C0
0582
0E82
08C6
107E
201C
ENDCHAR
STARTCHAR uni5464
ENCODING 21604
SWIDTH 1000 0
DWIDTH 17 0
BBX 15 14 1 -1
BITMAP
00C0
0080
0140
F320
9A38
94DE
B886
F1E0
8670
0060
0040
0180
00C0
0040
ENDCHAR
STARTCHAR uni5466
ENCODING 21606
SWIDTH 1000 0
DWIDTH 17 0
BBX 15 14 1 -1
BITMAP
0100
0108
0288
FA88
9F98
BF7E
FB96
F6F6
47E6
0F4C
04FC
0098
0100
0600
ENDCHAR
STARTCHAR uni5468
ENCODING 21608
SWIDTH 1000 0
DWIDTH 17 0
BBX 13 15 2 -1
BITMAP
0380
0C70
0130
1330
17F0
1330
1FF0
1030
17D0
1490
27D0
2018
4018
8070
0030
ENDCHAR
STARTCHAR uni5471
ENCODING 21617
SWIDTH 1000 0
DWIDTH 17 0
BBX 16 14 0 -1
BITMAP
0060
00C0
0340
7C40
9EA0
5AA0
72E0
7AF0
4770
0598
0D9C
090E
1007
6002
ENDCHAR
STARTCHAR uni5472
ENCODING 21618
SWIDTH 1000 0
DWIDTH 17 0
BBX 15 10 1 1
BITMAP
0240
0248
7258
F370
AA60
FAC0
4BC2
4C42
183E
001E
ENDCHAR
STARTCHAR uni5473
ENCODING 21619
SWIDTH 1000 0
DWIDTH 17 0
BBX 15 16 1 -2
BITMAP
0100
0180
01E0
0380
F980
B1F8
AF88
F980
43C0
0760
0D30
191C
310E
4100
0100
0100
ENDCHAR
STARTCHAR uni5475
ENCODING 21621
SWIDTH 1000 0
DWIDTH 17 0
BBX 15 14 1 -1
BITMAP
00FE
0712
F818
9890
B7D0
FD90
4390
4390
0210
0010
0010
0130
00F0
0020
ENDCHAR
STARTCHAR uni5476
ENCODING 21622
SWIDTH 1000 0
DWIDTH 17 0
BBX 15 10 1 1
BITMAP
0100
1200
FA38
B390
BD90
F570
4F20
4770
0D9C
118E
ENDCHAR
STARTCHAR uni5477
ENCODING 21623
SWIDTH 1000 0
DWIDTH 17 0
BBX 15 14 1 -1
BITMAP
01FC
7E66
CDEE
996C
595C
71F8
40C0
0040
0040
0040
0040
0040
0040
0040
ENDCHAR
STARTCHAR uni5478
ENCODING 21624
SWIDTH 1000 0
DWIDTH 17 0
BBX 15 14 1 -1
BITMAP
0030
03F0
0700
3980
D980
9180
B3B8
779C
6D88
1180
0080
01FE
3FEE
1800
ENDCHAR
STARTCHAR uni547B
ENCODING 21627
SWIDTH 1000 0
DWIDTH 17 0
BBX 13 16 2 -2
BITMAP
0080
00C0
01E0
26D8
DAF8
97D8
B2D8
73F0
40C0
00C0
0080
0080
0080
0080
0080
0080
ENDCHAR
STARTCHAR uni547C
ENCODING 21628
SWIDTH 1000 0
DWIDTH 17 0
BBX 15 16 1 -2
BITMAP
0040
00C0
0180
7698
9AB0
92E0
B09E
FFFE
4C80
00C0
00C0
00C0
0080
0580
0380
0100
ENDCHAR
STARTCHAR uni547D
ENCODING 21629
SWIDTH 1000 0
DWIDTH 17 0
BBX 15 16 1 -2
BITMAP
0200
0600
0F00
0980
10E0
2F78
403E
8FC8
3520
3560
1D60
11C0
1100
0100
0100
0100
ENDCHAR
STARTCHAR uni5480
ENCODING 21632
SWIDTH 1000 0
DWIDTH 17 0
BBX 15 12 1 0
BITMAP
01F0
7A30
9E30
9BE0
B220
F3E0
FA60
4260
0260
03FE
3FFE
1040
ENDCHAR
STARTCHAR uni5482
ENCODING 21634
SWIDTH 1000 0
DWIDTH 17 0
BBX 15 14 1 -1
BITMAP
0030
01F0
0000
3C60
DA70
DAEC
72E8
7AF8
72F0
0260
0240
03FE
078C
0200
ENDCHAR
STARTCHAR uni5484
ENCODING 21636
SWIDTH 1000 0
DWIDTH 17 0
BBX 15 14 1 -1
BITMAP
0020
0020
0060
096C
7D7E
CDC4
5900
7860
7060
4164
0166
03FE
03CC
0004
ENDCHAR
STARTCHAR uni5486
ENCODING 21638
SWIDTH 1000 0
DWIDTH 17 0
BBX 15 14 1 -1
BITMAP
0180
0100
02F0
FE30
9FB0
BDA0
F5A0
C760
84E0
0402
0402
0606
03FE
01FE
ENDCHAR
STARTCHAR uni548B
ENCODING 21643
SWIDTH 1000 0
DWIDTH 17 0
BBX 13 16 2 -2
BITMAP
0100
0100
0110
7BF8
9A80
9480
B8F0
70E0
4080
00E0
00E0
0080
0080
0080
0080
0080
ENDCHAR
STARTCHAR uni548C
ENCODING 21644
SWIDTH 1000 0
DWIDTH 17 0
BBX 15 14 1 -1
BITMAP
0300
0600
0E00
1600
0700
3C7E
6CCC
0FCC
1DD8
347C
6440
8C00
0C00
0C00
ENDCHAR
STARTCHAR uni548E
ENCODING 21646
SWIDTH 1000 0
DWIDTH 17 0
BBX 15 16 1 -2
BITMAP
0080
0080
1880
1680
24F0
58B0
1D80
3780
43F0
80FE
07BC
0FC0
08C0
0980
0FC0
0400
ENDCHAR
STARTCHAR uni548F
ENCODING 21647
SWIDTH 1000 0
DWIDTH 17 0
BBX 15 16 1 -2
BITMAP
0100
01C0
0080
1000
FB80
9C98
90B0
72E0
7FC0
07E0
0DF0
09BC
119E
2780
0300
0100
ENDCHAR
STARTCHAR uni5490
ENCODING 21648
SWIDTH 1000 0
DWIDTH 17 0
BBX 15 14 1 -1
BITMAP
0110
0198
0198
FB1E
92FA
B610
7F90
5B50
0310
0310
0318
0250
0030
0020
ENDCHAR
STARTCHAR uni5492
ENCODING 21650
SWIDTH 1000 0
DWIDTH 17 0
BBX 13 14 2 -1
BITMAP
7FC0
9CC0
7380
7BC0
6000
1E00
1600
1600
2600
2608
2608
4208
83F8
01F8
ENDCHAR
STARTCHAR uni5494
ENCODING 21652
SWIDTH 1000 0
DWIDTH 17 0
BBX 14 16 1 -2
BITMAP
0080
00C0
00E0
00C0
2080
FDFC
8F04
5880
7880
40B0
0098
0080
0080
0080
0080
0080
ENDCHAR
STARTCHAR uni5495
ENCODING 21653
SWIDTH 1000 0
DWIDTH 17 0
BBX 15 12 1 0
BITMAP
0060
0060
7C60
9FFE
9FE2
9860
F840
F1FC
411C
4118
01F8
00F8
ENDCHAR
STARTCHAR uni5496
ENCODING 21654
SWIDTH 1000 0
DWIDTH 17 0
BBX 15 14 1 -1
BITMAP
0100
0180
0100
7900
9FC0
92FE
B2E6
76EC
44DC
0F90
0900
1000
2000
4000
ENDCHAR
STARTCHAR uni5499
ENCODING 21657
SWIDTH 1000 0
DWIDTH 17 0
BBX 15 14 1 -1
BITMAP
00A0
00B0
0110
01F0
FF10
9980
93A0
F2B0
46C0
4482
0D82
0AC6
107E
001C
ENDCHAR
STARTCHAR uni549A
ENCODING 21658
SWIDTH 1000 0
DWIDTH 17 0
BBX 17 14 0 -1
BITMAP
008000
01B000
013000
036000
3CC000
CDF000
593C00
729F80
7CE600
306000
000000
00C000
00E000
006000
ENDCHAR
STARTCHAR uni549B
ENCODING 21659
SWIDTH 1000 0
DWIDTH 17 0
BBX 15 16 1 -2
BITMAP
00C0
00C0
03FC
7206
8E0C
8E00
987C
F9C8
4260
4040
0040
0040
0040
02C0
01C0
0080
ENDCHAR
STARTCHAR uni549D
ENCODING 21661
SWIDTH 1000 0
DWIDTH 17 0
BBX 15 12 1 0
BITMAP
0198
0150
7B6C
9AB8
9FF0
9910
BBBC
7BB8
4200
4000
01FE
0786
ENDCHAR
STARTCHAR uni54A3
ENCODING 21667
SWIDTH 1000 0
DWIDTH 17 0
BBX 15 14 1 -1
BITMAP
00C0
00D0
78D8
9FF0
99E0
B0FC
FF04
C160
4340
0340
0242
0242
047E
083E
ENDCHAR
STARTCHAR uni54A4
ENCODING 21668
SWIDTH 1000 0
DWIDTH 17 0
BBX 15 14 1 -1
BITMAP
0080
00C0
03B8
FA5C
9EC0
9580
B280
F1F0
4F80
0480
0082
0082
00FE
007E
ENDCHAR
STARTCHAR uni54A6
ENCODING 21670
SWIDTH 1000 0
DWIDTH 17 0
BBX 16 16 0 -2
BITMAP
0040
0040
01FC
0644
31F0
CCF0
4BE0
5AC0
7BFC
44CC
01F8
01F0
0330
061C
080F
1007
ENDCHAR
STARTCHAR uni54A7
ENCODING 21671
SWIDTH 1000 0
DWIDTH 17 0
BBX 15 14 1 -1
BITMAP
0006
01E6
0306
7C86
8D96
9AD6
B4F6
7B96
4186
0106
0206
0406
081E
000C
ENDCHAR
STARTCHAR uni54A8
ENCODING 21672
SWIDTH 1000 0
DWIDTH 17 0
BBX 13 16 2 -2
BITMAP
0200
0200
0200
67C0
3680
0A00
2300
6780
CCE0
D038
0F80
3180
1180
1180
1F80
0800
ENDCHAR
STARTCHAR uni54A9
ENCODING 21673
SWIDTH 1000 0
DWIDTH 17 0
BBX 15 16 1 -2
BITMAP
0010
0130
1060
EDF0
CA40
59F0
7940
6040
47FE
0C40
0040
0040
0040
0040
0040
0080
ENDCHAR
STARTCHAR uni54AA
ENCODING 21674
SWIDTH 1000 0
DWIDTH 17 0
BBX 15 14 1 -1
BITMAP
0180
01A0
05E0
FBC0
9BF8
BF8C
F180
43C0
0760
0930
311C
410E
0100
0100
ENDCHAR
STARTCHAR uni54AB
ENCODING 21675
SWIDTH 1000 0
DWIDTH 17 0
BBX 17 14 0 -1
BITMAP
020000
1F0000
02F000
16B000
1EE000
188000
18B000
359800
230800
23C000
20F000
407F80
401F00
800000
ENDCHAR
STARTCHAR uni54AC
ENCODING 21676
SWIDTH 1000 0
DWIDTH 17 0
BBX 15 14 1 -1
BITMAP
0100
0180
00A0
07F0
F800
9A70
B670
B640
F9C0
4180
01C0
0378
043E
080C
ENDCHAR
STARTCHAR uni54AD
ENCODING 21677
SWIDTH 1000 0
DWIDTH 17 0
BBX 15 14 1 -1
BITMAP
0060
0060
00FE
7DE0
CC60
48F8
59C0
7800
40F8
011C
0118
0130
00F8
00D0
ENDCHAR
STARTCHAR uni54AF
ENCODING 21679
SWIDTH 1000 0
DWIDTH 17 0
BBX 15 14 1 -1
BITMAP
0100
0180
03E0
02C0
FDC0
B1C0
B3E0
A63C
FC1E
93F4
2270
0260
03E0
0100
ENDCHAR
STARTCHAR uni54B1
ENCODING 21681
SWIDTH 1000 0
DWIDTH 17 0
BBX 13 14 2 -1
BITMAP
00C0
00C0
0180
03F8
7E10
DB90
DB90
5A90
7B90
4230
02F0
03F0
0270
0030
ENDCHAR
STARTCHAR uni54B3
ENCODING 21683
SWIDTH 1000 0
DWIDTH 17 0
BBX 13 14 2 -1
BITMAP
0080
00C0
03F8
0508
F960
9A40
B7C0
B2A0
F1A0
8360
0240
04A0
0918
0208
ENDCHAR
STARTCHAR uni54B4
ENCODING 21684
SWIDTH 1000 0
DWIDTH 17 0
BBX 17 14 0 -1
BITMAP
008000
008000
018000
3BF000
C90000
994000
735800
7BF000
43E000
44E000
0CB000
091C00
120F80
200000
ENDCHAR
STARTCHAR uni54B8
ENCODING 21688
SWIDTH 1000 0
DWIDTH 17 0
BBX 15 14 1 -1
BITMAP
0360
0120
07C0
0D40
0100
11A0
1EE0
30E0
3FC0
36E0
76F2
493A
821E
000E
ENDCHAR
STARTCHAR uni54BB
ENCODING 21691
SWIDTH 1000 0
DWIDTH 17 0
BBX 17 14 0 -1
BITMAP
012000
012000
032000
023800
FFE400
9A6000
526000
72B800
42BC00
032F00
022380
024000
004000
004000
ENDCHAR
STARTCHAR uni54BD
ENCODING 21693
SWIDTH 1000 0
DWIDTH 17 0
BBX 15 14 1 -1
BITMAP
03FC
000C
024C
024C
7EFC
CF4C
5AFC
7ABC
7B0C
220C
02FC
03AE
001C
000C
ENDCHAR
STARTCHAR uni54BF
ENCODING 21695
SWIDTH 1000 0
DWIDTH 17 0
BBX 15 14 1 -1
BITMAP
0100
0300
0278
0658
F4FE
9DD8
B4F0
7480
4480
0580
0500
0700
0200
0400
ENDCHAR
STARTCHAR uni54C0
ENCODING 21696
SWIDTH 1000 0
DWIDTH 17 0
BBX 15 16 1 -2
BITMAP
0200
0300
03F0
1C30
07C0
04C0
05C0
0780
0430
0D60
0D80
14E0
2770
463E
8C08
0400
ENDCHAR
STARTCHAR uni54C1
ENCODING 21697
SWIDTH 1000 0
DWIDTH 17 0
BBX 13 14 2 -1
BITMAP
1F80
11C0
11C0
1180
1F80
0800
0000
39F0
CF38
8D30
D970
79F0
79F0
4100
ENDCHAR
STARTCHAR uni54C2
ENCODING 21698
SWIDTH 1000 0
DWIDTH 17 0
BBX 15 10 1 1
BITMAP
03FC
01B0
FCE0
8CF8
8F76
9A96
7A86
4266
019C
000C
ENDCHAR
STARTCHAR uni54C4
ENCODING 21700
SWIDTH 1000 0
DWIDTH 17 0
BBX 15 14 1 -1
BITMAP
0040
0120
0160
31F0
CB60
9960
9160
71FC
4FBE
4000
0330
0638
0418
0800
ENDCHAR
STARTCHAR uni54C6
ENCODING 21702
SWIDTH 1000 0
DWIDTH 17 0
BBX 13 16 2 -2
BITMAP
0040
00C0
01B0
7230
99E0
9880
B320
BC78
40D8
01B0
02E0
0060
0080
0300
0600
1800
ENDCHAR
STARTCHAR uni54C7
ENCODING 21703
SWIDTH 1000 0
DWIDTH 17 0
BBX 15 14 1 -1
BITMAP
0040
0040
0040
09F0
FC40
9840
97FE
BC40
F840
41F0
0040
0040
00FC
0784
ENDCHAR
STARTCHAR uni54C8
ENCODING 21704
SWIDTH 1000 0
DWIDTH 17 0
BBX 15 14 1 -1
BITMAP
0080
0080
0180
11C0
FB60
9A30
94D8
BFDC
F006
43E0
0630
0260
03E0
0120
ENDCHAR
STARTCHAR uni54C9
ENCODING 21705
SWIDTH 1000 0
DWIDTH 17 0
BBX 15 16 1 -2
BITMAP
0100
0900
0900
0960
3D20
0900
1FE0
79C0
C0B0
1CE0
6CC0
2CE0
3932
323E
041E
0006
ENDCHAR
STARTCHAR uni54CC
ENCODING 21708
SWIDTH 1000 0
DWIDTH 17 0
BBX 15 14 1 -1
BITMAP
00C0
0180
0660
FCE0
9590
B598
A5F0
F540
8D60
0970
09B8
139E
230C
4300
ENDCHAR
STARTCHAR uni54CD
ENCODING 21709
SWIDTH 1000 0
DWIDTH 17 0
BBX 15 14 1 -1
BITMAP
0040
0040
00C0
0180
FFF8
8E46
8BB6
8AA6
7AE6
5A06
020C
023C
001C
0010
ENDCHAR
STARTCHAR uni54CE
ENCODING 21710
SWIDTH 1000 0
DWIDTH 17 0
BBX 17 14 0 -1
BITMAP
001000
011000
00B800
03FC00
7CA000
CC4000
586000
79B000
70E000
006000
00F000
01BC00
060F80
000600
ENDCHAR
STARTCHAR uni54CF
ENCODING 21711
SWIDTH 1000 0
DWIDTH 17 0
BBX 15 14 1 -1
BITMAP
0040
03E0
1060
FBC0
9A40
92D0
B730
44E0
45C0
04E0
0538
061E
0C0C
0400
ENDCHAR
STARTCHAR uni54D0
ENCODING 21712
SWIDTH 1000 0
DWIDTH 17 0
BBX 15 14 1 -1
BITMAP
00F8
01F0
7D00
9DF0
9920
B970
F920
E164
41F8
0300
0200
03FE
03EE
0200
ENDCHAR
STARTCHAR uni54D1
ENCODING 21713
SWIDTH 1000 0
DWIDTH 17 0
BBX 15 12 1 0
BITMAP
03F0
0220
7D60
9960
996C
9D78
F770
6360
4140
0140
0FFE
1E0E
ENDCHAR
STARTCHAR uni54D2
ENCODING 21714
SWIDTH 1000 0
DWIDTH 17 0
BBX 15 12 1 0
BITMAP
0040
00C0
04C0
02F0
F180
BC80
B4C0
F5B0
C510
4E00
1BFE
007C
ENDCHAR
STARTCHAR uni54D3
ENCODING 21715
SWIDTH 1000 0
DWIDTH 17 0
BBX 15 14 1 -1
BITMAP
0100
0160
0380
FAB0
98E0
99E4
F23C
E3FC
4740
0280
0280
0242
047E
083E
ENDCHAR
STARTCHAR uni54D4
ENCODING 21716
SWIDTH 1000 0
DWIDTH 17 0
BBX 15 16 1 -2
BITMAP
0040
0250
03F0
FA60
9AC8
B778
B63C
F080
C1FE
8FC2
1080
0080
0080
0080
0080
0080
ENDCHAR
STARTCHAR uni54D5
ENCODING 21717
SWIDTH 1000 0
DWIDTH 17 0
BBX 13 16 2 -2
BITMAP
0080
00C0
02D0
02D0
7BF8
9A18
9880
91E0
7120
4260
45C0
00C0
01C0
0300
0400
0800
ENDCHAR
STARTCHAR uni54D7
ENCODING 21719
SWIDTH 1000 0
DWIDTH 17 0
BBX 15 16 1 -2
BITMAP
00A0
01A8
0138
0230
FF20
9962
9936
F91E
C040
8040
07FE
0C40
0040
0040
0040
0040
ENDCHAR
STARTCHAR uni54D9
ENCODING 21721
SWIDTH 1000 0
DWIDTH 17 0
BBX 15 14 1 -1
BITMAP
0080
0180
0180
2240
DA60
9C38
9B9E
B00E
F7E0
8900
0240
0660
07B0
0700
ENDCHAR
STARTCHAR uni54DA
ENCODING 21722
SWIDTH 1000 0
DWIDTH 17 0
BBX 13 16 2 -2
BITMAP
00C0
0340
0240
0240
1250
FA38
9480
B880
73F8
4D80
0380
02B8
0498
1980
0180
0100
ENDCHAR
STARTCHAR uni54DC
ENCODING 21724
SWIDTH 1000 0
DWIDTH 17 0
BBX 15 16 1 -2
BITMAP
0180
0080
03F0
FE40
99C0
B180
B3E0
FE7C
935E
8240
0240
0240
0240
0440
0840
0040
ENDCHAR
STARTCHAR uni54DD
ENCODING 21725
SWIDTH 1000 0
DWIDTH 17 0
BBX 15 14 1 -1
BITMAP
0040
00C0
03BC
7A98
9FA0
9910
91B0
FBC0
8570
0938
115E
0188
0300
0100
ENDCHAR
STARTCHAR uni54DE
ENCODING 21726
SWIDTH 1000 0
DWIDTH 17 0
BBX 15 16 1 -2
BITMAP
0080
01A0
0330
7B90
9AC0
9AE0
B3C0
FCC2
69FE
4EC0
18C0
00C0
00C0
00C0
00C0
0080
ENDCHAR
STARTCHAR uni54DF
ENCODING 21727
SWIDTH 1000 0
DWIDTH 17 0
BBX 15 12 1 0
BITMAP
0098
0118
3A50
DBB8
9BA6
9946
73B6
4216
0086
030C
063C
0018
ENDCHAR
STARTCHAR uni54E5
ENCODING 21733
SWIDTH 1000 0
DWIDTH 17 0
BBX 15 16 1 -2
BITMAP
0FC0
0800
06C0
1A80
0F80
09FE
1E80
E680
1E80
14C0
1EC0
18C0
00C0
00C0
0780
0180
ENDCHAR
STARTCHAR uni54E6
ENCODING 21734
SWIDTH 1000 0
DWIDTH 17 0
BBX 16 14 1 -1
BITMAP
01C0
01B0
0290
7C80
9BE0
B6D0
BB50
E270
8E60
1A71
37B9
0E1A
0C0E
000E
ENDCHAR
STARTCHAR uni54E7
ENCODING 21735
SWIDTH 1000 0
DWIDTH 17 0
BBX 15 16 1 -2
BITMAP
0040
0040
00F0
03D0
78C0
9FFE
9520
7120
5520
0D3C
0D2E
0324
0220
0420
0820
0040
ENDCHAR
STARTCHAR uni54E8
ENCODING 21736
SWIDTH 1000 0
DWIDTH 17 0
BBX 13 16 2 -2
BITMAP
0080
00C8
00D8
3BB0
DBE0
98E0
9330
B290
F3D0
8210
03D0
0310
0210
02B0
0270
0020
ENDCHAR
STARTCHAR uni54E9
ENCODING 21737
SWIDTH 1000 0
DWIDTH 17 0
BBX 15 12 1 0
BITMAP
03F0
0498
7BF8
9AF8
92F0
B3E0
40C0
03F0
00C0
0080
07FE
0C06
ENDCHAR
STARTCHAR uni54EA
ENCODING 21738
SWIDTH 1000 0
DWIDTH 17 0
BBX 15 16 1 -2
BITMAP
0380
04DC
7AE4
9FA8
9AB8
97AC
7CA6
45A6
0DBE
0B2C
1128
2020
4020
0020
0020
0020
ENDCHAR
STARTCHAR uni54ED
ENCODING 21741
SWIDTH 1000 0
DWIDTH 17 0
BBX 13 14 2 -1
BITMAP
3FE0
2E40
2AC0
3BC0
3600
0580
0480
3FF0
CE00
0A00
1B00
31C0
20F0
C078
ENDCHAR
STARTCHAR uni54EE
ENCODING 21742
SWIDTH 1000 0
DWIDTH 17 0
BBX 15 16 1 -2
BITMAP
0080
0090
03F0
11A0
79FE
9E40
90E0
73A0
4340
4478
0BA8
3020
4060
0260
01C0
0080
ENDCHAR
STARTCHAR uni54F2
ENCODING 21746
SWIDTH 1000 0
DWIDTH 17 0
BBX 13 14 2 -1
BITMAP
08C0
0D80
3A40
1BF8
1BC0
72C0
D4C0
3840
1040
0FE0
10E0
10C0
0980
0FC0
ENDCHAR
STARTCHAR uni54F3
ENCODING 21747
SWIDTH 1000 0
DWIDTH 17 0
BBX 15 14 1 -1
BITMAP
0210
0220
3340
D790
B29E
B2F0
F6D0
CA90
9A90
3310
0E10
0210
0010
0010
ENDCHAR
STARTCHAR uni54FA
ENCODING 21754
SWIDTH 1000 0
DWIDTH 17 0
BBX 14 16 1 -2
BITMAP
0098
00C8
01FC
07FC
7CC0
CDF8
5AF8
5BF8
7AF8
43F8
02D8
02D8
0698
04D8
00B8
0090
ENDCHAR
STARTCHAR uni54FC
ENCODING 21756
SWIDTH 1000 0
DWIDTH 17 0
BBX 13 16 2 -2
BITMAP
0180
0080
03F8
0400
7FF0
9A60
59E0
7840
7BE0
0080
0040
0040
0040
0440
03C0
0180
ENDCHAR
STARTCHAR uni54FD
ENCODING 21757
SWIDTH 1000 0
DWIDTH 17 0
BBX 15 13 1 -1
BITMAP
03F0
00C0
7BB8
9BF0
B2B0
B3E0
C580
4300
0380
02E0
047C
083E
1000
ENDCHAR
STARTCHAR uni54FF
ENCODING 21759
SWIDTH 1000 0
DWIDTH 17 0
BBX 13 16 2 -2
BITMAP
0800
0800
3FF0
1720
15E0
2C80
4BF8
3C80
C380
1E80
3480
1C80
1080
0180
0780
0100
ENDCHAR
STARTCHAR uni5501
ENCODING 21761
SWIDTH 1000 0
DWIDTH 17 0
BBX 15 14 1 -1
BITMAP
00C0
0040
00FE
7F06
8C60
99F0
9820
79F0
7800
41F8
0118
0130
0170
00F0
ENDCHAR
STARTCHAR uni5506
ENCODING 21766
SWIDTH 1000 0
DWIDTH 17 0
BBX 17 14 0 -1
BITMAP
004000
009000
01F800
180000
ED9800
4D0800
5AE000
7DB000
21A000
026000
007000
00BC00
010F80
0E0600
ENDCHAR
STARTCHAR uni5507
ENCODING 21767
SWIDTH 1000 0
DWIDTH 17 0
BBX 15 16 1 -2
BITMAP
0040
0FC0
0980
0FC0
0BE0
1CB0
14E0
1560
2630
261C
43EE
8770
8460
05E0
0360
0200
ENDCHAR
STARTCHAR uni5509
ENCODING 21769
SWIDTH 1000 0
DWIDTH 17 0
BBX 15 15 1 -2
BITMAP
0080
0120
0370
7B98
9800
9110
B3F0
74C0
48FE
07C0
1880
01B0
0318
040C
0800
ENDCHAR
STARTCHAR uni550F
ENCODING 21775
SWIDTH 1000 0
DWIDTH 17 0
BBX 13 16 2 -2
BITMAP
0040
02C0
01C0
3360
DC80
9BF8
7540
73F0
0658
0950
1170
0160
0040
0040
0040
0080
ENDCHAR
STARTCHAR uni5510
ENCODING 21776
SWIDTH 1000 0
DWIDTH 17 0
BBX 13 16 2 -2
BITMAP
0400
0600
07C0
1840
1380
1760
13E8
1FF8
23C0
2FE0
2000
67E0
4860
84C0
07C0
0400
ENDCHAR
STARTCHAR uni5511
ENCODING 21777
SWIDTH 1000 0
DWIDTH 17 0
BBX 15 14 1 -1
BITMAP
0040
0040
0148
794C
9ED0
9BEC
B5C6
F9FA
63D0
00C0
00C0
00F8
0FFE
0C06
ENDCHAR
STARTCHAR uni5514
ENCODING 21780
SWIDTH 1000 0
DWIDTH 17 0
BBX 15 14 1 -1
BITMAP
01E0
0080
00F0
FBB0
9930
B160
BFFE
F800
81F0
0230
0230
0260
01F0
0120
ENDCHAR
STARTCHAR uni551B
ENCODING 21787
SWIDTH 1000 0
DWIDTH 17 0
BBX 15 14 1 -1
BITMAP
00C0
01F0
02C0
F9E0
99C0
B8FC
BF8C
F9A0
C1F0
0320
02E0
04E0
09FC
063E
ENDCHAR
STARTCHAR uni5520
ENCODING 21792
SWIDTH 1000 0
DWIDTH 17 0
BBX 15 16 1 -2
BITMAP
0020
0120
01F8
0320
FCC0
9BFC
9C4E
9448
75E0
41B0
01B0
0130
0320
04E0
0840
1000
ENDCHAR
STARTCHAR uni5522
ENCODING 21794
SWIDTH 1000 0
DWIDTH 17 0
BBX 13 16 2 -2
BITMAP
0080
00C0
0098
03B0
02C0
FDF0
8E30
9AF0
7AF0
42B0
0290
03B0
0150
0370
0438
0010
ENDCHAR
STARTCHAR uni5523
ENCODING 21795
SWIDTH 1000 0
DWIDTH 17 0
BBX 15 16 1 -2
BITMAP
0040
0040
01E0
0118
39D8
CD18
89F0
99A0
7930
4130
0164
01C2
0306
0DCE
00FE
003C
ENDCHAR
STARTCHAR uni5524
ENCODING 21796
SWIDTH 1000 0
DWIDTH 17 0
BBX 15 16 1 -2
BITMAP
00C0
0080
0170
6240
9CE0
9930
91F0
71B0
71B0
02B0
01FE
1E80
01C0
0130
0218
0418
ENDCHAR
STARTCHAR uni5527
ENCODING 21799
SWIDTH 1000 0
DWIDTH 17 0
BBX 15 16 1 -2
BITMAP
0080
03C0
00C0
7F9C
9DA6
5726
6524
44A4
07BC
0628
0C20
0020
0020
0030
0020
0020
ENDCHAR
STARTCHAR uni552A
ENCODING 21802
SWIDTH 1000 0
DWIDTH 17 0
BBX 15 16 1 -2
BITMAP
0080
01F0
0300
71E0
9B00
93F8
B660
F2B0
47F8
0C9E
0BFC
1680
0080
0080
0080
0080
ENDCHAR
STARTCHAR uni552C
ENCODING 21804
SWIDTH 1000 0
DWIDTH 17 0
BBX 15 16 1 -2
BITMAP
0080
00C0
0080
38F0
DF18
9AA0
B2E0
F350
4278
0660
04A0
0CA0
08A4
1122
211E
020E
ENDCHAR
STARTCHAR uni552E
ENCODING 21806
SWIDTH 1000 0
DWIDTH 17 0
BBX 13 16 2 -2
BITMAP
0900
0D80
1BE0
1480
2BC0
48C0
8BA0
0980
1FF8
1800
1800
07E0
0860
04C0
07C0
0200
ENDCHAR
STARTCHAR uni552F
ENCODING 21807
SWIDTH 1000 0
DWIDTH 17 0
BBX 15 16 1 -2
BITMAP
0040
00C0
00B0
01B0
7D38
8FF0
9D38
B970
7938
4178
0130
013C
01FE
0100
0300
0100
ENDCHAR
STARTCHAR uni5530
ENCODING 21808
SWIDTH 1000 0
DWIDTH 17 0
BBX 15 16 1 -2
BITMAP
0004
0186
06C6
0586
7FD6
D51E
5596
7776
7956
0D46
15C6
1106
2106
C13E
000C
0004
ENDCHAR
STARTCHAR uni5531
ENCODING 21809
SWIDTH 1000 0
DWIDTH 17 0
BBX 15 15 1 -1
BITMAP
00C0
013C
010C
01F8
7D18
8CF8
9930
58E0
7B1C
6226
43FE
020E
010C
01FC
0018
ENDCHAR
STARTCHAR uni5533
ENCODING 21811
SWIDTH 1000 0
DWIDTH 17 0
BBX 15 16 1 -2
BITMAP
0080
00C0
00F0
0130
FA30
9AE0
9BE0
F258
4260
03F8
0460
04E0
0CB0
091C
120E
2000
ENDCHAR
STARTCHAR uni5537
ENCODING 21815
SWIDTH 1000 0
DWIDTH 17 0
BBX 15 16 1 -2
BITMAP
00C0
00C0
00FE
7F02
98B0
99F8
9398
78E0
7110
01D0
0110
01D0
0110
0250
0230
0020
ENDCHAR
STARTCHAR uni553C
ENCODING 21820
SWIDTH 1000 0
DWIDTH 17 0
BBX 15 16 1 -2
BITMAP
0080
00C0
03E0
0820
FF60
99F0
B710
7180
43FE
1F60
12C0
0380
01C0
0360
1C30
0020
ENDCHAR
STARTCHAR uni553E
ENCODING 21822
SWIDTH 1000 0
DWIDTH 17 0
BBX 15 14 1 -1
BITMAP
0060
0180
0240
01FE
FE48
9A7C
B34A
7F58
43D0
01F8
03FC
00C0
00C0
03F8
ENDCHAR
STARTCHAR uni553F
ENCODING 21823
SWIDTH 1000 0
DWIDTH 17 0
BBX 15 16 1 -2
BITMAP
0080
0080
0160
7A98
9D58
92D8
B4B0
B930
62E0
444E
05E6
08D0
0A0C
098C
08FC
0010
ENDCHAR
STARTCHAR uni5541
ENCODING 21825
SWIDTH 1000 0
DWIDTH 17 0
BBX 13 16 2 -2
BITMAP
01F0
0218
0298
FBD8
9A98
B3F8
F618
C5F8
8678
05D8
0918
0808
1008
2058
0038
0010
ENDCHAR
STARTCHAR uni5543
ENCODING 21827
SWIDTH 1000 0
DWIDTH 17 0
BBX 15 16 1 -2
BITMAP
0040
0040
0170
7970
9D40
99FE
BE02
79F0
41F0
0130
01F0
02B0
0230
02B0
0270
0020
ENDCHAR
STARTCHAR uni5544
ENCODING 21828
SWIDTH 1000 0
DWIDTH 17 0
BBX 15 14 1 -1
BITMAP
03F8
0680
F910
9B30
B7E0
EB80
F7E0
CBF0
17DC
08CE
1080
0180
0780
0200
ENDCHAR
STARTCHAR uni5546
ENCODING 21830
SWIDTH 1000 0
DWIDTH 17 0
BBX 13 16 2 -2
BITMAP
0400
0630
3FF8
E180
0B00
0F80
34C0
27C0
3CC0
2FC0
33C0
2EC0
20C0
26C0
01C0
0080
ENDCHAR
STARTCHAR uni5549
ENCODING 21833
SWIDTH 1000 0
DWIDTH 17 0
BBX 17 14 0 -1
BITMAP
001000
011000
011000
791C00
9BF400
573000
77B800
66F800
0ABE00
133780
623200
023000
002000
002000
ENDCHAR
STARTCHAR uni554A
ENCODING 21834
SWIDTH 1000 0
DWIDTH 17 0
BBX 17 12 0 0
BITMAP
03C000
7D1F80
D6EC00
770C00
757C00
45AC00
077C00
044C00
040C00
040C00
0C4C00
043800
ENDCHAR
STARTCHAR uni5550
ENCODING 21840
SWIDTH 1000 0
DWIDTH 17 0
BBX 15 16 1 -2
BITMAP
00C0
00E0
00F8
0110
1990
ED20
5AAC
5C64
7860
23FE
0660
0060
0040
0040
0040
0040
ENDCHAR
STARTCHAR uni5555
ENCODING 21845
SWIDTH 1000 0
DWIDTH 17 0
BBX 13 16 2 -2
BITMAP
0080
00C0
0180
0900
FFF0
9D18
9BD8
BD18
F7F8
8B58
05D8
0658
0030
0170
00E0
0040
ENDCHAR
STARTCHAR uni5556
ENCODING 21846
SWIDTH 1000 0
DWIDTH 17 0
BBX 15 16 1 -2
BITMAP
0080
0090
00B0
02C0
7980
9970
B618
B890
70B0
47E0
05C0
0140
0360
0638
183E
0008
ENDCHAR
STARTCHAR uni555C
ENCODING 21852
SWIDTH 1000 0
DWIDTH 17 0
BBX 15 14 1 -1
BITMAP
07B0
0190
0570
F320
B3D8
B408
F870
CEB0
8260
0E60
0670
0FD8
199E
6206
ENDCHAR
STARTCHAR uni5561
ENCODING 21857
SWIDTH 1000 0
DWIDTH 17 0
BBX 15 16 1 -2
BITMAP
0020
0010
0090
18BC
EFBC
8CB0
5BBC
79B0
72B0
4F3E
0130
0130
0030
0020
0020
0020
ENDCHAR
STARTCHAR uni5564
ENCODING 21860
SWIDTH 1000 0
DWIDTH 17 0
BBX 15 16 1 -2
BITMAP
0040
00C0
01E0
3AB0
DFF0
9AB0
B1F0
71A0
4140
03FE
0C40
0040
0040
0040
0040
0040
ENDCHAR
STARTCHAR uni5565
ENCODING 21861
SWIDTH 1000 0
DWIDTH 17 0
BBX 15 16 1 -2
BITMAP
0100
0180
0180
0260
F270
94B8
B9DE
B3C4
E180
83F8
0C00
07E0
0260
02C0
03E0
0200
ENDCHAR
STARTCHAR uni5566
ENCODING 21862
SWIDTH 1000 0
DWIDTH 17 0
BBX 15 14 1 -1
BITMAP
0100
0120
79B0
9F00
917C
A388
F308
C658
8E50
3A20
13FE
0E80
0600
0200
ENDCHAR
STARTCHAR uni5567
ENCODING 21863
SWIDTH 1000 0
DWIDTH 17 0
BBX 13 16 2 -2
BITMAP
0080
01E0
0380
31C0
DB80
93F8
BC08
F3E0
C260
43E0
03E0
0760
0320
02E0
0C70
0020
ENDCHAR
STARTCHAR uni556A
ENCODING 21866
SWIDTH 1000 0
DWIDTH 17 0
BBX 15 14 1 -1
BITMAP
0100
0118
0190
FFA0
9D3C
91C6
7956
4336
0F26
1936
333E
0B04
0700
0200
ENDCHAR
STARTCHAR uni556C
ENCODING 21868
SWIDTH 1000 0
DWIDTH 17 0
BBX 13 16 2 -2
BITMAP
0200
0600
0FC0
1E40
0680
1780
0600
FFF8
8F80
34C0
2BC0
2EC0
18C0
1FC0
1180
0100
ENDCHAR
STARTCHAR uni556D
ENCODING 21869
SWIDTH 1000 0
DWIDTH 17 0
BBX 15 14 1 -1
BITMAP
0100
0118
0190
7E38
9B10
DBDE
F772
F130
43FC
0D04
0108
0138
0118
0100
ENDCHAR
STARTCHAR uni556E
ENCODING 21870
SWIDTH 1000 0
DWIDTH 17 0
BBX 15 16 1 -2
BITMAP
0080
0040
0270
3270
DAC0
9AF8
9F0E
B0C0
7080
4588
0568
0628
0418
07F8
0618
0010
ENDCHAR
STARTCHAR uni5575
ENCODING 21877
SWIDTH 1000 0
DWIDTH 17 0
BBX 17 14 0 -1
BITMAP
002000
003000
033C00
7D6800
98B000
5EA000
72F800
72D800
42F800
053000
0D7800
0E9E00
050F80
000200
ENDCHAR
STARTCHAR uni5576
ENCODING 21878
SWIDTH 1000 0
DWIDTH 17 0
BBX 15 14 1 -1
BITMAP
0100
0080
03F8
7418
9C00
B1E0
B0C0
F2E0
8380
0380
04E0
087E
101E
2000
ENDCHAR
STARTCHAR uni5577
ENCODING 21879
SWIDTH 1000 0
DWIDTH 17 0
BBX 15 14 1 -1
BITMAP
0200
0380
05DC
FFA8
9FA8
B7BC
F426
45A6
05FE
0EAC
0C20
0820
0020
0020
ENDCHAR
STARTCHAR uni5578
ENCODING 21880
SWIDTH 1000 0
DWIDTH 17 0
BBX 15 16 1 -2
BITMAP
0080
00C0
01B0
00BC
77F2
88B0
9BF8
9090
7AD8
4290
07F0
06B0
0490
0890
0090
0080
ENDCHAR
STARTCHAR uni557B
ENCODING 21883
SWIDTH 1000 0
DWIDTH 17 0
BBX 13 16 2 -2
BITMAP
0600
0380
0D00
0900
0780
7870
4338
4EC0
CA80
0A80
0300
0300
1CC0
0980
0B00
0780
ENDCHAR
STARTCHAR uni557C
ENCODING 21884
SWIDTH 1000 0
DWIDTH 17 0
BBX 15 16 1 -2
BITMAP
00C0
00C0
01F0
0020
7D60
8DF0
DA0C
7CCE
4DF0
01D0
01B0
01F0
00A0
0080
0080
0080
ENDCHAR
STARTCHAR uni557E
ENCODING 21886
SWIDTH 1000 0
DWIDTH 17 0
BBX 17 10 0 1
BITMAP
009000
019000
031400
7DD800
CF7000
5B9000
736800
454C00
098780
010000
ENDCHAR
STARTCHAR uni5580
ENCODING 21888
SWIDTH 1000 0
DWIDTH 17 0
BBX 15 14 1 -1
BITMAP
0100
01F0
0618
7DE0
9D40
B3C0
B5C0
7360
463C
1BFE
2260
02C0
01E0
0100
ENDCHAR
STARTCHAR uni5581
ENCODING 21889
SWIDTH 1000 0
DWIDTH 17 0
BBX 13 16 2 -2
BITMAP
01C0
06B0
04F0
FBB0
92B0
B3E0
B1C0
F1C0
8FF8
8908
0AF8
0FB8
0818
0858
0030
0020
ENDCHAR
STARTCHAR uni5582
ENCODING 21890
SWIDTH 1000 0
DWIDTH 17 0
BBX 15 14 1 -1
BITMAP
03F0
06B0
03B0
F3B0
9BE0
9018
B7FC
FEB0
82E0
0240
02F0
033C
061E
0400
ENDCHAR
STARTCHAR uni5583
ENCODING 21891
SWIDTH 1000 0
DWIDTH 17 0
BBX 13 16 2 -2
BITMAP
0080
0080
0080
03F8
FD80
99A0
93F8
BFD8
F9C8
8AC8
0BC8
0888
0898
0878
0030
0020
ENDCHAR
STARTCHAR uni5584
ENCODING 21892
SWIDTH 1000 0
DWIDTH 17 0
BBX 13 16 2 -2
BITMAP
0100
1180
1A00
1F80
0400
0E00
0700
1C00
07F8
7990
DB00
0A00
1DC0
1880
0F80
0800
ENDCHAR
STARTCHAR uni5587
ENCODING 21895
SWIDTH 1000 0
DWIDTH 17 0
BBX 15 14 1 -1
BITMAP
0104
0106
03C6
0106
7FF6
9976
F7DE
7316
63D6
0546
0906
1106
011E
0004
ENDCHAR
STARTCHAR uni5588
ENCODING 21896
SWIDTH 1000 0
DWIDTH 17 0
BBX 15 16 1 -2
BITMAP
0020
0228
03D8
7260
9AC2
9B3E
B67E
F0C0
71F0
4310
0110
01D0
0130
01F0
0120
0020
ENDCHAR
STARTCHAR uni5589
ENCODING 21897
SWIDTH 1000 0
DWIDTH 17 0
BBX 15 14 1 -1
BITMAP
0110
0170
0330
067E
7E82
9A40
9278
7290
437E
43B0
0220
022C
0246
0380
ENDCHAR
STARTCHAR uni558A
ENCODING 21898
SWIDTH 1000 0
DWIDTH 17 0
BBX 17 14 0 -1
BITMAP
004000
005800
004000
03F000
7C4000
9CC000
776800
742800
47F800
059000
0BB900
0A4D00
308780
410300
ENDCHAR
STARTCHAR uni558B
ENCODING 21899
SWIDTH 1000 0
DWIDTH 17 0
BBX 13 16 2 -2
BITMAP
0020
0120
00A0
02F8
07A0
FAE0
9AC0
B300
B1F0
F098
87F8
0880
04B0
0498
0480
0080
ENDCHAR
STARTCHAR uni558F
ENCODING 21903
SWIDTH 1000 0
DWIDTH 17 0
BBX 15 14 1 -1
BITMAP
0130
0138
03FC
0120
FCC0
988C
9BFE
7580
7100
03FC
0298
0498
08B8
10F8
ENDCHAR
STARTCHAR uni5591
ENCODING 21905
SWIDTH 1000 0
DWIDTH 17 0
BBX 15 16 1 -2
BITMAP
0080
00C0
00F0
0100
7D30
D9A0
9BFE
DE02
79F0
7130
41F0
0110
0150
01F0
0130
0020
ENDCHAR
STARTCHAR uni5594
ENCODING 21908
SWIDTH 1000 0
DWIDTH 17 0
BBX 15 14 1 -1
BITMAP
00F8
0130
0130
7DF0
9980
9BFC
F350
7A98
47E8
04A0
08F0
0820
107E
23FE
ENDCHAR
STARTCHAR uni5598
ENCODING 21912
SWIDTH 1000 0
DWIDTH 17 0
BBX 15 16 1 -2
BITMAP
0020
0020
0168
016C
7DFC
CF04
4A10
59F0
7840
60F8
43A6
02E4
02E4
02EC
023C
0008
ENDCHAR
STARTCHAR uni5599
ENCODING 21913
SWIDTH 1000 0
DWIDTH 17 0
BBX 15 16 1 -2
BITMAP
0080
0160
0240
7980
99F8
9780
B190
F3B8
4DE0
13E0
0DB8
029E
0C84
0480
0380
0100
ENDCHAR
STARTCHAR uni559C
ENCODING 21916
SWIDTH 1000 0
DWIDTH 17 0
BBX 15 16 1 -2
BITMAP
0200
0300
07E0
0B00
0780
03C0
0480
0780
0444
1FFE
EC80
07C0
0C60
0CC0
07C0
0400
ENDCHAR
STARTCHAR uni559D
ENCODING 21917
SWIDTH 1000 0
DWIDTH 17 0
BBX 13 16 2 -2
BITMAP
01E0
0230
1970
EDB0
8D20
99E0
FD00
FBE0
C298
46D8
0B78
1218
03D8
0330
00F0
0040
ENDCHAR
STARTCHAR uni559F
ENCODING 21919
SWIDTH 1000 0
DWIDTH 17 0
BBX 15 16 1 -2
BITMAP
00F0
034C
026E
39CC
CD58
59F8
5800
78F0
4118
41D0
0170
0198
0118
0130
0130
0010
ENDCHAR
STARTCHAR uni55A7
ENCODING 21927
SWIDTH 1000 0
DWIDTH 17 0
BBX 15 14 1 -1
BITMAP
00C0
0040
03FE
FE0E
9A68
98E0
B8E0
7118
41D8
0130
01F0
0080
03FE
0F06
ENDCHAR
STARTCHAR uni55B1
ENCODING 21937
SWIDTH 1000 0
DWIDTH 17 0
BBX 15 14 1 -1
BITMAP
01F8
7880
9E00
92FC
B36C
F2EC
86F8
06F8
0468
0DF8
0860
18FC
13FE
2000
ENDCHAR
STARTCHAR uni55B3
ENCODING 21939
SWIDTH 1000 0
DWIDTH 17 0
BBX 15 16 1 -2
BITMAP
0040
0040
0040
01F0
7CC0
8DE0
99DC
BACE
7DFC
51F0
0130
01F0
0120
0004
0FFE
0400
ENDCHAR
STARTCHAR uni55B5
ENCODING 21941
SWIDTH 1000 0
DWIDTH 17 0
BBX 15 16 1 -2
BITMAP
0010
0118
0118
019E
7FB0
8CA0
9840
99FC
7A46
42F6
034E
024E
02EC
030C
013C
0008
ENDCHAR
STARTCHAR uni55B7
ENCODING 21943
SWIDTH 1000 0
DWIDTH 17 0
BBX 13 16 2 -2
BITMAP
0100
0180
03E0
F9A0
97F8
BE40
F280
E360
8460
0560
0560
0560
0240
02C0
0460
0820
ENDCHAR
STARTCHAR uni55B9
ENCODING 21945
SWIDTH 1000 0
DWIDTH 17 0
BBX 15 14 1 -1
BITMAP
0180
0100
03E0
FA40
9360
B5B0
FBDE
510C
03F0
0500
03C0
0180
01F0
0FF8
ENDCHAR
STARTCHAR uni55BB
ENCODING 21947
SWIDTH 1000 0
DWIDTH 17 0
BBX 15 16 1 -2
BITMAP
0080
0100
0180
0260
F430
9BDC
902E
B730
F5B0
8B50
0DD0
0750
0910
0B10
0970
0020
ENDCHAR
STARTCHAR uni55BD
ENCODING 21949
SWIDTH 1000 0
DWIDTH 17 0
BBX 15 16 1 -2
BITMAP
0040
0050
01F8
00E0
03D8
FCF0
99DC
9A6C
F840
F0FE
87A2
01E0
01E0
01F0
0718
0010
ENDCHAR
STARTCHAR uni55BE
ENCODING 21950
SWIDTH 1000 0
DWIDTH 17 0
BBX 13 16 2 -2
BITMAP
0480
16C0
1180
1300
3FF8
C018
CB38
CB80
DF80
2200
0FC0
1000
0F80
1980
0B00
0F00
ENDCHAR
STARTCHAR uni55C4
ENCODING 21956
SWIDTH 1000 0
DWIDTH 17 0
BBX 15 16 1 -2
BITMAP
00F0
0780
01E0
FAE0
9B60
9360
B3E0
7F40
41E0
0240
05C0
0980
01C0
0278
0C3E
0018
ENDCHAR
STARTCHAR uni55C5
ENCODING 21957
SWIDTH 1000 0
DWIDTH 17 0
BBX 15 16 1 -2
BITMAP
0040
00C0
0130
1958
EDD0
99D0
5930
79F0
6170
4050
01FE
0EC2
0080
0130
0218
0408
ENDCHAR
STARTCHAR uni55C9
ENCODING 21961
SWIDTH 1000 0
DWIDTH 17 0
BBX 15 16 1 -2
BITMAP
0080
00E0
03C0
01E0
F8FE
5BE4
5560
73C0
43A0
0170
01D0
0180
02A0
0698
0588
0080
ENDCHAR
STARTCHAR uni55CC
ENCODING 21964
SWIDTH 1000 0
DWIDTH 17 0
BBX 15 16 1 -2
BITMAP
0010
0018
01A0
38C0
CDF8
9B00
B1B0
B118
F208
4478
03BC
02AC
02C8
01FA
0FFE
0400
ENDCHAR
STARTCHAR uni55CD
ENCODING 21965
SWIDTH 1000 0
DWIDTH 17 0
BBX 15 16 1 -2
BITMAP
0040
0060
06DE
3B86
DBD6
971E
F55E
75E6
4F7E
0736
0226
0246
0486
0936
000E
0004
ENDCHAR
STARTCHAR uni55D1
ENCODING 21969
SWIDTH 1000 0
DWIDTH 17 0
BBX 15 16 1 -2
BITMAP
0080
00C0
00E0
0380
F8FC
9F80
90A0
B130
FBD0
C200
03F8
02D0
02D0
01FE
0F06
0800
ENDCHAR
STARTCHAR uni55D2
ENCODING 21970
SWIDTH 1000 0
DWIDTH 17 0
BBX 15 14 1 -1
BITMAP
0260
0240
0370
7580
9100
B1C0
B370
E6FC
450E
08E4
1330
0260
01E0
0100
ENDCHAR
STARTCHAR uni55D3
ENCODING 21971
SWIDTH 1000 0
DWIDTH 17 0
BBX 15 16 1 -2
BITMAP
01C0
0060
01C0
79E0
9A40
97B0
B6E0
7778
4D98
00FE
3F82
14A0
049C
0688
0180
0100
ENDCHAR
STARTCHAR uni55D4
ENCODING 21972
SWIDTH 1000 0
DWIDTH 17 0
BBX 17 16 0 -2
BITMAP
004000
004000
00F800
1B8800
EFF000
4D7000
59B000
79F000
61F000
41B000
023200
07FF80
392000
017800
061800
000800
ENDCHAR
STARTCHAR uni55D6
ENCODING 21974
SWIDTH 1000 0
DWIDTH 17 0
BBX 15 16 1 -2
BITMAP
0080
01C0
02F8
0CD8
76F8
9A90
B7F0
F280
60E0
0360
01C0
00C0
01E0
0278
0C1E
0008
ENDCHAR
STARTCHAR uni55DC
ENCODING 21980
SWIDTH 1000 0
DWIDTH 17 0
BBX 15 16 1 -2
BITMAP
00C0
00C8
01F8
00D0
FCFE
5F60
50F0
71C0
7AD0
4C78
11F0
0110
01D0
0170
01F0
0020
ENDCHAR
STARTCHAR uni55DD
ENCODING 21981
SWIDTH 1000 0
DWIDTH 17 0
BBX 15 14 1 -1
BITMAP
03F8
0000
21F0
DD30
9970
98E0
70E0
733E
45E6
44E6
0386
026E
025C
000C
ENDCHAR
STARTCHAR uni55DF
ENCODING 21983
SWIDTH 1000 0
DWIDTH 17 0
BBX 15 16 1 -2
BITMAP
0010
01B8
0120
0070
73D0
9870
99E0
B0FE
F7CC
C180
01F0
0310
0630
04FE
0906
1000
ENDCHAR
STARTCHAR uni55E1
ENCODING 21985
SWIDTH 1000 0
DWIDTH 17 0
BBX 15 14 1 -1
BITMAP
0040
0130
0298
048E
F964
9390
B070
F310
45F0
0330
05D0
0B50
0130
0030
ENDCHAR
STARTCHAR uni55E3
ENCODING 21987
SWIDTH 1000 0
DWIDTH 17 0
BBX 15 14 1 -1
BITMAP
7F00
467E
4C86
3E06
20F6
7F06
AB7C
BF94
EBF4
AB64
AB04
8E04
023C
000C
ENDCHAR
STARTCHAR uni55E4
ENCODING 21988
SWIDTH 1000 0
DWIDTH 17 0
BBX 15 14 1 -1
BITMAP
0040
0158
0158
79F8
8D40
9BFE
B440
70FC
4358
0170
01C0
00D8
01EC
030C
ENDCHAR
STARTCHAR uni55E5
ENCODING 21989
SWIDTH 1000 0
DWIDTH 17 0
BBX 15 16 1 -2
BITMAP
0080
0080
0370
03A0
0220
FBE0
9AA0
B090
F7F0
81E0
82B0
04FC
0BAE
0080
0080
0080
ENDCHAR
STARTCHAR uni55E6
ENCODING 21990
SWIDTH 1000 0
DWIDTH 17 0
BBX 15 16 1 -2
BITMAP
0040
0040
01F0
0040
7BBC
9A4E
96B0
FDC0
F160
4098
01F8
01C0
0250
064C
04C4
0080
ENDCHAR
STARTCHAR uni55E8
ENCODING 21992
SWIDTH 1000 0
DWIDTH 17 0
BBX 15 16 1 -2
BITMAP
0040
0040
0240
02F8
78C0
9970
BED8
BAB8
E4FE
4710
0950
1BF8
0B20
0060
01C0
0080
ENDCHAR
STARTCHAR uni55EA
ENCODING 21994
SWIDTH 1000 0
DWIDTH 17 0
BBX 15 14 1 -1
BITMAP
0080
07F0
01E0
FB00
9BF8
B660
F6B0
F718
8CEE
1B86
0480
04F0
0490
0100
ENDCHAR
STARTCHAR uni55EB
ENCODING 21995
SWIDTH 1000 0
DWIDTH 17 0
BBX 15 14 1 -1
BITMAP
01E0
06E0
03C0
02C0
33C0
FAC0
BFF8
F0C0
F670
42A0
0660
0670
0B9E
100C
ENDCHAR
STARTCHAR uni55EC
ENCODING 21996
SWIDTH 1000 0
DWIDTH 17 0
BBX 15 16 1 -2
BITMAP
0020
0260
02F8
0748
13C0
F300
B3FE
B710
65D0
4DD0
15D0
2510
0410
0490
0470
0020
ENDCHAR
STARTCHAR uni55EF
ENCODING 21999
SWIDTH 1000 0
DWIDTH 17 0
BBX 15 14 1 -1
BITMAP
03F0
02B8
7BF0
9AB0
93F0
B230
73F0
463C
41A6
05E2
0A98
1A0C
19FC
00FC
ENDCHAR
STARTCHAR uni55F2
ENCODING 22002
SWIDTH 1000 0
DWIDTH 17 0
BBX 15 16 1 -2
BITMAP
0260
0370
0740
00C0
F970
9A9E
BD64
7340
40A0
0160
06B0
01E0
00C0
0180
0300
0C00
ENDCHAR
STARTCHAR uni55F3
ENCODING 22003
SWIDTH 1000 0
DWIDTH 17 0
BBX 15 16 1 -2
BITMAP
0040
0060
0180
0298
7170
99F0
968E
B4CE
FFF0
4580
01F0
01E0
0260
04F8
091E
0004
ENDCHAR
STARTCHAR uni55F5
ENCODING 22005
SWIDTH 1000 0
DWIDTH 17 0
BBX 15 12 1 0
BITMAP
01E0
0440
76C0
99B0
B5D0
EEF0
89D0
8A90
0EF0
1F90
31FE
003C
ENDCHAR
STARTCHAR uni55F7
ENCODING 22007
SWIDTH 1000 0
DWIDTH 17 0
BBX 17 14 0 -1
BITMAP
010000
011000
03F000
11B000
FB2800
5FFC00
5A5000
727000
43B000
059000
093C00
17CF00
020380
020000
ENDCHAR
STARTCHAR uni55FD
ENCODING 22013
SWIDTH 1000 0
DWIDTH 17 0
BBX 15 12 1 0
BITMAP
0230
03A0
0620
27B8
DAD8
BFA0
F620
47B0
0AD8
125C
038E
0200
ENDCHAR
STARTCHAR uni55FE
ENCODING 22014
SWIDTH 1000 0
DWIDTH 17 0
BBX 15 14 1 -1
BITMAP
0020
0420
0220
03FC
FC50
B680
E778
EB50
93BE
23F0
0C20
045C
0084
0100
ENDCHAR
STARTCHAR uni5600
ENCODING 22016
SWIDTH 1000 0
DWIDTH 17 0
BBX 13 16 2 -2
BITMAP
0100
0088
03F8
0460
7B40
99E0
B2B8
B5F0
F690
85D0
0550
05D0
0410
0430
0470
0020
ENDCHAR
STARTCHAR uni5601
ENCODING 22017
SWIDTH 1000 0
DWIDTH 17 0
BBX 15 16 1 -2
BITMAP
0080
00C0
00D8
01F0
76C0
9540
B5C0
B550
EFF8
8D70
1DB0
15B0
235A
428E
8106
0002
ENDCHAR
STARTCHAR uni5608
ENCODING 22024
SWIDTH 1000 0
DWIDTH 17 0
BBX 13 16 2 -2
BITMAP
0060
0140
03E0
0140
FBF8
9DD8
97F8
B570
7BB0
40E0
0320
03A0
0320
03E0
03E0
0220
ENDCHAR
STARTCHAR uni5609
ENCODING 22025
SWIDTH 1000 0
DWIDTH 17 0
BBX 13 16 2 -2
BITMAP
0600
0600
3F80
0600
0900
1F80
0B80
0E80
1FF8
FB10
0C00
3FE0
1560
2DC0
5DE0
8800
ENDCHAR
STARTCHAR uni560C
ENCODING 22028
SWIDTH 1000 0
DWIDTH 17 0
BBX 13 14 2 -1
BITMAP
03C0
01F8
1758
FD98
B3F0
A020
F3C0
F078
8788
0A80
06F0
0498
0788
0180
ENDCHAR
STARTCHAR uni560E
ENCODING 22030
SWIDTH 1000 0
DWIDTH 17 0
BBX 15 16 1 -2
BITMAP
0078
03F8
18C0
6DB0
C9E0
5920
51E0
79E0
71A0
40FC
07D0
0C70
0042
01B2
001C
000C
ENDCHAR
STARTCHAR uni560F
ENCODING 22031
SWIDTH 1000 0
DWIDTH 17 0
BBX 15 12 1 0
BITMAP
23F8
2590
2130
FE40
6538
4750
FC50
D730
F630
6458
448E
0504
ENDCHAR
STARTCHAR uni5618
ENCODING 22040
SWIDTH 1000 0
DWIDTH 17 0
BBX 15 16 1 -2
BITMAP
00C0
00C0
00E0
00C0
7DBC
9A68
9BF0
5348
7A78
4630
06AC
05B8
0DB0
18FE
130C
2000
ENDCHAR
STARTCHAR uni561B
ENCODING 22043
SWIDTH 1000 0
DWIDTH 17 0
BBX 15 14 1 -1
BITMAP
0100
0180
07E0
7000
B520
A578
AFA0
EF70
8BF8
1EAC
1326
2260
4020
8000
ENDCHAR
STARTCHAR uni561E
ENCODING 22046
SWIDTH 1000 0
DWIDTH 17 0
BBX 15 16 1 -2
BITMAP
0100
0580
0F90
0508
FF98
B310
AEFE
BFB6
EE26
87A4
1A6C
025C
0298
0380
0300
0400
ENDCHAR
STARTCHAR uni561F
ENCODING 22047
SWIDTH 1000 0
DWIDTH 17 0
BBX 15 16 1 -2
BITMAP
0100
0100
07E0
014E
FBF4
9DB8
B3BC
F2F6
87F6
0AFE
13FC
22B8
0030
0030
0020
0020
ENDCHAR
STARTCHAR uni5623
ENCODING 22051
SWIDTH 1000 0
DWIDTH 17 0
BBX 13 16 2 -2
BITMAP
0080
0080
0290
02F8
3F98
DC08
93F8
B558
F778
8558
0778
0558
0B98
1118
0030
0010
ENDCHAR
STARTCHAR uni5624
ENCODING 22052
SWIDTH 1000 0
DWIDTH 17 0
BBX 15 14 1 -1
BITMAP
0770
0590
77D0
B7B0
B550
A760
E890
8140
0FFE
1AC0
0380
01C0
0660
0030
ENDCHAR
STARTCHAR uni5627
ENCODING 22055
SWIDTH 1000 0
DWIDTH 17 0
BBX 15 14 1 -1
BITMAP
00C0
00F0
034E
7A26
8A60
9936
B1C8
F178
8080
8040
0148
037C
03CC
0204
ENDCHAR
STARTCHAR uni562C
ENCODING 22060
SWIDTH 1000 0
DWIDTH 17 0
BBX 17 14 0 -1
BITMAP
01F000
015000
01B000
7CF000
8CBE00
5BC100
5EDC00
7B6C00
03F800
02D800
03DC00
066F80
0C4200
004000
ENDCHAR
STARTCHAR uni562D
ENCODING 22061
SWIDTH 1000 0
DWIDTH 17 0
BBX 13 16 2 -2
BITMAP
0200
0218
0790
1220
FFC0
BB98
A5B0
FB20
4748
0598
0B18
07B0
0F60
18C0
0100
0200
ENDCHAR
STARTCHAR uni5631
ENCODING 22065
SWIDTH 1000 0
DWIDTH 17 0
BBX 15 16 1 -2
BITMAP
00E0
0130
0120
7BE0
8A20
5AE0
7B60
67D8
45F0
04C0
0DFC
0A56
11FC
212C
011C
0008
ENDCHAR
STARTCHAR uni5632
ENCODING 22066
SWIDTH 1000 0
DWIDTH 17 0
BBX 15 16 1 -2
BITMAP
0100
0100
03C0
0508
2116
DED6
9FD6
BCDE
7396
033E
0FE6
1B26
0266
0296
020E
0004
ENDCHAR
STARTCHAR uni5634
ENCODING 22068
SWIDTH 1000 0
DWIDTH 17 0
BBX 15 16 1 -2
BITMAP
0128
0158
05D0
0522
7DA2
9E9E
B4E0
B140
72F8
4358
03D8
03F8
0258
0258
0678
0010
ENDCHAR
STARTCHAR uni5636
ENCODING 22070
SWIDTH 1000 0
DWIDTH 17 0
BBX 15 16 1 -2
BITMAP
0100
0198
0790
7D20
9740
A55E
7778
4558
0FF8
3458
0750
0990
1110
0010
0010
0010
ENDCHAR
STARTCHAR uni5639
ENCODING 22073
SWIDTH 1000 0
DWIDTH 17 0
BBX 15 16 1 -2
BITMAP
0080
0180
03F0
7D90
9B70
B630
B65C
7BBE
13A0
2220
03E0
0480
0CB0
0C98
0B88
0180
ENDCHAR
STARTCHAR uni563B
ENCODING 22075
SWIDTH 1000 0
DWIDTH 17 0
BBX 15 14 1 -1
BITMAP
0040
03F0
00C0
79E0
8DF0
8910
99E0
F810
67FE
4D22
01E0
0118
0130
01F0
ENDCHAR
STARTCHAR uni563F
ENCODING 22079
SWIDTH 1000 0
DWIDTH 17 0
BBX 15 14 1 -1
BITMAP
01F8
026C
13EC
FA58
99F8
B178
F0E0
F9D0
80FE
0FDE
0000
03BC
0DA6
0C02
ENDCHAR
STARTCHAR uni564C
ENCODING 22092
SWIDTH 1000 0
DWIDTH 17 0
BBX 15 16 1 -2
BITMAP
0010
0198
0020
79DC
CED6
9AEC
527C
7988
4060
0098
00F0
00D0
0090
00F0
00B0
0010
ENDCHAR
STARTCHAR uni564D
ENCODING 22093
SWIDTH 1000 0
DWIDTH 17 0
BBX 15 16 1 -2
BITMAP
0100
01C0
0140
32F0
DF40
9EE0
BA60
B2C0
F240
82F8
8300
0200
036C
0DA6
0C06
0802
ENDCHAR
STARTCHAR uni564E
ENCODING 22094
SWIDTH 1000 0
DWIDTH 17 0
BBX 15 16 1 -2
BITMAP
0040
00D0
01F0
00E0
7D20
9BFE
960C
B7F0
7C20
41F0
4160
01B0
03A0
0140
01F8
0200
ENDCHAR
STARTCHAR uni5654
ENCODING 22100
SWIDTH 1000 0
DWIDTH 17 0
BBX 15 14 1 -1
BITMAP
0040
07D0
016C
7B28
B630
B5D8
B4AE
DA66
B3C0
0160
0260
0290
07F8
0C00
ENDCHAR
STARTCHAR uni5657
ENCODING 22103
SWIDTH 1000 0
DWIDTH 17 0
BBX 15 16 1 -2
BITMAP
0040
0150
0360
39FC
DF20
9A40
71E0
7380
41C0
4288
03FC
0D40
0360
0238
0C1E
000C
ENDCHAR
STARTCHAR uni5658
ENCODING 22104
SWIDTH 1000 0
DWIDTH 17 0
BBX 17 14 0 -1
BITMAP
00E000
03C000
001000
145000
FE5000
9DDC00
972600
76D800
7ED000
4FF800
093800
116C00
22C700
440380
ENDCHAR
STARTCHAR uni5659
ENCODING 22105
SWIDTH 1000 0
DWIDTH 17 0
BBX 15 16 1 -2
BITMAP
0080
0180
01C0
0270
7CBC
9B4E
9180
75D0
46F0
4710
0480
0378
0558
05B8
0430
0030
ENDCHAR
STARTCHAR uni565C
ENCODING 22108
SWIDTH 1000 0
DWIDTH 17 0
BBX 15 16 1 -2
BITMAP
0080
01E0
0240
79F8
9AF8
9BD8
B1F0
F130
41FE
0EC2
0130
01F0
0130
01F0
0130
0020
ENDCHAR
STARTCHAR uni5662
ENCODING 22114
SWIDTH 1000 0
DWIDTH 17 0
BBX 15 14 1 -1
BITMAP
00C0
01E0
0358
3B70
CF50
99F0
B2F0
7B90
6290
42FC
1FFE
09C0
0330
0418
ENDCHAR
STARTCHAR uni5664
ENCODING 22116
SWIDTH 1000 0
DWIDTH 17 0
BBX 15 16 1 -2
BITMAP
0020
0120
01B8
0760
0370
36F8
DEAE
B324
B1C0
707C
4FC0
0AC0
02F8
06C8
01C0
0080
ENDCHAR
STARTCHAR uni5668
ENCODING 22120
SWIDTH 1000 0
DWIDTH 17 0
BBX 13 16 2 -2
BITMAP
18E0
2560
2D40
39C0
2500
0680
07F0
FC10
4D80
08C0
18C0
6D38
4D30
49E0
39E0
2100
ENDCHAR
STARTCHAR uni5669
ENCODING 22121
SWIDTH 1000 0
DWIDTH 17 0
BBX 15 14 1 -1
BITMAP
0FC0
0B00
1FE0
2BA0
1BC0
07E0
3F40
0360
3BB0
2BB0
1A60
0200
3FFE
F006
ENDCHAR
STARTCHAR uni566A
ENCODING 22122
SWIDTH 1000 0
DWIDTH 17 0
BBX 15 14 1 -1
BITMAP
01F0
0130
00E0
0080
FFBC
9CB8
9BB8
7A80
40FE
0FC2
0AF0
02DC
05C4
00C0
ENDCHAR
STARTCHAR uni566B
ENCODING 22123
SWIDTH 1000 0
DWIDTH 17 0
BBX 15 16 1 -2
BITMAP
0080
00F0
0120
1160
78FC
9B84
B5F0
79F0
6920
41E0
011C
02E6
0550
0E88
047C
0038
ENDCHAR
STARTCHAR uni566C
ENCODING 22124
SWIDTH 1000 0
DWIDTH 17 0
BBX 15 14 1 -1
BITMAP
0030
0120
03B8
0340
FC98
9820
B3D0
F148
C350
8268
05CC
08C0
01FE
0602
ENDCHAR
STARTCHAR uni5671
ENCODING 22129
SWIDTH 1000 0
DWIDTH 17 0
BBX 15 16 1 -2
BITMAP
0100
01C0
0150
7EB8
9CE0
B7C0
B460
7410
85E0
0490
09E0
0960
12D8
234E
41C0
0080
ENDCHAR
STARTCHAR uni5676
ENCODING 22134
SWIDTH 1000 0
DWIDTH 17 0
BBX 13 16 2 -2
BITMAP
0020
02F8
0348
71C0
9B20
93A0
B1E0
7100
63F0
4698
0A98
1358
0298
03F0
0070
0020
ENDCHAR
STARTCHAR uni567B
ENCODING 22139
SWIDTH 1000 0
DWIDTH 17 0
BBX 17 14 0 -1
BITMAP
00C000
006000
019C00
7AAE00
8FF000
4AF000
59A000
78FC00
47A000
015000
027C00
03C780
0CC000
13F000
ENDCHAR
STARTCHAR uni567C
ENCODING 22140
SWIDTH 1000 0
DWIDTH 17 0
BBX 17 16 0 -2
BITMAP
001000
019800
02DE00
02A000
7AA600
DB3400
5E1F80
77E800
64C800
2DBE00
0B8800
120800
100800
000800
000800
000800
ENDCHAR
STARTCHAR uni5685
ENCODING 22149
SWIDTH 1000 0
DWIDTH 17 0
BBX 15 14 1 -1
BITMAP
01E0
0040
FFFC
9D7E
B670
BD50
F1F8
82C0
01F0
06EC
04CC
02CC
02FC
0018
ENDCHAR
STARTCHAR uni5686
ENCODING 22150
SWIDTH 1000 0
DWIDTH 17 0
BBX 15 16 1 -2
BITMAP
0010
0120
0338
00C0
7CF8
9B60
50A0
79E0
7120
41F8
06CE
0564
02CC
028C
0238
0010
ENDCHAR
STARTCHAR uni568E
ENCODING 22158
SWIDTH 1000 0
DWIDTH 17 0
BBX 15 16 1 -2
BITMAP
0080
01F0
0220
39F0
D960
91C0
76BC
79CE
0890
09A0
07C0
02E0
057C
0248
05C0
0180
ENDCHAR
STARTCHAR uni568F
ENCODING 22159
SWIDTH 1000 0
DWIDTH 17 0
BBX 15 16 1 -2
BITMAP
0080
00C0
01E0
3080
CBFC
9C4C
95B0
B5F0
71E0
4020
43F0
01E0
0380
02C0
0C7E
000C
ENDCHAR
STARTCHAR uni5693
ENCODING 22163
SWIDTH 1000 0
DWIDTH 17 0
BBX 17 16 0 -2
BITMAP
00C000
00E000
035C00
031C00
3FB800
CEE800
4BB000
7F1800
7B6E00
228780
04F800
094000
017000
025800
02C800
004000
ENDCHAR
STARTCHAR uni56A3
ENCODING 22179
SWIDTH 1000 0
DWIDTH 17 0
BBX 13 16 2 -2
BITMAP
00C0
1F60
15C0
1D00
0FF0
F618
0F80
0A80
0E80
0D80
09C0
11F0
2D30
2D60
3DE0
1000
ENDCHAR
STARTCHAR uni56AF
ENCODING 22191
SWIDTH 1000 0
DWIDTH 17 0
BBX 15 14 1 -1
BITMAP
00E0
00F0
736E
9D6E
9550
B4C0
F1B8
83E8
0370
0538
0970
1120
01FC
0300
ENDCHAR
STARTCHAR uni56B7
ENCODING 22199
SWIDTH 1000 0
DWIDTH 17 0
BBX 15 16 1 -2
BITMAP
0180
01F8
0F38
7AD0
9BE0
9160
53C0
73E0
41FC
0710
0BE0
07E0
0D78
119E
0304
0100
ENDCHAR
STARTCHAR uni56BC
ENCODING 22204
SWIDTH 1000 0
DWIDTH 17 0
BBX 15 16 1 -2
BITMAP
00C0
01C0
0698
7360
93FC
A54C
F7F8
6210
4798
07FE
0518
0678
0588
0658
0438
0010
ENDCHAR
STARTCHAR uni56CA
ENCODING 22218
SWIDTH 1000 0
DWIDTH 17 0
BBX 11 16 3 -2
BITMAP
0C00
3F00
1F00
1E00
1F00
F8E0
BFC0
BB00
2200
1F00
1E00
3FC0
5700
3600
5BC0
90E0
ENDCHAR
STARTCHAR uni56D4
ENCODING 22228
SWIDTH 1000 0
DWIDTH 17 0
BBX 15 16 1 -2
BITMAP
0040
00E0
0060
01D0
21E0
DBFE
5CFC
75F0
7120
41F0
01E0
03F8
0160
0370
058C
0100
ENDCHAR
STARTCHAR uni56D7
ENCODING 22231
SWIDTH 1000 0
DWIDTH 17 0
BBX 11 14 3 -1
BITMAP
3F80
E060
8060
8060
8060
8060
8060
8060
8060
BF60
FF60
81C0
00C0
0080
ENDCHAR
STARTCHAR uni56DA
ENCODING 22234
SWIDTH 1000 0
DWIDTH 17 0
BBX 11 14 3 -1
BITMAP
3FE0
6060
4C60
4C60
4C60
5E60
5360
6160
4060
C660
FF60
C0E0
81E0
00C0
ENDCHAR
STARTCHAR uni56DB
ENCODING 22235
SWIDTH 1000 0
DWIDTH 17 0
BBX 13 10 2 1
BITMAP
7F80
8278
9E18
9318
9398
A018
C038
DF30
50F0
0060
ENDCHAR
STARTCHAR uni56DD
ENCODING 22237
SWIDTH 1000 0
DWIDTH 17 0
BBX 11 16 3 -2
BITMAP
0F00
30E0
8060
9E60
8460
8860
8FE0
B460
8460
8460
9C60
8B60
BF60
A060
01C0
0040
ENDCHAR
STARTCHAR uni56DE
ENCODING 22238
SWIDTH 1000 0
DWIDTH 17 0
BBX 12 12 3 -1
BITMAP
7F80
80E0
9E70
A670
AC70
9C70
9060
8460
FEE0
83E0
03C0
0180
ENDCHAR
STARTCHAR uni56DF
ENCODING 22239
SWIDTH 1000 0
DWIDTH 17 0
BBX 11 14 3 -1
BITMAP
0C00
0C00
1800
7FC0
C460
8C60
B8C0
9CC0
76C0
42C0
40C0
7EC0
4380
0380
ENDCHAR
STARTCHAR uni56E0
ENCODING 22240
SWIDTH 1000 0
DWIDTH 17 0
BBX 11 14 3 -1
BITMAP
3F80
4060
4460
4C60
7F60
4860
9E60
9360
A060
8060
BF60
C160
00E0
00C0
ENDCHAR
STARTCHAR uni56E1
ENCODING 22241
SWIDTH 1000 0
DWIDTH 17 0
BBX 11 15 3 -1
BITMAP
0600
39E0
4860
4460
4860
4FE0
F660
5C60
8C60
B660
C360
8060
BF60
8160
00E0
ENDCHAR
STARTCHAR uni56E2
ENCODING 22242
SWIDTH 1000 0
DWIDTH 17 0
BBX 11 14 3 -1
BITMAP
3FC0
44E0
44C0
7FC0
44C0
4C40
5440
6440
4C40
C460
DF60
E060
03C0
00C0
ENDCHAR
STARTCHAR uni56E4
ENCODING 22244
SWIDTH 1000 0
DWIDTH 17 0
BBX 11 14 3 -1
BITMAP
7FC0
08C0
8E40
B840
AE40
AE40
BB40
A840
AF60
8760
8360
FF60
A360
80E0
ENDCHAR
STARTCHAR uni56EB
ENCODING 22251
SWIDTH 1000 0
DWIDTH 17 0
BBX 11 16 3 -2
BITMAP
0F80
30E0
48E0
4C40
5740
69C0
5FC0
6DC0
5160
6360
4E60
C560
FFE0
41E0
00C0
0080
ENDCHAR
STARTCHAR uni56ED
ENCODING 22253
SWIDTH 1000 0
DWIDTH 17 0
BBX 11 14 3 -1
BITMAP
3FC0
0060
5C40
4040
5F40
7440
5540
5560
57E0
A360
8F60
BF60
8160
00C0
ENDCHAR
STARTCHAR uni56F0
ENCODING 22256
SWIDTH 1000 0
DWIDTH 17 0
BBX 11 14 3 -1
BITMAP
3FE0
4460
4460
5F60
5C60
4F60
55E0
6860
8860
8FE0
B960
8060
03C0
00C0
ENDCHAR
STARTCHAR uni56F1
ENCODING 22257
SWIDTH 1000 0
DWIDTH 17 0
BBX 11 14 3 -1
BITMAP
1C00
1800
3000
7F00
E8E0
4E60
5660
6C60
5EE0
60E0
40E0
7EE0
47C0
0180
ENDCHAR
STARTCHAR uni56F4
ENCODING 22260
SWIDTH 1000 0
DWIDTH 17 0
BBX 11 14 3 -1
BITMAP
3FC0
4860
8E60
F860
9E60
A860
BFE0
C9E0
8F60
8B60
8860
BF60
A1E0
00E0
ENDCHAR
STARTCHAR uni56F5
ENCODING 22261
SWIDTH 1000 0
DWIDTH 17 0
BBX 11 15 3 -1
BITMAP
0400
3BE0
4460
4C60
4C60
5360
69E0
AEE0
D660
9960
8F60
8060
BF60
A2E0
01C0
ENDCHAR
STARTCHAR uni56F9
ENCODING 22265
SWIDTH 1000 0
DWIDTH 17 0
BBX 11 16 3 -2
BITMAP
0F00
3CE0
4C60
4C60
5360
6DE0
44E0
5F60
4660
8C60
8460
8760
BFE0
C1E0
00C0
0080
ENDCHAR
STARTCHAR uni56FA
ENCODING 22266
SWIDTH 1000 0
DWIDTH 17 0
BBX 11 14 3 -1
BITMAP
3FE0
8460
4C60
5F60
7860
5860
DF60
D260
DE60
8C60
8360
BF60
81E0
00C0
ENDCHAR
STARTCHAR uni56FD
ENCODING 22269
SWIDTH 1000 0
DWIDTH 17 0
BBX 11 14 3 -1
BITMAP
3FE0
4060
4E60
5C60
4E60
5C60
4DE0
4FE0
B160
8060
9F60
A060
83E0
00C0
ENDCHAR
STARTCHAR uni56FE
ENCODING 22270
SWIDTH 1000 0
DWIDTH 17 0
BBX 11 14 3 -1
BITMAP
3FE0
0C60
5E60
7C60
4F60
5160
6C60
4060
8C60
8460
BF60
B260
01E0
00C0
ENDCHAR
STARTCHAR uni56FF
ENCODING 22271
SWIDTH 1000 0
DWIDTH 17 0
BBX 11 14 3 -1
BITMAP
7FE0
0460
4C60
7BE0
4C60
9A60
9E60
AE60
8A60
8A60
8A60
9F60
A160
00E0
ENDCHAR
STARTCHAR uni5703
ENCODING 22275
SWIDTH 1000 0
DWIDTH 17 0
BBX 11 16 3 -2
BITMAP
1F00
24E0
4560
7FE0
6C60
7F60
BF60
AF60
BD60
A960
AB60
8A60
FF60
A4E0
03C0
0080
ENDCHAR
STARTCHAR uni5704
ENCODING 22276
SWIDTH 1000 0
DWIDTH 17 0
BBX 11 16 3 -2
BITMAP
0700
7FE0
0660
5E60
4F60
5A60
4A60
7FE0
AE60
D360
9E60
8860
9F60
B0E0
0060
0040
ENDCHAR
STARTCHAR uni5706
ENCODING 22278
SWIDTH 1000 0
DWIDTH 17 0
BBX 11 15 3 -1
BITMAP
0600
39C0
4C60
5660
5C60
4E60
5B60
5A60
DA60
D660
F360
C760
FF60
81E0
00C0
ENDCHAR
STARTCHAR uni5708
ENCODING 22280
SWIDTH 1000 0
DWIDTH 17 0
BBX 11 14 3 -1
BITMAP
3FE0
2660
5460
4E60
5F60
5A60
5F60
ADE0
CA60
CE60
C060
FF60
C1E0
00E0
ENDCHAR
STARTCHAR uni5709
ENCODING 22281
SWIDTH 1000 0
DWIDTH 17 0
BBX 11 14 3 -1
BITMAP
7FC0
4660
9C60
BFE0
D660
8E60
9C60
8E60
9C60
8860
8660
BF60
8160
00E0
ENDCHAR
STARTCHAR uni570A
ENCODING 22282
SWIDTH 1000 0
DWIDTH 17 0
BBX 11 14 3 -1
BITMAP
3FC0
4C60
9E60
8C60
9FE0
EE60
9E60
9E60
9260
9660
8260
BF60
80E0
00C0
ENDCHAR
STARTCHAR uni571C
ENCODING 22300
SWIDTH 1000 0
DWIDTH 17 0
BBX 11 16 3 -2
BITMAP
1F80
20C0
1FC0
5EC0
52C0
5FC0
7EC0
4E40
5640
7640
49E0
9360
BE60
83E0
00C0
0080
ENDCHAR
STARTCHAR uni571F
ENCODING 22303
SWIDTH 1000 0
DWIDTH 17 0
BBX 13 12 2 0
BITMAP
0600
0600
0600
0600
0FC0
3E40
0600
0600
0600
07F0
7FF8
E000
ENDCHAR
STARTCHAR uni5723
ENCODING 22307
SWIDTH 1000 0
DWIDTH 17 0
BBX 15 14 1 -1
BITMAP
07C0
0980
0580
0700
07C0
1CF0
F37E
0398
0FC0
0300
0300
0300
1FF8
3810
ENDCHAR
STARTCHAR uni5728
ENCODING 22312
SWIDTH 1000 0
DWIDTH 17 0
BBX 13 16 2 -2
BITMAP
0200
0200
0600
1FE0
3400
0D00
0880
1080
29E0
2B80
4980
8980
17F8
1C00
1000
1000
ENDCHAR
STARTCHAR uni5729
ENCODING 22313
SWIDTH 1000 0
DWIDTH 17 0
BBX 15 14 1 -1
BITMAP
30F0
31C0
3860
707E
71E6
3660
3C60
3860
7060
E060
8060
0060
03C0
00C0
ENDCHAR
STARTCHAR uni572A
ENCODING 22314
SWIDTH 1000 0
DWIDTH 17 0
BBX 15 14 1 -1
BITMAP
0080
2180
1160
13E0
3A00
3C00
71E0
3640
38C0
3080
E082
8082
00FE
007E
ENDCHAR
STARTCHAR uni572C
ENCODING 22316
SWIDTH 1000 0
DWIDTH 17 0
BBX 15 14 1 -1
BITMAP
11E0
10C0
1000
39FE
7640
10C0
1880
39F8
6118
C018
0010
0030
01F0
00E0
ENDCHAR
STARTCHAR uni572D
ENCODING 22317
SWIDTH 1000 0
DWIDTH 17 0
BBX 15 14 1 -1
BITMAP
0300
0300
0300
0FE0
0300
03FC
FE3E
4300
0300
07C0
0300
0300
07F8
3FF8
ENDCHAR
STARTCHAR uni572E
ENCODING 22318
SWIDTH 1000 0
DWIDTH 17 0
BBX 15 12 1 0
BITMAP
23F0
3160
3860
78C0
73C0
3600
3A00
3200
6202
C202
43FE
01FE
ENDCHAR
STARTCHAR uni572F
ENCODING 22319
SWIDTH 1000 0
DWIDTH 17 0
BBX 15 12 1 0
BITMAP
1070
11B0
1A20
7260
53E0
1380
1E02
3202
6202
C202
01FE
01FE
ENDCHAR
STARTCHAR uni5730
ENCODING 22320
SWIDTH 1000 0
DWIDTH 17 0
BBX 15 13 1 -1
BITMAP
0080
1080
10A0
18F0
73B0
17A0
1DE0
1D40
7282
E202
43CE
01FE
0008
ENDCHAR
STARTCHAR uni5733
ENCODING 22323
SWIDTH 1000 0
DWIDTH 17 0
BBX 13 16 2 -2
BITMAP
0010
1018
1018
1918
3950
7158
3558
3B58
3A58
E218
4418
0018
0010
0010
0010
0010
ENDCHAR
STARTCHAR uni5739
ENCODING 22329
SWIDTH 1000 0
DWIDTH 17 0
BBX 15 16 1 -2
BITMAP
0020
0020
0830
08FE
0C80
3C80
3880
1880
1D80
3980
7100
E300
0200
0400
0800
1000
ENDCHAR
STARTCHAR uni573A
ENCODING 22330
SWIDTH 1000 0
DWIDTH 17 0
BBX 15 14 1 -1
BITMAP
10F0
1130
1040
7C80
31F0
128C
15A6
1B6E
34CC
619C
C318
0538
00F0
0060
ENDCHAR
STARTCHAR uni573B
ENCODING 22331
SWIDTH 1000 0
DWIDTH 17 0
BBX 15 16 1 -2
BITMAP
0020
1830
1860
1880
1D20
3D3E
71F0
1130
1D30
3930
7230
E430
0C30
0020
0020
0020
ENDCHAR
STARTCHAR uni573E
ENCODING 22334
SWIDTH 1000 0
DWIDTH 17 0
BBX 15 12 1 0
BITMAP
11F0
1020
1920
7978
5518
1B90
3AF0
3260
6660
C4F8
099C
120E
ENDCHAR
STARTCHAR uni5740
ENCODING 22336
SWIDTH 1000 0
DWIDTH 17 0
BBX 15 12 1 0
BITMAP
0040
1060
1060
3860
7A70
32F8
3260
3E60
3A60
73FE
EF44
4000
ENDCHAR
STARTCHAR uni5742
ENCODING 22338
SWIDTH 1000 0
DWIDTH 17 0
BBX 16 14 0 -1
BITMAP
0020
0860
18C0
1900
3D00
19F8
1B90
1DF0
1970
3260
E2F8
459C
080F
1006
ENDCHAR
STARTCHAR uni5747
ENCODING 22343
SWIDTH 1000 0
DWIDTH 17 0
BBX 15 16 1 -2
BITMAP
0040
0060
0840
18C0
1CFC
1F0E
394C
1AEC
183C
1E6C
1DCC
790C
E018
20F8
0070
0020
ENDCHAR
STARTCHAR uni574A
ENCODING 22346
SWIDTH 1000 0
DWIDTH 17 0
BBX 15 14 1 -1
BITMAP
0180
10C0
10C0
307E
7F80
7440
3440
38F0
3198
E118
C238
0430
08E0
0040
ENDCHAR
STARTCHAR uni574C
ENCODING 22348
SWIDTH 1000 0
DWIDTH 17 0
BBX 15 16 1 -2
BITMAP
0100
0880
1840
1870
37F8
42DE
84C8
0C80
1B80
2300
4380
0E80
0600
07E0
7FF0
2010
ENDCHAR
STARTCHAR uni574D
ENCODING 22349
SWIDTH 1000 0
DWIDTH 17 0
BBX 15 14 1 -1
BITMAP
1060
1198
1918
7D70
7110
1DFE
1FDE
3318
E118
C218
0218
0478
0838
0010
ENDCHAR
STARTCHAR uni574E
ENCODING 22350
SWIDTH 1000 0
DWIDTH 17 0
BBX 15 14 1 -1
BITMAP
0080
1080
1180
31F8
7918
7260
34C0
38C0
30C0
60E0
C1B0
C338
061C
080E
ENDCHAR
STARTCHAR uni574F
ENCODING 22351
SWIDTH 1000 0
DWIDTH 17 0
BBX 15 12 1 0
BITMAP
3000
31F8
3200
3CC0
70C0
3080
39C0
39DC
32CE
64C6
C0C0
00C0
ENDCHAR
STARTCHAR uni5750
ENCODING 22352
SWIDTH 1000 0
DWIDTH 17 0
BBX 15 14 1 -1
BITMAP
0100
0920
0920
1940
3DB0
2D18
4108
87E0
0F00
0300
0300
03FE
3F7C
7000
ENDCHAR
STARTCHAR uni5751
ENCODING 22353
SWIDTH 1000 0
DWIDTH 17 0
BBX 15 14 1 -1
BITMAP
1080
10C0
10E8
7B18
7000
31E0
3140
3940
3340
6242
C262
8476
083E
001E
ENDCHAR
STARTCHAR uni5757
ENCODING 22359
SWIDTH 1000 0
DWIDTH 17 0
BBX 15 14 1 -1
BITMAP
0080
1080
1080
13F0
3BB0
71A0
31A0
37FE
3F02
3300
E260
8238
0418
1810
ENDCHAR
STARTCHAR uni575A
ENCODING 22362
SWIDTH 1000 0
DWIDTH 17 0
BBX 13 14 2 -1
BITMAP
1000
5780
5180
5700
5300
D780
DCF0
9C78
0C00
1F00
0400
0C00
1FE0
FFE0
ENDCHAR
STARTCHAR uni575B
ENCODING 22363
SWIDTH 1000 0
DWIDTH 17 0
BBX 15 12 1 0
BITMAP
1060
11F0
1800
7C00
33FE
1602
3480
3880
7130
C338
83D8
0008
ENDCHAR
STARTCHAR uni575C
ENCODING 22364
SWIDTH 1000 0
DWIDTH 17 0
BBX 15 14 1 -1
BITMAP
0800
08F8
0988
1900
3D10
7910
1B7E
1DF6
1B26
1A66
7644
E4BC
C918
1010
ENDCHAR
STARTCHAR uni575D
ENCODING 22365
SWIDTH 1000 0
DWIDTH 17 0
BBX 13 14 2 -2
BITMAP
11F0
1230
1230
3AB0
72B0
12B0
12B0
1AB0
33B0
6130
C360
0630
0818
0018
ENDCHAR
STARTCHAR uni575E
ENCODING 22366
SWIDTH 1000 0
DWIDTH 17 0
BBX 13 16 2 -2
BITMAP
0100
0100
1280
1360
3E40
7240
32C0
3A80
35C0
E638
C418
0FD8
1018
01F0
00E0
00C0
ENDCHAR
STARTCHAR uni575F
ENCODING 22367
SWIDTH 1000 0
DWIDTH 17 0
BBX 15 12 1 0
BITMAP
1180
1080
10B0
3FF8
7440
3240
3DC0
31C0
61C0
C3F0
C43E
181C
ENDCHAR
STARTCHAR uni5760
ENCODING 22368
SWIDTH 1000 0
DWIDTH 17 0
BBX 13 14 2 -1
BITMAP
7B00
9300
A200
B300
B580
F4C0
A860
9C38
8E10
BF00
0C00
0C00
3FE0
E020
ENDCHAR
STARTCHAR uni5761
ENCODING 22369
SWIDTH 1000 0
DWIDTH 17 0
BBX 17 14 0 -1
BITMAP
006000
006000
187800
19EC00
1D7000
716000
137000
1BD800
1A9000
32F000
E66000
447800
099F00
370F80
ENDCHAR
STARTCHAR uni5764
ENCODING 22372
SWIDTH 1000 0
DWIDTH 17 0
BBX 13 16 2 -2
BITMAP
0080
20C0
3080
37F0
7C98
77D8
3498
3BF8
32B0
60A0
C080
8080
0080
0080
0080
0080
ENDCHAR
STARTCHAR uni5766
ENCODING 22374
SWIDTH 1000 0
DWIDTH 17 0
BBX 15 10 1 1
BITMAP
11F0
1918
19F8
7930
3170
15B0
1800
3800
73FE
CF82
ENDCHAR
STARTCHAR uni5768
ENCODING 22376
SWIDTH 1000 0
DWIDTH 17 0
BBX 15 14 1 -1
BITMAP
00C0
10E0
131C
120E
3A30
5690
14B0
18E0
30C0
6180
C102
8082
00FE
007E
ENDCHAR
STARTCHAR uni5769
ENCODING 22377
SWIDTH 1000 0
DWIDTH 17 0
BBX 15 12 1 0
BITMAP
0010
3110
3114
33FE
7F10
2110
29F0
31F0
7130
E130
83F0
0330
ENDCHAR
STARTCHAR uni576A
ENCODING 22378
SWIDTH 1000 0
DWIDTH 17 0
BBX 15 16 1 -2
BITMAP
0020
18F0
1840
1C6C
3978
7160
14FE
1FE0
3260
6060
C060
4060
0060
0060
0040
0040
ENDCHAR
STARTCHAR uni576B
ENCODING 22379
SWIDTH 1000 0
DWIDTH 17 0
BBX 14 13 2 -1
BITMAP
10C0
18C0
18C0
1CF0
7CF0
50C0
12C0
14F0
3B1C
3A18
F130
E1F0
41B0
ENDCHAR
STARTCHAR uni576D
ENCODING 22381
SWIDTH 1000 0
DWIDTH 17 0
BBX 15 14 1 -1
BITMAP
00F0
0038
1030
1160
1BE0
7300
F350
3A70
3260
6644
C4C4
C946
107E
203C
ENDCHAR
STARTCHAR uni576F
ENCODING 22383
SWIDTH 1000 0
DWIDTH 17 0
BBX 15 12 1 0
BITMAP
08FC
1900
1820
1C60
3A60
78EC
19E6
1F66
3C60
7044
C1FE
0300
ENDCHAR
STARTCHAR uni5773
ENCODING 22387
SWIDTH 1000 0
DWIDTH 17 0
BBX 15 14 1 -1
BITMAP
0188
3108
3248
32D8
3FBC
7F52
33B6
3AE6
77E6
E65C
C0CC
0180
0200
0400
ENDCHAR
STARTCHAR uni5776
ENCODING 22390
SWIDTH 1000 0
DWIDTH 17 0
BBX 17 14 0 -1
BITMAP
10F000
080C00
088C00
1CA800
39FF80
1FD900
1D5800
195800
321800
E3FC00
403800
007000
01E000
004000
ENDCHAR
STARTCHAR uni5777
ENCODING 22391
SWIDTH 1000 0
DWIDTH 17 0
BBX 15 14 1 -1
BITMAP
3000
31FE
3612
7810
73D0
2490
2D10
3390
6210
C010
0010
0030
00F0
0060
ENDCHAR
STARTCHAR uni577B
ENCODING 22395
SWIDTH 1000 0
DWIDTH 17 0
BBX 17 12 0 0
BITMAP
086000
08C000
082000
1D3800
79E000
19A000
1D3000
191800
718C80
E30F80
036700
023100
ENDCHAR
STARTCHAR uni577C
ENCODING 22396
SWIDTH 1000 0
DWIDTH 17 0
BBX 15 16 1 -2
BITMAP
0020
1070
18C0
1B00
1C00
793C
39F0
1530
1928
3926
E226
4220
0420
0020
0020
0020
ENDCHAR
STARTCHAR uni5782
ENCODING 22402
SWIDTH 1000 0
DWIDTH 17 0
BBX 15 16 1 -2
BITMAP
0080
01C0
0300
0D00
119C
1FFE
F5B0
4FF0
1DA0
0560
05C0
0FF8
1900
0300
07F0
0800
ENDCHAR
STARTCHAR uni5783
ENCODING 22403
SWIDTH 1000 0
DWIDTH 17 0
BBX 15 12 1 0
BITMAP
0080
10C0
10F8
1BF8
7C00
5010
1130
15A0
3860
70FE
C7FE
8400
ENDCHAR
STARTCHAR uni5784
ENCODING 22404
SWIDTH 1000 0
DWIDTH 17 0
BBX 13 16 2 -2
BITMAP
0400
0D80
0D80
3F80
3A00
1380
3388
2608
4B98
85F8
0770
1F00
0C00
0FE0
FFF0
4000
ENDCHAR
STARTCHAR uni5785
ENCODING 22405
SWIDTH 1000 0
DWIDTH 17 0
BBX 15 12 1 0
BITMAP
0098
1198
31E0
3FB0
7100
33B0
2AB0
36E0
64C0
CC82
19E2
027E
ENDCHAR
STARTCHAR uni5786
ENCODING 22406
SWIDTH 1000 0
DWIDTH 17 0
BBX 13 16 2 -2
BITMAP
0040
0040
1060
1040
18F8
7B18
1130
11F0
1B00
3200
E200
4400
0400
0800
1000
2000
ENDCHAR
STARTCHAR uni578B
ENCODING 22411
SWIDTH 1000 0
DWIDTH 17 0
BBX 13 16 2 -2
BITMAP
0020
0C20
3CA0
34A0
3FA0
F5A0
A4A0
2420
2620
42E0
07E0
0A00
0200
07F0
7DF8
2000
ENDCHAR
STARTCHAR uni578C
ENCODING 22412
SWIDTH 1000 0
DWIDTH 17 0
BBX 15 14 1 -1
BITMAP
083C
19C6
1906
1DF6
7906
19F6
1BB6
1F66
1B46
7206
C206
003E
000C
0008
ENDCHAR
STARTCHAR uni5792
ENCODING 22418
SWIDTH 1000 0
DWIDTH 17 0
BBX 13 16 2 -2
BITMAP
0400
0600
0E00
1980
3F80
3100
2140
2A60
5FB0
E420
4700
1F80
0600
07E0
7FF8
4000
ENDCHAR
STARTCHAR uni5793
ENCODING 22419
SWIDTH 1000 0
DWIDTH 17 0
BBX 15 16 1 -2
BITMAP
0080
00C0
1844
19FE
1A20
1CB0
7120
33E0
17D0
1AD0
3090
71B0
E370
C6CC
0906
0004
ENDCHAR
STARTCHAR uni579B
ENCODING 22427
SWIDTH 1000 0
DWIDTH 17 0
BBX 15 14 1 -1
BITMAP
21E0
3140
3140
3970
FA38
3480
30F8
3FC8
71C0
E1A0
83B8
069C
188E
0080
ENDCHAR
STARTCHAR uni57A0
ENCODING 22432
SWIDTH 1000 0
DWIDTH 17 0
BBX 15 14 1 -1
BITMAP
00E0
1160
1260
13E0
1E60
F3C0
3310
3EB0
3AC0
72E0
E538
C61E
060C
0400
ENDCHAR
STARTCHAR uni57A1
ENCODING 22433
SWIDTH 1000 0
DWIDTH 17 0
BBX 13 16 2 -2
BITMAP
0200
0AE0
1A20
1380
2D40
51C0
9188
12D0
3678
1338
0380
0E40
0200
07F0
7FF8
2000
ENDCHAR
STARTCHAR uni57A2
ENCODING 22434
SWIDTH 1000 0
DWIDTH 17 0
BBX 14 14 1 -1
BITMAP
0020
1070
10F0
1300
3E00
723C
13FC
1300
3E00
3AFC
E70C
C498
08F8
1098
ENDCHAR
STARTCHAR uni57A3
ENCODING 22435
SWIDTH 1000 0
DWIDTH 17 0
BBX 15 12 1 0
BITMAP
1060
11A0
1000
7DF8
5318
13D8
3D30
39F0
7100
E00E
C7FE
0C00
ENDCHAR
STARTCHAR uni57A4
ENCODING 22436
SWIDTH 1000 0
DWIDTH 17 0
BBX 15 12 1 0
BITMAP
10F8
1140
1CA0
71B0
13D8
1540
1870
19F0
7040
C040
41FE
0704
ENDCHAR
STARTCHAR uni57A6
ENCODING 22438
SWIDTH 1000 0
DWIDTH 17 0
BBX 13 16 2 -2
BITMAP
0300
0580
1100
1F00
1100
1FC0
1780
1300
1DC0
1EF8
1FA0
0F00
0600
3FF8
FF78
4000
ENDCHAR
STARTCHAR uni57A7
ENCODING 22439
SWIDTH 1000 0
DWIDTH 17 0
BBX 15 14 1 -1
BITMAP
0040
3060
3080
3DF0
7B0E
3206
33F6
3EA6
32E6
E286
C206
824C
023C
0018
ENDCHAR
STARTCHAR uni57A9
ENCODING 22441
SWIDTH 1000 0
DWIDTH 17 0
BBX 13 14 2 -1
BITMAP
1F80
1700
0B60
3BC0
1B00
0FE0
7FE0
0600
0780
1F80
0600
0610
FFF8
E000
ENDCHAR
STARTCHAR uni57AB
ENCODING 22443
SWIDTH 1000 0
DWIDTH 17 0
BBX 13 16 2 -2
BITMAP
1000
1100
1D00
73C0
1D40
17C0
F380
94C8
3C78
2438
0F80
1600
0600
1FF8
F830
4000
ENDCHAR
STARTCHAR uni57AD
ENCODING 22445
SWIDTH 1000 0
DWIDTH 17 0
BBX 15 12 1 0
BITMAP
11F0
1100
10A0
78A8
D0AC
34B8
3330
3B60
3160
61A0
C7FE
0E02
ENDCHAR
STARTCHAR uni57AE
ENCODING 22446
SWIDTH 1000 0
DWIDTH 17 0
BBX 15 16 1 -2
BITMAP
0180
0120
33F0
3140
3A60
73F0
641C
29FE
3780
6100
C3E0
0060
0060
04C0
02C0
0180
ENDCHAR
STARTCHAR uni57B2
ENCODING 22450
SWIDTH 1000 0
DWIDTH 17 0
BBX 15 14 1 -1
BITMAP
00C0
10C0
11D8
1FF8
7B18
1000
15F0
1820
31E0
E100
C102
0102
018E
00FE
ENDCHAR
STARTCHAR uni57B4
ENCODING 22452
SWIDTH 1000 0
DWIDTH 17 0
BBX 15 14 1 -1
BITMAP
00C0
1060
10FC
1BC6
7020
50B0
36E0
3A66
32B6
7306
C2FE
4304
020C
0004
ENDCHAR
STARTCHAR uni57B8
ENCODING 22456
SWIDTH 1000 0
DWIDTH 17 0
BBX 17 14 0 -1
BITMAP
00C000
086000
099C00
1F0E00
3B6000
1AE000
1C0800
19F800
32A000
70A000
E12100
012100
023180
041F00
ENDCHAR
STARTCHAR uni57C2
ENCODING 22466
SWIDTH 1000 0
DWIDTH 17 0
BBX 15 14 1 -1
BITMAP
0060
1190
1060
3BD8
7AF8
73D8
31F0
39C0
7280
C180
81C0
0378
063E
0808
ENDCHAR
STARTCHAR uni57C3
ENCODING 22467
SWIDTH 1000 0
DWIDTH 17 0
BBX 15 16 1 -2
BITMAP
0040
0040
0898
09F8
0D88
3890
19E0
1F60
1C7E
39C0
6640
C0F0
009C
010C
0604
0800
ENDCHAR
STARTCHAR uni57CB
ENCODING 22475
SWIDTH 1000 0
DWIDTH 17 0
BBX 15 12 1 0
BITMAP
13F8
127C
1BFC
7B5C
31F8
3350
3440
38F8
33C0
E0C0
C3FE
0FFE
ENDCHAR
STARTCHAR uni57CE
ENCODING 22478
SWIDTH 1000 0
DWIDTH 17 0
BBX 15 12 1 0
BITMAP
0080
00B0
2080
23E0
34C0
E450
2FD8
34F0
64B0
CB3A
895E
008E
ENDCHAR
STARTCHAR uni57CF
ENCODING 22479
SWIDTH 1000 0
DWIDTH 17 0
BBX 15 12 1 0
BITMAP
2060
20C0
3340
FC50
6570
2D40
3D60
3DF0
C700
8BC0
10FE
203C
ENDCHAR
STARTCHAR uni57D2
ENCODING 22482
SWIDTH 1000 0
DWIDTH 17 0
BBX 15 16 1 -2
BITMAP
0040
00C0
0188
127C
1558
1920
7040
10A4
34FE
3B20
75A0
E1A0
4030
0130
00E0
0060
ENDCHAR
STARTCHAR uni57D4
ENCODING 22484
SWIDTH 1000 0
DWIDTH 17 0
BBX 15 16 1 -2
BITMAP
0040
0078
107E
1BCE
1860
3DD8
5158
11F8
1158
3DF8
7A58
E258
4258
0258
0078
0010
ENDCHAR
STARTCHAR uni57D5
ENCODING 22485
SWIDTH 1000 0
DWIDTH 17 0
BBX 15 14 1 -1
BITMAP
00F0
111C
1118
1D30
70F0
5030
31F8
3C40
3070
61E0
C040
00DE
03FE
0400
ENDCHAR
STARTCHAR uni57D8
ENCODING 22488
SWIDTH 1000 0
DWIDTH 17 0
BBX 15 14 1 -1
BITMAP
0018
0018
1398
34DE
3CF8
7398
3498
3CF8
3798
2498
E018
C098
0078
0030
ENDCHAR
STARTCHAR uni57D9
ENCODING 22489
SWIDTH 1000 0
DWIDTH 17 0
BBX 13 14 2 -1
BITMAP
03F8
1330
31F0
39A0
7140
31B0
3510
3950
71D0
E3D0
C390
0180
0378
0618
ENDCHAR
STARTCHAR uni57DA
ENCODING 22490
SWIDTH 1000 0
DWIDTH 17 0
BBX 15 14 1 -1
BITMAP
01F8
111C
1918
18F0
3840
70F8
1346
3646
3AA6
7294
E304
420C
011C
0018
ENDCHAR
STARTCHAR uni57DD
ENCODING 22493
SWIDTH 1000 0
DWIDTH 17 0
BBX 15 16 1 -2
BITMAP
0080
0080
1180
31C0
3260
3BB0
F49C
3BCE
38C4
3090
61D8
E488
C710
0598
00F8
0030
ENDCHAR
STARTCHAR uni57DF
ENCODING 22495
SWIDTH 1000 0
DWIDTH 17 0
BBX 17 14 0 -1
BITMAP
004000
005C00
004C00
107800
1BE000
186000
39EC00
12B800
17B800
195800
31DD00
E62F00
406780
008300
ENDCHAR
STARTCHAR uni57E0
ENCODING 22496
SWIDTH 1000 0
DWIDTH 17 0
BBX 15 16 1 -2
BITMAP
00C0
11C0
13B0
1160
19E0
7160
11B0
3D60
39A0
30C0
67FE
C8C0
00C0
00C0
00C0
0080
ENDCHAR
STARTCHAR uni57E4
ENCODING 22500
SWIDTH 1000 0
DWIDTH 17 0
BBX 15 16 1 -2
BITMAP
00C0
10C0
11F0
1258
39D8
71D8
11F0
3590
39C0
33FE
EC42
C040
0040
0040
0040
0040
ENDCHAR
STARTCHAR uni57ED
ENCODING 22509
SWIDTH 1000 0
DWIDTH 17 0
BBX 15 16 1 -2
BITMAP
0080
1080
33F0
30BE
3FF6
70B0
37D8
3AB8
37E0
61C0
C2E0
0CB8
189E
0384
0180
0100
ENDCHAR
STARTCHAR uni57EF
ENCODING 22511
SWIDTH 1000 0
DWIDTH 17 0
BBX 15 14 1 -1
BITMAP
0100
0100
21E0
3780
2240
7360
E7F0
2DFC
3F4E
73C0
E308
8108
00F8
0078
ENDCHAR
STARTCHAR uni57F4
ENCODING 22516
SWIDTH 1000 0
DWIDTH 17 0
BBX 15 14 1 -1
BITMAP
0040
00C0
11F0
1290
39E0
7130
31F0
3130
39B0
32F0
6320
C220
07FE
1C22
ENDCHAR
STARTCHAR uni57F8
ENCODING 22520
SWIDTH 1000 0
DWIDTH 17 0
BBX 15 16 1 -2
BITMAP
00F0
0118
19F0
11B0
1D30
71E0
12C0
14F8
1904
72F6
E5A6
C24C
048C
015C
0638
0020
ENDCHAR
STARTCHAR uni57F9
ENCODING 22521
SWIDTH 1000 0
DWIDTH 17 0
BBX 15 14 1 -1
BITMAP
00C0
1040
19F8
1810
3D30
71A0
11FE
1602
1800
31F0
E110
C130
01F0
0080
ENDCHAR
STARTCHAR uni57FA
ENCODING 22522
SWIDTH 1000 0
DWIDTH 17 0
BBX 15 16 1 -2
BITMAP
0100
0980
0980
1FE0
0F80
0980
0F80
09F8
3FF8
CD80
1AC0
1F70
223C
C68E
1FC0
1800
ENDCHAR
STARTCHAR uni57FD
ENCODING 22525
SWIDTH 1000 0
DWIDTH 17 0
BBX 15 16 1 -2
BITMAP
01F0
1030
10F0
1060
1980
73FE
366E
36F0
3D58
3158
E158
C170
0040
0040
0040
0040
ENDCHAR
STARTCHAR uni5800
ENCODING 22528
SWIDTH 1000 0
DWIDTH 17 0
BBX 15 14 1 -1
BITMAP
0060
1840
1040
1C48
3D4C
73FE
1344
1040
1C40
3948
727C
E7FC
478C
000C
ENDCHAR
STARTCHAR uni5802
ENCODING 22530
SWIDTH 1000 0
DWIDTH 17 0
BBX 15 16 1 -2
BITMAP
0200
0340
03E0
1B80
0B00
1EF8
600E
4FD0
C580
C780
0300
0380
07C0
03F0
1FF0
0800
ENDCHAR
STARTCHAR uni5806
ENCODING 22534
SWIDTH 1000 0
DWIDTH 17 0
BBX 15 14 1 -1
BITMAP
01A0
11B0
1320
1A78
76A0
1520
3FF8
3B20
3278
62A0
C220
02FE
0302
0200
ENDCHAR
STARTCHAR uni5807
ENCODING 22535
SWIDTH 1000 0
DWIDTH 17 0
BBX 12 16 2 -2
BITMAP
0100
1180
0FE0
3900
0F00
07C0
3E60
27C0
1F80
1600
1F80
0780
1E00
0600
FFF0
6000
ENDCHAR
STARTCHAR uni580B
ENCODING 22539
SWIDTH 1000 0
DWIDTH 17 0
BBX 15 12 1 0
BITMAP
33DE
3296
7A96
639E
2296
3B9E
76B6
E4A6
44A6
09C6
109E
0004
ENDCHAR
STARTCHAR uni580D
ENCODING 22541
SWIDTH 1000 0
DWIDTH 17 0
BBX 15 16 1 -2
BITMAP
0080
21C0
3160
3240
3CF0
F398
32B8
3BF0
3380
61E0
E158
C242
0442
0862
107E
201C
ENDCHAR
STARTCHAR uni5811
ENCODING 22545
SWIDTH 1000 0
DWIDTH 17 0
BBX 13 16 2 -2
BITMAP
1000
1040
3CC0
1180
2B40
3DF8
6940
0F40
7A40
8A40
0E40
0F80
0200
0600
7FF8
2010
ENDCHAR
STARTCHAR uni5815
ENCODING 22549
SWIDTH 1000 0
DWIDTH 17 0
BBX 11 16 3 -2
BITMAP
0100
3900
D7E0
6A00
77C0
5FC0
7240
63C0
4240
85C0
8480
0F80
3C00
0FC0
7FE0
C000
ENDCHAR
STARTCHAR uni5819
ENCODING 22553
SWIDTH 1000 0
DWIDTH 17 0
BBX 15 14 1 -1
BITMAP
1000
11F0
10A0
39FC
72A6
52EC
13FC
3D58
3840
71E0
E0C0
C0E0
07FE
0400
ENDCHAR
STARTCHAR uni581E
ENCODING 22558
SWIDTH 1000 0
DWIDTH 17 0
BBX 15 16 1 -2
BITMAP
0010
1050
1854
197C
1DD0
3BD0
78A0
1CB8
1CF8
1820
30FE
E720
413C
012C
0160
0040
ENDCHAR
STARTCHAR uni5820
ENCODING 22560
SWIDTH 1000 0
DWIDTH 17 0
BBX 15 14 1 -1
BITMAP
0080
11F0
1130
123E
3EC0
5520
1D78
1BD0
3B3E
73F0
E320
C37C
02C6
0202
ENDCHAR
STARTCHAR uni5821
ENCODING 22561
SWIDTH 1000 0
DWIDTH 17 0
BBX 15 15 1 -1
BITMAP
0040
05B0
0CA0
18C0
1DFC
2AE0
C978
0A5E
0D44
0180
03E0
0780
0180
07FC
3C0C
ENDCHAR
STARTCHAR uni5824
ENCODING 22564
SWIDTH 1000 0
DWIDTH 17 0
BBX 15 14 1 -1
BITMAP
01F0
3230
33E0
3A20
F1E0
3000
3BF8
3C80
72E0
E680
8580
08E0
107E
201C
ENDCHAR
STARTCHAR uni582A
ENCODING 22570
SWIDTH 1000 0
DWIDTH 17 0
BBX 15 16 1 -2
BITMAP
0020
0120
11F0
1320
31E0
79A0
F1E0
3520
397E
37C6
6840
C2C0
8330
0200
01F8
0100
ENDCHAR
STARTCHAR uni5830
ENCODING 22576
SWIDTH 1000 0
DWIDTH 17 0
BBX 15 16 1 -2
BITMAP
0010
11F0
1080
10F8
1AF0
72F0
1220
165E
1BE0
3260
7250
E388
427C
07FE
0704
0200
ENDCHAR
STARTCHAR uni5835
ENCODING 22581
SWIDTH 1000 0
DWIDTH 17 0
BBX 15 16 1 -2
BITMAP
0080
00C0
10F8
11D8
30D0
38FE
7762
30F0
35F8
3B18
35D8
7918
E1F8
41D8
0030
0010
ENDCHAR
STARTCHAR uni5844
ENCODING 22596
SWIDTH 1000 0
DWIDTH 17 0
BBX 15 14 1 -1
BITMAP
13FC
1AE8
1AD8
1DF0
7990
10C0
11FE
1FC0
38E0
61B0
C330
0620
09E0
00C0
ENDCHAR
STARTCHAR uni584C
ENCODING 22604
SWIDTH 1000 0
DWIDTH 17 0
BBX 15 16 1 -2
BITMAP
0078
118C
11E8
1098
1CF8
7010
31FE
1746
19FE
31C4
61DC
C364
0644
01FC
004C
0008
ENDCHAR
STARTCHAR uni584D
ENCODING 22605
SWIDTH 1000 0
DWIDTH 17 0
BBX 15 14 1 -1
BITMAP
0040
0850
35E0
24F0
2580
39F8
2AA0
3970
2A5C
4DEE
4840
A8C0
99F8
0200
ENDCHAR
STARTCHAR uni5851
ENCODING 22609
SWIDTH 1000 0
DWIDTH 17 0
BBX 11 16 3 -2
BITMAP
0C00
4800
11E0
7D40
91C0
5540
BFE0
F660
A260
2560
4CC0
8F00
1D00
0400
7FE0
E020
ENDCHAR
STARTCHAR uni5854
ENCODING 22612
SWIDTH 1000 0
DWIDTH 17 0
BBX 16 14 1 -1
BITMAP
0220
2220
6270
6640
7180
E1C0
2360
2A38
35DF
680C
C3F0
8220
0160
01A0
ENDCHAR
STARTCHAR uni5858
ENCODING 22616
SWIDTH 1000 0
DWIDTH 17 0
BBX 15 14 1 -1
BITMAP
0080
00C0
31F8
3260
33F8
726C
A3FE
2678
3BF8
7600
C5F8
8D10
08A0
30F0
ENDCHAR
STARTCHAR uni585E
ENCODING 22622
SWIDTH 1000 0
DWIDTH 17 0
BBX 13 16 2 -2
BITMAP
0400
0600
3FE0
2130
4F00
5D00
0700
0900
0FE0
3920
0F80
16C0
2F70
4678
8F80
1880
ENDCHAR
STARTCHAR uni5865
ENCODING 22629
SWIDTH 1000 0
DWIDTH 17 0
BBX 15 14 1 -1
BITMAP
1070
11C0
1060
1198
1D30
70F0
7080
31FC
3EA6
3AE6
7346
C36C
411C
0008
ENDCHAR
STARTCHAR uni586B
ENCODING 22635
SWIDTH 1000 0
DWIDTH 17 0
BBX 15 16 1 -2
BITMAP
0040
10C0
13F8
1080
3DE0
73B0
12A0
1720
1BE0
32A0
E2E0
C7FE
3900
0370
0618
0810
ENDCHAR
STARTCHAR uni586C
ENCODING 22636
SWIDTH 1000 0
DWIDTH 17 0
BBX 15 14 1 -1
BITMAP
00F8
1820
1970
1DCC
79BC
1BEC
1D58
1A78
3220
72A0
E5AE
4922
0860
1060
ENDCHAR
STARTCHAR uni587E
ENCODING 22654
SWIDTH 1000 0
DWIDTH 17 0
BBX 13 16 2 -2
BITMAP
1000
3F00
5100
2D80
3F40
21C0
7BC0
1BC0
3C48
4C70
3630
2F80
0600
0FF0
FFF0
4000
ENDCHAR
STARTCHAR uni5880
ENCODING 22656
SWIDTH 1000 0
DWIDTH 17 0
BBX 13 16 2 -2
BITMAP
0040
03E0
2240
23D0
3270
E5C0
65B8
3E40
35E0
EA48
89F8
1640
2040
4040
0040
0040
ENDCHAR
STARTCHAR uni5881
ENCODING 22657
SWIDTH 1000 0
DWIDTH 17 0
BBX 15 16 1 -2
BITMAP
00E0
1170
11B0
11E0
1820
7BFC
72CC
33FC
3B08
39E0
E0A0
C0C0
00E0
01FC
063E
0004
ENDCHAR
STARTCHAR uni5883
ENCODING 22659
SWIDTH 1000 0
DWIDTH 17 0
BBX 15 16 1 -2
BITMAP
0100
0180
03E0
2060
23C0
3BFC
EDE0
2230
23B0
2AF0
3160
E140
C342
0262
043E
080C
ENDCHAR
STARTCHAR uni5885
ENCODING 22661
SWIDTH 1000 0
DWIDTH 17 0
BBX 13 14 2 -1
BITMAP
FDE0
B640
F4C0
7CF8
7F58
3860
7260
3B40
FAC0
0F80
0E00
0200
1FE0
7DE0
ENDCHAR
ENDFONT
